<svg version="1.1" id="Layer_1" xmlns="http://www.w3.org/2000/svg" xmlns:xlink="http://www.w3.org/1999/xlink" x="0px" y="0px"
	 width="100%" viewBox="0 0 138 143" enable-background="new 0 0 138 143" xml:space="preserve">
<path fill="#FEFFFF" opacity="1.000000" stroke="none" 
	d="
M91.000000,144.000000 
	C60.693226,144.000000 30.886452,144.000000 1.039839,144.000000 
	C1.039839,96.402359 1.039839,48.804672 1.039839,1.103492 
	C46.889847,1.103492 92.780006,1.103492 138.835083,1.103492 
	C138.835083,48.666195 138.835083,96.333054 138.835083,144.000000 
	C123.138397,144.000000 107.319199,144.000000 91.000000,144.000000 
M112.999039,93.253357 
	C113.574722,91.165504 114.150406,89.077644 114.927696,86.199631 
	C115.242218,83.797401 115.556740,81.395164 116.127113,78.180656 
	C117.276848,71.479362 118.426582,64.778076 119.794868,57.338413 
	C121.145805,49.144230 122.520691,40.953899 123.839279,32.754513 
	C124.724014,27.252974 123.732925,26.010340 118.426048,26.007860 
	C85.936401,25.992672 53.446747,25.992182 20.957104,26.007975 
	C15.385014,26.010683 14.543650,27.113058 15.474326,32.560223 
	C17.686859,45.509968 19.827009,58.472088 22.042063,71.421394 
	C24.537386,86.009178 27.093424,100.586563 29.598442,115.172699 
	C30.182903,118.575882 31.281364,121.089172 35.534801,121.046089 
	C52.691147,120.872299 69.849388,120.886467 87.907242,120.960655 
	C90.939537,120.918022 93.971840,120.875389 97.896935,120.964310 
	C100.599686,120.911186 103.302437,120.858063 106.735336,120.833359 
	C110.910812,119.144707 109.650208,115.184547 110.738937,111.375504 
	C111.134323,107.582245 111.529709,103.788979 112.006584,99.212654 
	C112.310623,97.474365 112.614670,95.736084 112.999039,93.253357 
z"/>
<path fill="#4482F7" opacity="1.000000" stroke="none" 
	d="
M87.006943,120.831223 
	C69.849388,120.886467 52.691147,120.872299 35.534801,121.046089 
	C31.281364,121.089172 30.182903,118.575882 29.598442,115.172699 
	C27.093424,100.586563 24.537386,86.009178 22.042063,71.421394 
	C19.827009,58.472088 17.686859,45.509968 15.474326,32.560223 
	C14.543650,27.113058 15.385014,26.010683 20.957104,26.007975 
	C53.446747,25.992182 85.936401,25.992672 118.426048,26.007860 
	C123.732925,26.010340 124.724014,27.252974 123.839279,32.754513 
	C122.520691,40.953899 121.145805,49.144230 119.175751,57.672752 
	C112.038666,58.009327 105.520699,58.011555 98.552765,57.995895 
	C95.402901,57.989391 92.702995,58.000767 89.667282,58.001423 
	C88.292885,58.660984 87.254295,59.331268 86.137527,59.566391 
	C84.613846,58.704765 83.175858,57.942776 81.721527,57.910179 
	C75.574486,57.772404 69.422585,57.851723 63.272465,57.851692 
	C59.729584,57.851673 56.186703,57.851692 52.275940,57.851692 
	C54.063515,66.907234 55.955395,74.996162 57.158634,83.186264 
	C57.808033,87.606529 59.432919,89.783829 64.048981,89.507584 
	C68.638191,95.645393 73.293854,101.365181 77.696587,107.273438 
	C80.969933,111.666092 83.915428,116.303062 87.006943,120.831223 
z"/>
<path fill="#3269DD" opacity="1.000000" stroke="none" 
	d="
M111.925102,99.995720 
	C111.529709,103.788979 111.134323,107.582245 110.187286,111.676392 
	C105.742996,107.623230 101.867104,103.254059 97.953560,98.918892 
	C92.808990,93.220078 87.634781,87.548027 82.537704,81.437027 
	C83.255577,77.303795 83.909065,73.598000 84.902954,70.011658 
	C91.527267,77.486252 97.751335,84.893837 104.125656,92.169777 
	C106.547585,94.934273 109.315094,97.396004 111.925102,99.995720 
z"/>
<path fill="#3F7BF0" opacity="1.000000" stroke="none" 
	d="
M87.457092,120.895935 
	C83.915428,116.303062 80.969933,111.666092 77.696587,107.273438 
	C73.293854,101.365181 68.638191,95.645393 64.499115,89.443481 
	C67.939919,89.084465 70.972687,89.126686 74.009171,89.524994 
	C77.377441,94.456627 80.723030,99.046272 84.111374,103.604134 
	C88.390739,109.360558 92.704956,115.091072 97.004135,120.832764 
	C93.971840,120.875389 90.939537,120.918022 87.457092,120.895935 
z"/>
<path fill="#3B75E9" opacity="1.000000" stroke="none" 
	d="
M97.450539,120.898529 
	C92.704956,115.091072 88.390739,109.360558 84.111374,103.604134 
	C80.723030,99.046272 77.377441,94.456627 74.428177,89.460236 
	C77.065155,88.443016 79.286812,87.846642 81.636497,87.638290 
	C85.637367,93.311813 89.491463,98.611191 93.388145,103.879059 
	C97.572975,109.536438 101.797813,115.164230 106.005188,120.804932 
	C103.302437,120.858063 100.599686,120.911186 97.450539,120.898529 
z"/>
<path fill="#376FE3" opacity="1.000000" stroke="none" 
	d="
M106.370262,120.819145 
	C101.797813,115.164230 97.572975,109.536438 93.388145,103.879059 
	C89.491463,98.611191 85.637367,93.311813 81.620148,87.304596 
	C81.808296,85.010071 82.140808,83.437271 82.473320,81.864464 
	C87.634781,87.548027 92.808990,93.220078 97.953560,98.918892 
	C101.867104,103.254059 105.742996,107.623230 110.017601,112.020775 
	C109.650208,115.184547 110.910812,119.144707 106.370262,120.819145 
z"/>
<path fill="#2353C6" opacity="1.000000" stroke="none" 
	d="
M99.002731,58.013783 
	C105.520699,58.011555 112.038666,58.009327 119.066467,58.041939 
	C118.426582,64.778076 117.276848,71.479362 115.662155,78.548630 
	C110.790237,73.930054 106.277969,69.030670 102.036728,63.906948 
	C100.660614,62.244511 99.993919,59.994846 99.002731,58.013783 
z"/>
<path fill="#2B5FD2" opacity="1.000000" stroke="none" 
	d="
M86.215714,60.001553 
	C87.254295,59.331268 88.292885,58.660984 89.702255,58.349602 
	C95.749023,66.006760 101.287292,73.418831 107.175209,80.541885 
	C109.252350,83.054749 112.184380,84.860947 114.726089,86.989792 
	C114.150406,89.077644 113.574722,91.165504 112.602432,93.619385 
	C111.309982,93.376549 110.213593,92.934029 109.549240,92.133133 
	C102.705605,83.883080 95.977982,75.536301 89.083633,67.329384 
	C88.161133,66.231247 86.494026,65.758629 85.108582,64.628227 
	C85.435524,62.840591 85.825623,61.421070 86.215714,60.001553 
z"/>
<path fill="#2759CD" opacity="1.000000" stroke="none" 
	d="
M114.826897,86.594711 
	C112.184380,84.860947 109.252350,83.054749 107.175209,80.541885 
	C101.287292,73.418831 95.749023,66.006760 90.038071,58.360329 
	C92.702995,58.000767 95.402901,57.989391 98.552765,57.995895 
	C99.993919,59.994846 100.660614,62.244511 102.036728,63.906948 
	C106.277969,69.030670 110.790237,73.930054 115.534233,78.954765 
	C115.556740,81.395164 115.242218,83.797401 114.826897,86.594711 
z"/>
<path fill="#2D62D7" opacity="1.000000" stroke="none" 
	d="
M85.171730,64.996346 
	C86.494026,65.758629 88.161133,66.231247 89.083633,67.329384 
	C95.977982,75.536301 102.705605,83.883080 109.549240,92.133133 
	C110.213593,92.934029 111.309982,93.376549 112.562271,93.991608 
	C112.614670,95.736084 112.310623,97.474365 111.965843,99.604187 
	C109.315094,97.396004 106.547585,94.934273 104.125656,92.169777 
	C97.751335,84.893837 91.527267,77.486252 84.957703,69.602821 
	C84.838615,67.715149 85.005173,66.355743 85.171730,64.996346 
z"/>
<path fill="#FDFEFF" opacity="1.000000" stroke="none" 
	d="
M85.108582,64.628227 
	C85.005173,66.355743 84.838615,67.715149 84.617310,69.483383 
	C83.909065,73.598000 83.255577,77.303795 82.537704,81.437027 
	C82.140808,83.437271 81.808296,85.010071 81.492126,86.916580 
	C79.286812,87.846642 77.065155,88.443016 74.424477,89.104141 
	C70.972687,89.126686 67.939919,89.084465 64.457001,89.106354 
	C59.432919,89.783829 57.808033,87.606529 57.158634,83.186264 
	C55.955395,74.996162 54.063515,66.907234 52.275940,57.851692 
	C56.186703,57.851692 59.729584,57.851673 63.272465,57.851692 
	C69.422585,57.851723 75.574486,57.772404 81.721527,57.910179 
	C83.175858,57.942776 84.613846,58.704765 86.137527,59.566391 
	C85.825623,61.421070 85.435524,62.840591 85.108582,64.628227 
z"/>
</svg>