<?xml version="1.0" encoding="UTF-8"?>
<svg version="1.1" xmlns="http://www.w3.org/2000/svg" width="180" height="150">
<path d="M0 0 C59.4 0 118.8 0 180 0 C180 49.5 180 99 180 150 C120.6 150 61.2 150 0 150 C0 100.5 0 51 0 0 Z " fill="#FDFDFD" transform="translate(0,0)"/>
<path d="M0 0 C0.76441406 0.38285156 1.52882812 0.76570313 2.31640625 1.16015625 C6.0472365 2.52744026 8.36487919 0.97050946 11.875 -0.625 C19.19169532 -3.37727645 27.43197932 -3.11599507 34.75 -0.5 C43.70204382 3.64177352 49.1067186 10.27593721 53.4375 18.9375 C53.46309436 20.72910498 53.48318772 22.52079109 53.5 24.3125 C53.69527925 28.32147086 53.69527925 28.32147086 56.03515625 31.3046875 C57.42180215 31.90850633 58.82586537 32.47342 60.2421875 33.00390625 C65.51491263 35.24622174 69.21527726 39.98201657 71.875 44.9375 C74.99038022 52.82709926 74.70317297 62.44142387 71.875 70.375 C69.00011202 76.45882983 65.10680223 82.04356511 58.6875 84.5 C56.82973881 85.2857574 56.82973881 85.2857574 55.4375 86.9375 C54.56126087 90.04115374 53.99349874 93.04989091 53.48803711 96.22680664 C52.09285279 104.7693239 48.30118647 109.97692446 41.65625 115.39453125 C33.94441539 120.75751482 25.7254182 122.33751708 16.4375 120.9375 C13.64489675 119.77265055 11.1941543 118.47862214 8.65625 116.8359375 C6.40846082 115.65848974 6.40846082 115.65848974 3.87890625 116.6875 C3.07324219 117.1 2.26757812 117.5125 1.4375 117.9375 C-5.87452464 121.27280949 -13.24478314 122.52063708 -21.12109375 120.17578125 C-23.36415672 119.21879148 -25.4492974 118.15227515 -27.5625 116.9375 C-28.614375 116.36 -29.66625 115.7825 -30.75 115.1875 C-37.02975931 110.16369255 -41.00378008 103.85100113 -42.5625 95.9375 C-42.7712639 92.88490785 -42.70848175 90.0031168 -42.5625 86.9375 C-43.243125 86.73125 -43.92375 86.525 -44.625 86.3125 C-52.54586322 82.6048619 -57.4932777 76.1542717 -60.671875 68.140625 C-62.80074962 60.48414612 -62.89258664 51.71370557 -59.5 44.4375 C-56.18081829 38.7798039 -51.78165888 33.42038877 -45.5625 30.9375 C-44.2425 30.9375 -42.9225 30.9375 -41.5625 30.9375 C-41.60890625 30.1640625 -41.6553125 29.390625 -41.703125 28.59375 C-41.99136095 20.27608391 -41.12592202 15.22622031 -35.796875 8.8125 C-26.37708629 -1.27483279 -13.21364734 -5.70231805 0 0 Z " fill="#151515" transform="translate(77.5625,18.0625)"/>
<path d="M0 0 C9.11639387 3.98039732 16.55522241 8.70072558 20.33984375 18.28515625 C22.61814889 27.65451763 21.99912869 37.66321775 17 46 C13.97024276 50.31215449 11.22848849 53.65741244 6.25 55.5625 C4.39223881 56.3482574 4.39223881 56.3482574 3 58 C2.12376087 61.10365374 1.55599874 64.11239091 1.05053711 67.28930664 C-0.34464721 75.8318239 -4.13631353 81.03942446 -10.78125 86.45703125 C-18.49308461 91.82001482 -26.7120818 93.40001708 -36 92 C-38.79260325 90.83515055 -41.2433457 89.54112214 -43.78125 87.8984375 C-46.02903918 86.72098974 -46.02903918 86.72098974 -48.55859375 87.75 C-49.36425781 88.1625 -50.16992188 88.575 -51 89 C-58.31202464 92.33530949 -65.68228314 93.58313708 -73.55859375 91.23828125 C-75.80165672 90.28129148 -77.8867974 89.21477515 -80 88 C-81.051875 87.4225 -82.10375 86.845 -83.1875 86.25 C-89.46725931 81.22619255 -93.44128008 74.91350113 -95 67 C-95.2087639 63.94740785 -95.14598175 61.0656168 -95 58 C-95.680625 57.79375 -96.36125 57.5875 -97.0625 57.375 C-104.98336322 53.6673619 -109.9307777 47.2167717 -113.109375 39.203125 C-115.23824962 31.54664612 -115.33008664 22.77620557 -111.9375 15.5 C-109.30978191 10.9845534 -105.92553614 7.41646085 -102 4 C-101.34 4.33 -100.68 4.66 -100 5 C-101.37565456 8.25154714 -103.31189926 10.64001486 -105.68359375 13.2421875 C-111.00974536 20.35425938 -110.81261475 27.44045801 -110 36 C-108.21806782 42.78283864 -104.34054712 48.91031854 -98.33984375 52.6640625 C-97.56769531 53.10492188 -96.79554687 53.54578125 -96 54 C-95.70867187 53.154375 -95.41734375 52.30875 -95.1171875 51.4375 C-91.23853657 40.70412636 -86.21426613 33.77682 -78 26 C-77.01 26.33 -76.02 26.66 -75 27 C-76.28062485 28.7074998 -77.61767557 30.37373596 -79 32 C-79.66 32 -80.32 32 -81 32 C-81.26941406 32.5775 -81.53882813 33.155 -81.81640625 33.75 C-83.01421038 36.02701378 -84.40299633 37.93837675 -85.9375 40 C-89.54209889 45.27910694 -90.80191053 50.78885197 -92 57 C-78.12329334 60.4132222 -64.39836086 58.49739738 -52.1484375 51.33203125 C-51.43945312 50.89246094 -50.73046875 50.45289063 -50 50 C-50.350625 49.401875 -50.70125 48.80375 -51.0625 48.1875 C-52 46 -52 46 -51 43 C-50.5875 43.515625 -50.175 44.03125 -49.75 44.5625 C-48.13175238 46.2289138 -48.13175238 46.2289138 -46.10546875 45.859375 C-40.75710243 43.67636834 -37.76479599 36.63092746 -35.4375 31.66796875 C-34.23816942 28.79570831 -33.08734846 25.91629864 -32 23 C-31.01 23 -30.02 23 -29 23 C-29.70826522 31.9713595 -35.1225257 40.39861391 -41 47 C-41.99 47.495 -41.99 47.495 -43 48 C-43 48.66 -43 49.32 -43 50 C-40.730384 51.14829977 -38.45939222 52.29371978 -36.1875 53.4375 C-35.22360352 53.92573242 -35.22360352 53.92573242 -34.24023438 54.42382812 C-29.95885427 56.57560984 -26.565692 58.12551084 -21.76171875 58.1328125 C-20.53098633 58.13474609 -20.53098633 58.13474609 -19.27539062 58.13671875 C-17.99438477 58.13091797 -17.99438477 58.13091797 -16.6875 58.125 C-15.42389648 58.13080078 -15.42389648 58.13080078 -14.13476562 58.13671875 C-9.64303105 58.12969493 -5.42037186 57.90859193 -1 57 C-4.43940467 43.91003045 -9.18756529 35.31147155 -20 27 C-20.89976563 26.47535156 -21.79953125 25.95070313 -22.7265625 25.41015625 C-25 24 -25 24 -25.8125 21.8125 C-25.874375 21.214375 -25.93625 20.61625 -26 20 C-25.01 20.28875 -24.02 20.5775 -23 20.875 C-20.25866591 21.30666201 -19.20848528 21.1178395 -16.75390625 19.73046875 C-14.76699421 18.21814889 -12.85929257 16.66611932 -11 15 C-10.01 15.495 -10.01 15.495 -9 16 C-11.10148204 19.98175544 -13.36905358 22.35039045 -17 25 C-16.23816406 25.61875 -16.23816406 25.61875 -15.4609375 26.25 C-7.93641747 32.56270594 -2.0417253 39.50771931 1 49 C1.25 52.5625 1.25 52.5625 1 55 C8.75407268 50.38810056 14.17158343 45.76932648 17 37 C18.05547621 25.40434 18.05547621 25.40434 14.40234375 14.67578125 C10.47178336 9.97881633 6.01849114 5.69270063 0 4 C0 2.68 0 1.36 0 0 Z " fill="#161616" transform="translate(130,47)"/>
<path d="M0 0 C6.38111208 0.85451414 10.40646705 4.79142923 14.3671875 9.69140625 C19.12100223 16.61393207 18.89747366 24.90261429 18 33 C15.97446542 40.34492913 11.35908446 45.86596299 5 50 C2.75390625 50.68359375 2.75390625 50.68359375 1 51 C0.773125 49.700625 0.54625 48.40125 0.3125 47.0625 C-2.27294316 35.72905053 -9.93509892 27.96216349 -18 20 C-17.41992188 19.57589844 -16.83984375 19.15179688 -16.2421875 18.71484375 C-9.12280854 13.36943546 -3.62797378 8.26371805 0 0 Z " fill="#F9F9F9" transform="translate(130,51)"/>
<path d="M0 0 C1.98828125 0.7890625 1.98828125 0.7890625 3.0078125 2.390625 C3.40033203 3.39222656 3.40033203 3.39222656 3.80078125 4.4140625 C6.99246878 11.39822579 12.54396882 15.8596037 18.98828125 19.7890625 C18.30765625 20.4696875 17.62703125 21.1503125 16.92578125 21.8515625 C16.46945313 22.315625 16.013125 22.7796875 15.54296875 23.2578125 C14.49530528 24.28968205 13.41557239 25.28984979 12.30859375 26.2578125 C5.19469763 32.70774498 1.10026079 41.49635253 -1.01171875 50.7890625 C-8.03697821 47.27643277 -12.16791622 43.23082722 -15.88671875 36.2890625 C-18.34615038 28.68852981 -18.67101778 18.99639809 -15.01171875 11.7890625 C-12.07480435 7.34582238 -5.88410288 -0.61697389 0 0 Z " fill="#F9F9F9" transform="translate(36.01171875,51.2109375)"/>
<path d="M0 0 C7.55537771 3.03668066 10.76721531 10.75138697 13.8671875 17.73046875 C15.85481282 22.9996768 16.14634014 27.50176146 16.09375 33.12890625 C16.08472656 34.38316406 16.07570312 35.63742188 16.06640625 36.9296875 C16.05480469 37.88230469 16.04320312 38.83492187 16.03125 39.81640625 C14.896875 39.65140625 13.7625 39.48640625 12.59375 39.31640625 C7.85967047 38.78956115 3.16384016 38.70377568 -1.59375 38.69140625 C-2.30974365 38.68689453 -3.0257373 38.68238281 -3.76342773 38.67773438 C-8.26300947 38.69017418 -12.52882342 39.08224516 -16.96875 39.81640625 C-17.5464111 24.96837643 -15.10465053 13.37693139 -4.84375 2.12890625 C-1.96875 -0.18359375 -1.96875 -0.18359375 0 0 Z " fill="#F8F8F8" transform="translate(83.96875,25.18359375)"/>
<path d="M0 0 C0.43699219 1.25103516 0.43699219 1.25103516 0.8828125 2.52734375 C4.13309635 11.4502928 7.760727 19.59602773 15 26 C14 29 14 29 11.48828125 30.53515625 C10.44027344 31.03917969 9.39226562 31.54320313 8.3125 32.0625 C7.27738281 32.56910156 6.24226563 33.07570312 5.17578125 33.59765625 C-1.34751218 36.47817573 -6.50345069 37.31551322 -13.5625 37.25 C-14.81836914 37.26160156 -14.81836914 37.26160156 -16.09960938 37.2734375 C-20.5088024 37.25947331 -23.99157452 37.06569166 -28 35 C-26.81450519 21.4853592 -19.8543863 12.89956744 -9.7734375 4.359375 C-6.84918344 2.1178763 -3.76155699 0 0 0 Z " fill="#F9F9F9" transform="translate(66,69)"/>
<path d="M0 0 C10.51621051 3.97115642 19.33458812 11.13910083 24.67578125 21.13671875 C26.75635775 25.90153197 28.29668938 29.74572681 28 35 C18.38857485 38.84766055 5.73138838 38.6417989 -3.8125 34.75 C-7.76490463 32.80428608 -11.47605034 30.64296224 -15 28 C-14.505 26.515 -14.505 26.515 -14 25 C-13.34 25 -12.68 25 -12 25 C-11.72929688 24.4225 -11.45859375 23.845 -11.1796875 23.25 C-9.99388137 20.98833002 -8.63064854 19.05953997 -7.125 17 C-3.53203306 11.72503138 -1.75273245 6.09332282 0 0 Z " fill="#F9F9F9" transform="translate(101,69)"/>
<path d="M0 0 C0.60328125 0.20496094 1.2065625 0.40992187 1.828125 0.62109375 C3.02695313 1.02521484 3.02695313 1.02521484 4.25 1.4375 C5.03890625 1.70433594 5.8278125 1.97117187 6.640625 2.24609375 C11.60802801 3.83335994 16.10252817 4.152018 21.3125 4.125 C22.41368164 4.13080078 22.41368164 4.13080078 23.53710938 4.13671875 C28.12533703 4.12857638 32.47368339 3.75338955 37 3 C37.63126953 10.25959963 35.70008233 16.44661851 31.26953125 22.27734375 C25.86582267 28.06934276 20.53461374 31.50020331 12.59765625 32.375 C5.25362465 32.62581004 0.20719417 31.97260427 -6 28 C-6 24.83151564 -5.57285457 24.00212766 -4.125 21.3125 C-0.98613519 14.61180278 -0.67867348 7.27788013 0 0 Z " fill="#F9F9F9" transform="translate(92,104)"/>
<path d="M0 0 C0.17015625 1.0621875 0.3403125 2.124375 0.515625 3.21875 C1.89191183 12.30382732 1.89191183 12.30382732 5.3125 20.75 C5.869375 21.8225 6.42625 22.895 7 24 C5.91533381 27.14260042 5.12546106 27.92016114 2.25 29.75 C-4.07571861 32.15032509 -12.02483614 32.16805763 -18.47265625 30.2734375 C-20.46815053 29.32759628 -22.19833116 28.27301014 -24 27 C-25.03125 26.34 -26.0625 25.68 -27.125 25 C-31.93935916 20.72791756 -35.4484895 13.76291018 -36.375 7.44140625 C-36.375 5.25 -36.375 5.25 -36 2 C-35.19175781 2.15984375 -34.38351563 2.3196875 -33.55078125 2.484375 C-21.42329948 4.24546146 -11.34307478 0 0 0 Z " fill="#FAFAFA" transform="translate(74,105)"/>
<path d="M0 0 C1.2684375 0.7425 1.2684375 0.7425 2.5625 1.5 C1.27550648 4.32406634 -0.09735399 6.34169633 -2.25 8.5625 C-9.01462609 16.33603121 -11.26466908 25.46966989 -12.4375 35.5 C-15.82408871 34.21357496 -18.90583215 32.70586744 -22.0625 30.9375 C-27.45058543 28.17854059 -32.44445634 27.62532981 -38.4375 27.5 C-38.97810741 20.96465713 -39.06575485 15.8577738 -35.12890625 10.41796875 C-25.94436155 0.00316171 -13.97857783 -6.05642694 0 0 Z " fill="#F9F9F9" transform="translate(77.4375,20.5)"/>
<path d="M0 0 C3.68779845 2.18220139 6.65130393 4.46624483 9.375 7.8125 C9.8390625 8.37582031 10.303125 8.93914063 10.78125 9.51953125 C14.88530041 15.117 14.9354821 20.03689419 14.375 26.8125 C13.72015625 26.81507812 13.0653125 26.81765625 12.390625 26.8203125 C5.23985527 27.12331122 0.16494554 29.0116877 -6.09375 32.4375 C-8.625 33.8125 -8.625 33.8125 -11.625 34.8125 C-11.72296875 34.05066406 -11.8209375 33.28882813 -11.921875 32.50390625 C-13.66540034 20.46456314 -17.81644226 11.33353805 -26.625 2.8125 C-25.625 -0.1875 -25.625 -0.1875 -23.51171875 -1.34765625 C-15.98865178 -3.53636992 -7.10245142 -3.39636023 0 0 Z " fill="#F9F9F9" transform="translate(113.625,21.1875)"/>
<path d="M0 0 C0.66 0.33 1.32 0.66 2 1 C0.62434544 4.25154714 -1.31189926 6.64001486 -3.68359375 9.2421875 C-9.00974536 16.35425938 -8.81261475 23.44045801 -8 32 C-6.21806782 38.78283864 -2.34054712 44.91031854 3.66015625 48.6640625 C4.43230469 49.10492188 5.20445313 49.54578125 6 50 C6.29132812 49.154375 6.58265625 48.30875 6.8828125 47.4375 C10.76146343 36.70412636 15.78573387 29.77682 24 22 C24.99 22.33 25.98 22.66 27 23 C25.71937515 24.7074998 24.38232443 26.37373596 23 28 C22.34 28 21.68 28 21 28 C20.73058594 28.5775 20.46117187 29.155 20.18359375 29.75 C18.98578962 32.02701378 17.59700367 33.93837675 16.0625 36 C12.45790111 41.27910694 11.19808947 46.78885197 10 53 C23.87670666 56.4132222 37.60163914 54.49739738 49.8515625 47.33203125 C50.56054688 46.89246094 51.26953125 46.45289063 52 46 C51.649375 45.401875 51.29875 44.80375 50.9375 44.1875 C50 42 50 42 51 39 C51.4125 39.515625 51.825 40.03125 52.25 40.5625 C53.86824762 42.2289138 53.86824762 42.2289138 55.89453125 41.859375 C61.24289757 39.67636834 64.23520401 32.63092746 66.5625 27.66796875 C67.76183058 24.79570831 68.91265154 21.91629864 70 19 C70.99 19 71.98 19 73 19 C72.29173478 27.9713595 66.8774743 36.39861391 61 43 C60.01 43.495 60.01 43.495 59 44 C59 44.66 59 45.32 59 46 C70.13096174 51.84688159 79.32997017 55.11496115 92 56 C92 56.66 92 57.32 92 58 C81.47836132 58.51117273 73.57038908 57.78519454 64 53 C64 56.96 64 60.92 64 65 C63.01 65.495 63.01 65.495 62 66 C62 61.05 62 56.1 62 51 C55.73430251 48.49372101 55.26569749 48.49372101 49 51 C49 56.28 49 61.56 49 67 C48.34 67 47.68 67 47 67 C45.89771304 62.59085217 45.92345464 58.51617599 46 54 C45.34257813 54.28875 44.68515625 54.5775 44.0078125 54.875 C37.44958158 57.43430963 31.60014135 58.38641828 24.625 58.375 C23.48442139 58.37693359 23.48442139 58.37693359 22.32080078 58.37890625 C17.85679875 58.29247453 14.20134852 57.66720179 10 56 C11.28816402 65.03637449 13.51432522 73.68094716 21 79.5 C26.59937799 83.19475686 31.02995539 84.24457237 37.6953125 84.55859375 C40.38881355 85.07446768 41.29311018 85.90822326 43 88 C34.96305718 88.48955997 29.02893182 88.04058356 22 84 C20.948125 83.4225 19.89625 82.845 18.8125 82.25 C12.53274069 77.22619255 8.55871992 70.91350113 7 63 C6.7912361 59.94740785 6.85401825 57.0656168 7 54 C6.319375 53.79375 5.63875 53.5875 4.9375 53.375 C-2.98336322 49.6673619 -7.9307777 43.2167717 -11.109375 35.203125 C-13.23824962 27.54664612 -13.33008664 18.77620557 -9.9375 11.5 C-7.30978191 6.9845534 -3.92553614 3.41646085 0 0 Z " fill="#222222" transform="translate(28,51)"/>
<path d="M0 0 C-2.45826199 10.1349398 -7.06639877 18.25068097 -14 26 C-18.7682617 25.28163743 -20.41407622 22.59926619 -23.18359375 18.890625 C-26.43201953 13.7210872 -31 6.13223332 -31 0 C-20.3056574 -4.71809232 -10.85951424 -3.04066399 0 0 Z " fill="#F6F6F6" transform="translate(99,68)"/>
<path d="M0 0 C0.76441406 0.38285156 1.52882812 0.76570313 2.31640625 1.16015625 C6.0472365 2.52744026 8.36487919 0.97050946 11.875 -0.625 C19.19169532 -3.37727645 27.43197932 -3.11599507 34.75 -0.5 C42.64175713 3.1512188 48.76148993 9.02608702 52.4375 16.9375 C53.25 20.4375 53.25 20.4375 53.4375 22.9375 C52.7775 22.9375 52.1175 22.9375 51.4375 22.9375 C51.4375 24.9175 51.4375 26.8975 51.4375 28.9375 C51.1075 28.9375 50.7775 28.9375 50.4375 28.9375 C50.43363281 28.02871094 50.43363281 28.02871094 50.4296875 27.1015625 C50.09640225 19.88038205 48.18965346 14.45950232 43.4375 8.9375 C36.86311322 3.90462316 31.33494306 1.79063086 23.0625 1.75 C21.75539062 1.73582031 20.44828125 1.72164062 19.1015625 1.70703125 C15.69951037 1.9210196 13.47066253 2.45605189 10.4375 3.9375 C11.74206066 6.79510908 13.17004963 8.90073951 15.3125 11.1875 C19.79069937 16.28827831 22.78930795 22.3447318 24.4375 28.9375 C24.0625 31.3125 24.0625 31.3125 23.4375 32.9375 C22.7775 32.9375 22.1175 32.9375 21.4375 32.9375 C21.27894531 32.32003906 21.12039062 31.70257813 20.95703125 31.06640625 C18.44450239 21.94634292 14.92347164 13.98998771 7.4375 7.9375 C3.91148585 8.18935815 2.28162293 9.73052486 0 12.3125 C-4.77560397 18.01043092 -7.45316365 24.55110481 -9.75 31.5625 C-10.5625 33.9375 -10.5625 33.9375 -12.5625 34.9375 C-12.35622191 22.9733705 -5.98277257 12.17861784 2.4375 3.9375 C-5.81720485 1.28154606 -15.91404404 -0.21544078 -24.0625 3.5 C-30.01130716 7.16778307 -35.2160936 12.28934853 -37.5625 18.9375 C-38.06786091 22.26487626 -38.3699817 25.57838759 -38.5625 28.9375 C-38.8925 28.9375 -39.2225 28.9375 -39.5625 28.9375 C-39.706875 28.03 -39.85125 27.1225 -40 26.1875 C-40.4548773 23.12223198 -40.4548773 23.12223198 -41.1875 20.96875 C-41.90550799 17.07954004 -39.65379858 14.100231 -37.5625 10.9375 C-28.1837965 -0.49085393 -14.29616804 -6.16947728 0 0 Z " fill="#171717" transform="translate(77.5625,18.0625)"/>
<path d="M0 0 C9.11639387 3.98039732 16.55522241 8.70072558 20.33984375 18.28515625 C22.61814889 27.65451763 21.99912869 37.66321775 17 46 C13.95973437 50.32711073 11.02212705 53.69141285 6.1875 55.9375 C2.59691727 58.26081824 2.43729911 58.78876178 1.5625 62.75 C1.34606315 64.16253523 1.1488063 65.57874795 1 67 C0.67 67 0.34 67 0 67 C0 64.36 0 61.72 0 59 C-0.66 58.67 -1.32 58.34 -2 58 C-2.103125 56.700625 -2.20625 55.40125 -2.3125 54.0625 C-3.30806918 43.74775044 -9.60764666 35.87746306 -17 29 C-19.11005774 27.54955695 -21.18397984 26.28426413 -23.46875 25.1328125 C-25.47748351 23.64675965 -25.63628495 22.41466381 -26 20 C-25.01 20.28875 -24.02 20.5775 -23 20.875 C-20.25866591 21.30666201 -19.20848528 21.1178395 -16.75390625 19.73046875 C-14.76699421 18.21814889 -12.85929257 16.66611932 -11 15 C-10.34 15.33 -9.68 15.66 -9 16 C-11.10148204 19.98175544 -13.36905358 22.35039045 -17 25 C-16.49210937 25.4125 -15.98421875 25.825 -15.4609375 26.25 C-7.93641747 32.56270594 -2.0417253 39.50771931 1 49 C1.25 52.5625 1.25 52.5625 1 55 C8.75407268 50.38810056 14.17158343 45.76932648 17 37 C18.05547621 25.40434 18.05547621 25.40434 14.40234375 14.67578125 C10.47178336 9.97881633 6.01849114 5.69270063 0 4 C0 2.68 0 1.36 0 0 Z " fill="#1C1C1C" transform="translate(130,47)"/>
<path d="M0 0 C0.99 0 1.98 0 3 0 C2.29173478 8.9713595 -3.1225257 17.39861391 -9 24 C-9.66 24.33 -10.32 24.66 -11 25 C-11 25.66 -11 26.32 -11 27 C0.13096174 32.84688159 9.32997017 36.11496115 22 37 C22 37.66 22 38.32 22 39 C11.47836132 39.51117273 3.57038908 38.78519454 -6 34 C-6 37.96 -6 41.92 -6 46 C-6.99 46.495 -6.99 46.495 -8 47 C-8 42.05 -8 37.1 -8 32 C-14.26569749 29.49372101 -14.73430251 29.49372101 -21 32 C-21 37.28 -21 42.56 -21 48 C-21.66 48 -22.32 48 -23 48 C-23 43.38 -23 38.76 -23 34 C-23.99 33.67 -24.98 33.34 -26 33 C-23.63379989 30.38472619 -21.057952 28.73559438 -18 27 C-18.350625 26.401875 -18.70125 25.80375 -19.0625 25.1875 C-20 23 -20 23 -19 20 C-18.5875 20.515625 -18.175 21.03125 -17.75 21.5625 C-16.13175238 23.2289138 -16.13175238 23.2289138 -14.10546875 22.859375 C-8.75710243 20.67636834 -5.76479599 13.63092746 -3.4375 8.66796875 C-2.23816942 5.79570831 -1.08734846 2.91629864 0 0 Z " fill="#0F0F0F" transform="translate(98,70)"/>
<path d="M0 0 C-0.55378758 6.09166337 -3.89480562 10.16848089 -8.34375 14.0390625 C-15.01023087 19.07908268 -15.01023087 19.07908268 -19.12890625 18.75 C-21.10472426 18.23386795 -23.06267603 17.64577466 -25 17 C-25.625 13.9375 -25.625 13.9375 -25 10 C-18.43208086 3.28156605 -9.32384522 -0.28054048 0 0 Z " fill="#F5F5F5" transform="translate(127,50)"/>
<path d="M0 0 C2.95703125 1.5234375 2.95703125 1.5234375 6 4 C6.61897994 6.87587601 6.81556296 8.7702631 6.6875 11.625 C6.66623047 12.68654297 6.66623047 12.68654297 6.64453125 13.76953125 C6.35066667 19.97459488 4.47688364 24.8343443 1 30 C0.34 30 -0.32 30 -1 30 C-1.65239158 28.60721983 -2.29660552 27.21060788 -2.9375 25.8125 C-3.29714844 25.03519531 -3.65679687 24.25789063 -4.02734375 23.45703125 C-6.44227047 17.3566742 -7.01533577 10.46704856 -6 4 C-4.14484005 1.69051516 -2.79904766 1.16626986 0 0 Z " fill="#F5F5F5" transform="translate(83,98)"/>
<path d="M0 0 C8.85070815 -0.7696268 16.7083921 2.93572998 23.55078125 8.41796875 C25 10 25 10 25.8125 13.1875 C25 16 25 16 22.875 17.9375 C19.32303778 19.25018169 17.64448452 18.96098348 14 18 C8.40422276 14.05638844 3.19616406 9.10176774 0 3 C0 2.01 0 1.02 0 0 Z " fill="#F5F5F5" transform="translate(40,50)"/>
<path d="M0 0 C9.11639387 3.98039732 16.55522241 8.70072558 20.33984375 18.28515625 C22.60843617 27.61457476 22.03743659 37.71073114 17 46 C14.82776364 48.84204801 12.52147832 51.46435607 10 54 C8.68 53.34 7.36 52.68 6 52 C7.3303125 51.071875 7.3303125 51.071875 8.6875 50.125 C14.10553383 45.47913251 16.64033365 40.14317111 17.44921875 33.07421875 C17.7733867 25.90221276 17.80935881 18.74711679 13 13 C9.20061513 9.02611312 5.40209773 5.51933999 0 4 C0 2.68 0 1.36 0 0 Z " fill="#1D1D1D" transform="translate(130,47)"/>
<path d="M0 0 C2.1703822 2.1703822 1.88350242 6.04323174 2.1171875 8.94921875 C1.85729559 15.71507137 -1.82165524 21.02282291 -6.3125 25.875 C-12.8419606 31.91974081 -19.79671244 34.13763773 -28.5625 34.1875 C-29.69816406 34.20167969 -30.83382812 34.21585938 -32.00390625 34.23046875 C-35 34 -35 34 -38 32 C-35.69 32 -33.38 32 -31 32 C-31 31.67 -31 31.34 -31 31 C-30.154375 30.91363281 -29.30875 30.82726562 -28.4375 30.73828125 C-18.3173199 29.48475894 -11.68436916 26.94716489 -5.25 18.88671875 C-1.80927184 13.69336969 -0.63662413 8.11159162 0 2 C-2.97 2.66 -5.94 3.32 -9 4 C-9 3.34 -9 2.68 -9 2 C-12.63 2 -16.26 2 -20 2 C-20 1.67 -20 1.34 -20 1 C-19.02417969 0.93941406 -18.04835938 0.87882812 -17.04296875 0.81640625 C-15.77066406 0.73261719 -14.49835938 0.64882812 -13.1875 0.5625 C-11.92292969 0.48128906 -10.65835938 0.40007812 -9.35546875 0.31640625 C-1.323049 -0.44101633 -1.323049 -0.44101633 0 0 Z " fill="#1D1D1D" transform="translate(129,105)"/>
<path d="M0 0 C0.33 0 0.66 0 1 0 C1.33 2.64 1.66 5.28 2 8 C2.98226562 8.00386719 2.98226562 8.00386719 3.984375 8.0078125 C13.26176178 8.40092211 20.35150555 11.9010037 28 17 C28.33 15.68 28.66 14.36 29 13 C29.33 13 29.66 13 30 13 C30.495 19.93 30.495 19.93 31 27 C29.02 27.99 29.02 27.99 27 29 C27.2784375 27.205625 27.2784375 27.205625 27.5625 25.375 C27.5677267 22.42191643 27.36950754 21.37788639 25.27734375 19.23828125 C18.33543061 14.51111227 11.31318717 11.865957 3 11 C3 12.65 3 14.3 3 16 C2.34 16 1.68 16 1 16 C0.67 15.01 0.34 14.02 0 13 C-2.64 13.33 -5.28 13.66 -8 14 C-7.67 13.01 -7.34 12.02 -7 11 C-5.02 10.67 -3.04 10.34 -1 10 C-1.020625 8.72125 -1.04125 7.4425 -1.0625 6.125 C-1.125 2.25 -1.125 2.25 0 0 Z " fill="#0C0C0C" transform="translate(37,39)"/>
<path d="M0 0 C1.76923828 0.01353516 1.76923828 0.01353516 3.57421875 0.02734375 C4.47785156 0.03894531 5.38148437 0.05054688 6.3125 0.0625 C4.56798154 2.24749488 3.70569945 3.00215437 0.89453125 3.43359375 C-0.01941406 3.45550781 -0.93335937 3.47742188 -1.875 3.5 C-10.23259734 4.08360034 -15.54806381 7.1794913 -21.21484375 13.28515625 C-25.76731998 18.77952411 -26.29286443 24.17678977 -26.6875 31.0625 C-27.0175 31.0625 -27.3475 31.0625 -27.6875 31.0625 C-27.831875 30.155 -27.97625 29.2475 -28.125 28.3125 C-28.5798773 25.24723198 -28.5798773 25.24723198 -29.3125 23.09375 C-30.03050799 19.20454004 -27.77879858 16.225231 -25.6875 13.0625 C-18.76596625 4.62831318 -11.01190028 -0.10902872 0 0 Z " fill="#2D2D2D" transform="translate(65.6875,15.9375)"/>
<path d="M0 0 C4.14226255 3.8767329 7.33636425 8.02574208 9.140625 13.4609375 C9.140625 14.7809375 9.140625 16.1009375 9.140625 17.4609375 C8.480625 17.4609375 7.820625 17.4609375 7.140625 17.4609375 C7.140625 19.4409375 7.140625 21.4209375 7.140625 23.4609375 C6.810625 23.4609375 6.480625 23.4609375 6.140625 23.4609375 C6.13675781 22.55214844 6.13675781 22.55214844 6.1328125 21.625 C5.79779522 14.36629224 3.85652094 9.04301841 -0.859375 3.4609375 C-7.62769504 -2.45217965 -15.11545187 -3.7441604 -23.859375 -4.5390625 C-23.859375 -4.8690625 -23.859375 -5.1990625 -23.859375 -5.5390625 C-14.39004763 -6.90685423 -7.61126683 -6.30008221 0 0 Z " fill="#1E1E1E" transform="translate(121.859375,23.5390625)"/>
<path d="M0 0 C0 2.97 0 5.94 0 9 C-0.33 9 -0.66 9 -1 9 C-1 6.36 -1 3.72 -1 1 C-1.65742187 1.28875 -2.31484375 1.5775 -2.9921875 1.875 C-12.86711251 5.72862927 -24.64750687 6.86017851 -35 4 C-35 3.01 -35 2.02 -35 1 C-34.38068604 1.01571045 -33.76137207 1.0314209 -33.12329102 1.04760742 C-30.26978995 1.1106403 -27.41643609 1.14920437 -24.5625 1.1875 C-23.10166992 1.22520508 -23.10166992 1.22520508 -21.61132812 1.26367188 C-15.81822626 1.32179664 -11.285239 0.79074318 -5.95288086 -1.5456543 C-4 -2 -4 -2 0 0 Z " fill="#121212" transform="translate(75,104)"/>
<path d="M0 0 C0.99 0.33 1.98 0.66 3 1 C1.71937515 2.7074998 0.38232443 4.37373596 -1 6 C-1.66 6 -2.32 6 -3 6 C-3.26941406 6.5775 -3.53882813 7.155 -3.81640625 7.75 C-5.01421038 10.02701378 -6.40299633 11.93837675 -7.9375 14 C-11.54209889 19.27910694 -12.80191053 24.78885197 -14 31 C-14.99 30.34 -15.98 29.68 -17 29 C-16.48691239 17.71207266 -9.93673415 9.23268867 -1.9765625 1.765625 C-1.32429688 1.18296875 -0.67203125 0.6003125 0 0 Z " fill="#222222" transform="translate(52,73)"/>
<path d="M0 0 C7.50555335 7.05067133 13.79251332 14.69298501 16 25 C15.59375 27.32421875 15.59375 27.32421875 15 29 C14.34 29 13.68 29 13 29 C12.84144531 28.38253906 12.68289062 27.76507813 12.51953125 27.12890625 C10.06943078 18.23544764 6.52751004 11.12411122 0.0390625 4.5078125 C-0.30382812 4.01023437 -0.64671875 3.51265625 -1 3 C-0.67 2.01 -0.34 1.02 0 0 Z " fill="#252525" transform="translate(86,22)"/>
<path d="M0 0 C0.66 0.33 1.32 0.66 2 1 C0.83619133 3.75082049 -0.47922441 5.56523905 -2.4375 7.875 C-8.21729401 14.78006364 -8.62188476 21.21208022 -9 30 C-9.33 30 -9.66 30 -10 30 C-10.33 28.02 -10.66 26.04 -11 24 C-11.33 24 -11.66 24 -12 24 C-12.72616047 17.31932365 -10.60920812 12.59248584 -7 7 C-4.82190125 4.47088533 -2.51655788 2.19020311 0 0 Z " fill="#212121" transform="translate(28,51)"/>
<path d="M0 0 C2 2 2 2 2.125 5.125 C2.08375 6.07375 2.0425 7.0225 2 8 C2.66 8 3.32 8 4 8 C3.34 11.3 2.68 14.6 2 18 C2.66 18 3.32 18 4 18 C4 18.66 4 19.32 4 20 C4.66 20.33 5.32 20.66 6 21 C5.21625 20.979375 4.4325 20.95875 3.625 20.9375 C1.01885039 20.81315937 1.01885039 20.81315937 -1 22 C-1 21.01 -1 20.02 -1 19 C-3.31 18.67 -5.62 18.34 -8 18 C-8 17.01 -8 16.02 -8 15 C-5.36 15.33 -2.72 15.66 0 16 C0 10.72 0 5.44 0 0 Z " fill="#0F0F0F" transform="translate(100,49)"/>
<path d="M0 0 C0 3.78409145 -0.67124513 5.01628283 -3 8 C-9.03455302 11.85647656 -14.43966316 13.14698329 -21.5625 13.1875 C-22.69816406 13.20167969 -23.83382812 13.21585938 -25.00390625 13.23046875 C-28 13 -28 13 -31 11 C-28.69 11 -26.38 11 -24 11 C-24 10.67 -24 10.34 -24 10 C-23.154375 9.91363281 -22.30875 9.82726562 -21.4375 9.73828125 C-12.38914285 8.61751883 -6.34484204 6.59479036 0 0 Z " fill="#2F2F2F" transform="translate(122,126)"/>
<path d="M0 0 C0.99 0 1.98 0 3 0 C2.27031138 9.24272247 -3.31599165 17.00730244 -9 24 C-9.66 22.68 -10.32 21.36 -11 20 C-10.43732422 19.34257813 -10.43732422 19.34257813 -9.86328125 18.671875 C-5.235812 12.93707683 -2.5861891 6.86598876 0 0 Z " fill="#282828" transform="translate(98,70)"/>
<path d="M0 0 C0.33 0 0.66 0 1 0 C2.28748046 8.77827587 3.07686631 15.48931857 -2.296875 23.03515625 C-4.32514218 25.37510669 -6.39639108 27.31531187 -9 29 C-9.99 28.34 -10.98 27.68 -12 27 C-11.113125 26.38125 -10.22625 25.7625 -9.3125 25.125 C-3.19509379 19.9498483 -0.85183534 13.19016716 -0.1875 5.375 C-0.10404901 3.58418688 -0.03387766 1.79243633 0 0 Z " fill="#252525" transform="translate(148,72)"/>
<path d="M0 0 C0.66 0.33 1.32 0.66 2 1 C-0.10148204 4.98175544 -2.36905358 7.35039045 -6 10 C-5.34 10.66 -4.68 11.32 -4 12 C-5.625 12.75 -5.625 12.75 -8 13 C-13.59670782 10.03703704 -13.59670782 10.03703704 -14.875 6.75 C-14.91625 6.1725 -14.9575 5.595 -15 5 C-13.515 5.433125 -13.515 5.433125 -12 5.875 C-9.25866591 6.30666201 -8.20848528 6.1178395 -5.75390625 4.73046875 C-3.76699421 3.21814889 -1.85929257 1.66611932 0 0 Z " fill="#212121" transform="translate(119,62)"/>
<path d="M0 0 C0.515625 0.680625 1.03125 1.36125 1.5625 2.0625 C5.88180932 7.26782148 10.60219475 11.9107536 16 16 C14.31640625 16.76171875 14.31640625 16.76171875 12 17 C9.52734375 15.26953125 9.52734375 15.26953125 6.9375 12.8125 C6.08027344 12.01457031 5.22304688 11.21664062 4.33984375 10.39453125 C2.33079979 8.33853134 0.54294728 6.42242724 -1 4 C-0.6875 1.75 -0.6875 1.75 0 0 Z " fill="#212121" transform="translate(40,53)"/>
<path d="M0 0 C2.21484375 0.20703125 2.21484375 0.20703125 4.9375 0.8125 C10.61290548 1.97610827 16.22710492 2.57568663 22 3 C22 3.66 22 4.32 22 5 C13.38261147 5.30654742 6.06524596 5.39589303 -2 2 C-1.34 1.34 -0.68 0.68 0 0 Z " fill="#101010" transform="translate(98,104)"/>
<path d="M0 0 C0.33 0.66 0.66 1.32 1 2 C0.02160156 2.25523438 0.02160156 2.25523438 -0.9765625 2.515625 C-6.36722504 4.01038098 -10.54753872 5.60206902 -15 9 C-16.32 8.34 -17.64 7.68 -19 7 C-17.06453884 5.85072616 -15.12655872 4.70569358 -13.1875 3.5625 C-12.10855469 2.92441406 -11.02960938 2.28632812 -9.91796875 1.62890625 C-6.19660184 -0.44848331 -4.05194661 -1.48571376 0 0 Z " fill="#161616" transform="translate(121,49)"/>
<path d="M0 0 C2.4254492 2.4254492 3.5039803 4.85195937 5 7.9375 C6.54610132 11.11860346 8.0363471 14.05452065 10 17 C9.34 17.66 8.68 18.32 8 19 C-1.24097874 7.21700445 -1.24097874 7.21700445 -0.6875 2.125 C-0.460625 1.42375 -0.23375 0.7225 0 0 Z " fill="#191919" transform="translate(69,73)"/>
<path d="M0 0 C0.33 0 0.66 0 1 0 C1.33 4.62 1.66 9.24 2 14 C0.02 14.99 0.02 14.99 -2 16 C-1.896875 14.783125 -1.79375 13.56625 -1.6875 12.3125 C-1.65408479 8.54994773 -1.90669702 8.11196358 -4.5 5 C-5.325 4.34 -6.15 3.68 -7 3 C-3 3 -3 3 -1 4 C-0.67 2.68 -0.34 1.36 0 0 Z " fill="#0B0B0B" transform="translate(66,52)"/>
<path d="M0 0 C0.33 0 0.66 0 1 0 C2.88610478 19.00455581 2.88610478 19.00455581 -2 27 C-2.99 26.34 -3.98 25.68 -5 25 C-4.72285156 24.5359375 -4.44570312 24.071875 -4.16015625 23.59375 C-0.18626091 16.01365071 -0.20549383 8.37387355 0 0 Z " fill="#343434" transform="translate(89,102)"/>
<path d="M0 0 C-1.423125 0.7115625 -1.423125 0.7115625 -2.875 1.4375 C-5.95225457 3.43336086 -6.6153103 5.2029194 -7.375 8.75 C-7.60744655 10.16291041 -7.82388919 11.57896791 -8 13 C-8.33 13 -8.66 13 -9 13 C-9 10.36 -9 7.72 -9 5 C-9.66 4.67 -10.32 4.34 -11 4 C-8.57489301 0.24108417 -8.57489301 0.24108417 -6.0625 -0.8125 C-3.79631016 -1.01851726 -2.15577438 -0.69292748 0 0 Z " fill="#0F0F0F" transform="translate(139,101)"/>
<path d="M0 0 C1.65 0 3.3 0 5 0 C5 0.99 5 1.98 5 3 C5.99 3 6.98 3 8 3 C7.67 3.99 7.34 4.98 7 6 C6.34 5.67 5.68 5.34 5 5 C5 7.64 5 10.28 5 13 C4.34 13 3.68 13 3 13 C3 10.03 3 7.06 3 4 C1.68 3.34 0.36 2.68 -1 2 C-0.67 1.34 -0.34 0.68 0 0 Z " fill="#101010" transform="translate(32,101)"/>
<path d="M0 0 C-0.99 1.485 -0.99 1.485 -2 3 C-2.80050781 2.58427734 -2.80050781 2.58427734 -3.6171875 2.16015625 C-9.43425414 -0.66786404 -14.5548024 -1.73088945 -21 -2 C-21 -2.33 -21 -2.66 -21 -3 C-12.91915231 -4.16723356 -7.34930871 -4.02462144 0 0 Z " fill="#2A2A2A" transform="translate(119,21)"/>
<path d="M0 0 C0.66 1.32 1.32 2.64 2 4 C0.73965413 5.50882261 -0.53363649 7.00684044 -1.8125 8.5 C-2.52019531 9.3353125 -3.22789063 10.170625 -3.95703125 11.03125 C-6 13 -6 13 -9 13 C-7.47987323 7.59510481 -3.72614782 4.01507372 0 0 Z " fill="#222222" transform="translate(80,22)"/>
<path d="M0 0 C1.43931117 0.45261358 2.87638999 0.91232979 4.3125 1.375 C5.11300781 1.63023438 5.91351563 1.88546875 6.73828125 2.1484375 C9 3 9 3 12 5 C11.67 5.99 11.34 6.98 11 8 C7.04 6.35 3.08 4.7 -1 3 C-0.67 2.01 -0.34 1.02 0 0 Z " fill="#202020" transform="translate(48,48)"/>
<path d="M0 0 C0.99 0.33 1.98 0.66 3 1 C1.63589551 6.59282842 -1.15383526 9.91193811 -5 14 C-5.66 13.67 -6.32 13.34 -7 13 C-6.66226563 12.48050781 -6.32453125 11.96101562 -5.9765625 11.42578125 C-3.60108299 7.71151993 -1.44237185 4.19599085 0 0 Z " fill="#1A1A1A" transform="translate(127,117)"/>
<path d="M0 0 C1.485 0.99 1.485 0.99 3 2 C3.22137393 4.62697064 3.28162025 7.00893964 3.1875 9.625 C3.16719727 10.68460938 3.16719727 10.68460938 3.14648438 11.765625 C3.1111104 13.51074128 3.05730221 15.25546608 3 17 C2.34 17 1.68 17 1 17 C0.67 11.39 0.34 5.78 0 0 Z " fill="#161616" transform="translate(148,66)"/>
<path d="M0 0 C0.66 0 1.32 0 2 0 C2.05399736 1.45792884 2.09279177 2.91642712 2.125 4.375 C2.14820313 5.18710937 2.17140625 5.99921875 2.1953125 6.8359375 C2 9 2 9 0 11 C-0.33 10.67 -0.66 10.34 -1 10 C-2.34747084 9.76924918 -3.70377565 9.58846937 -5.0625 9.4375 C-6.361875 9.293125 -7.66125 9.14875 -9 9 C-8.67 8.34 -8.34 7.68 -8 7 C-5.67843403 6.59270772 -3.3431213 6.25561323 -1 6 C-0.67 4.02 -0.34 2.04 0 0 Z " fill="#040404" transform="translate(129,41)"/>
<path d="M0 0 C0.99 0 1.98 0 3 0 C2.67 5.28 2.34 10.56 2 16 C1.67 16 1.34 16 1 16 C0.67 14.02 0.34 12.04 0 10 C-0.33 10 -0.66 10 -1 10 C-1.125 3.375 -1.125 3.375 0 0 Z " fill="#323232" transform="translate(17,65)"/>
<path d="M0 0 C0 3.65351863 -0.88942301 5.06026776 -3 8 C-6.00658118 10.03671629 -7.19096596 10 -11 10 C-11 9.34 -11 8.68 -11 8 C-9.35546875 6.81640625 -9.35546875 6.81640625 -7.1875 5.5625 C-4.40578131 3.94616437 -2.18823319 2.36770973 0 0 Z " fill="#272727" transform="translate(122,126)"/>
<path d="M0 0 C5.61 0.33 11.22 0.66 17 1 C17 1.33 17 1.66 17 2 C16.09507813 2.09087891 16.09507813 2.09087891 15.171875 2.18359375 C13.97304688 2.30927734 13.97304688 2.30927734 12.75 2.4375 C11.96109375 2.51871094 11.1721875 2.59992188 10.359375 2.68359375 C8.01579491 2.94921706 8.01579491 2.94921706 5.84375 3.5625 C3.59950588 4.0950325 2.17017319 3.69755567 0 3 C0 2.01 0 1.02 0 0 Z " fill="#343434" transform="translate(40,105)"/>
<path d="M0 0 C0.99 0.33 1.98 0.66 3 1 C1.71937515 2.7074998 0.38232443 4.37373596 -1 6 C-1.66 6 -2.32 6 -3 6 C-3.66 7.32 -4.32 8.64 -5 10 C-5.68359375 8.203125 -5.68359375 8.203125 -6 6 C-4.78515625 4.296875 -4.78515625 4.296875 -3.0625 2.75 C-2.21365234 1.96882813 -2.21365234 1.96882813 -1.34765625 1.171875 C-0.90292969 0.78515625 -0.45820312 0.3984375 0 0 Z " fill="#212121" transform="translate(52,73)"/>
<path d="M0 0 C0 2.97 0 5.94 0 9 C-0.33 9 -0.66 9 -1 9 C-1 6.36 -1 3.72 -1 1 C-3.31 1.66 -5.62 2.32 -8 3 C-8 2.34 -8 1.68 -8 1 C-8.66 0.67 -9.32 0.34 -10 0 C-4.5 -2.25 -4.5 -2.25 0 0 Z " fill="#434343" transform="translate(75,104)"/>
<path d="M0 0 C3.64566574 2.43044383 3.9977335 3.82388959 5 8 C4.625 10.375 4.625 10.375 4 12 C3.34 12 2.68 12 2 12 C0.86235649 7.73383684 0 4.43513689 0 0 Z " fill="#1B1B1B" transform="translate(97,39)"/>
<path d="M0 0 C0.99 0.66 1.98 1.32 3 2 C2.34 5.3 1.68 8.6 1 12 C0.01 11.34 -0.98 10.68 -2 10 C-1.54177532 6.53058454 -1.10868317 3.32604951 0 0 Z " fill="#383838" transform="translate(37,92)"/>
<path d="M0 0 C2.6855594 2.6855594 3.06049974 5.37621328 4 9 C3.34 9.66 2.68 10.32 2 11 C-1.07692308 5.70769231 -1.07692308 5.70769231 -0.6875 2.125 C-0.460625 1.42375 -0.23375 0.7225 0 0 Z " fill="#1F1F1F" transform="translate(69,73)"/>
<path d="M0 0 C0.33 0.66 0.66 1.32 1 2 C-1.97 2.66 -4.94 3.32 -8 4 C-8.33 3.01 -8.66 2.02 -9 1 C-5.63579264 -0.58865348 -3.5299383 -1.5128307 0 0 Z " fill="#242424" transform="translate(121,49)"/>
<path d="M0 0 C0.66 0.33 1.32 0.66 2 1 C1.979375 2.2375 1.95875 3.475 1.9375 4.75 C1.93233319 7.6640825 2.06984442 10.20953327 3 13 C2.01 13.33 1.02 13.66 0 14 C-1.13016601 8.97703996 -0.77916092 5.02125926 0 0 Z " fill="#373737" transform="translate(37,106)"/>
<path d="M0 0 C0.33 0 0.66 0 1 0 C1.33 4.95 1.66 9.9 2 15 C1.01 15.33 0.02 15.66 -1 16 C-0.67 10.72 -0.34 5.44 0 0 Z " fill="#3F3F3F" transform="translate(148,72)"/>
<path d="M0 0 C0.33 0 0.66 0 1 0 C1.33 3.63 1.66 7.26 2 11 C1.01 11.495 1.01 11.495 0 12 C-1.29449495 8.11651516 -1.13203312 5.09302664 -1 1 C-0.67 0.67 -0.34 0.34 0 0 Z " fill="#0C0C0C" transform="translate(17,74)"/>
<path d="M0 0 C3.87132028 0.57352893 6.08172796 2.48704352 9 5 C7.3125 5.75 7.3125 5.75 5 6 C2.25 4.1875 2.25 4.1875 0 2 C0 1.34 0 0.68 0 0 Z " fill="#1B1B1B" transform="translate(47,64)"/>
<path d="M0 0 C2 2 2 2 2.125 5.125 C2.08375 6.07375 2.0425 7.0225 2 8 C2.66 8 3.32 8 4 8 C4 8.66 4 9.32 4 10 C3.01 10 2.02 10 1 10 C0.67 10.66 0.34 11.32 0 12 C0 8.04 0 4.08 0 0 Z " fill="#060606" transform="translate(100,49)"/>
<path d="M0 0 C4.455 1.98 4.455 1.98 9 4 C8.01 5.485 8.01 5.485 7 7 C4.69 6.01 2.38 5.02 0 4 C0 2.68 0 1.36 0 0 Z " fill="#171717" transform="translate(130,47)"/>
<path d="M0 0 C1.99097846 2.98646769 2.94124926 5.59687262 4 9 C3.01 9.33 2.02 9.66 1 10 C-0.80411967 7.24075815 -1.0127245 6.11027897 -0.625 2.75 C-0.41875 1.8425 -0.2125 0.935 0 0 Z " fill="#252525" transform="translate(19,83)"/>
<path d="M0 0 C4.95 0 9.9 0 15 0 C15 0.66 15 1.32 15 2 C13.68 2.33 12.36 2.66 11 3 C11 2.34 11 1.68 11 1 C7.37 1 3.74 1 0 1 C0 0.67 0 0.34 0 0 Z " fill="#363636" transform="translate(109,106)"/>
<path d="M0 0 C0.99 0 1.98 0 3 0 C2.125 5.75 2.125 5.75 1 8 C0.34 8 -0.32 8 -1 8 C-0.67 5.36 -0.34 2.72 0 0 Z " fill="#1F1F1F" transform="translate(98,70)"/>
<path d="M0 0 C0 0.99 0 1.98 0 3 C-5.75 2.25 -5.75 2.25 -8 0 C-5.13822943 -1.43088528 -3.06624227 -0.59991697 0 0 Z " fill="#222222" transform="translate(104,105)"/>
<path d="M0 0 C2.15377564 2.62198774 3.40072174 4.64404172 4 8 C3.01 8.33 2.02 8.66 1 9 C-1.125 2.25 -1.125 2.25 0 0 Z " fill="#292929" transform="translate(146,59)"/>
<path d="M0 0 C0 0.66 0 1.32 0 2 C-1.96147874 3.38938077 -3.96166576 4.7260411 -6 6 C-6.33 5.01 -6.66 4.02 -7 3 C-4.49955934 -0.00052879 -4.2621484 0 0 0 Z " fill="#232323" transform="translate(52,21)"/>
<path d="M0 0 C0.99 0.33 1.98 0.66 3 1 C3 2.32 3 3.64 3 5 C2.34 5 1.68 5 1 5 C1 6.98 1 8.96 1 11 C0.67 11 0.34 11 0 11 C0 7.37 0 3.74 0 0 Z " fill="#3C3C3C" transform="translate(128,36)"/>
<path d="M0 0 C3.16115776 1.36983503 3.9927092 1.9890638 6 5 C3 5 3 5 0 3 C0 2.01 0 1.02 0 0 Z " fill="#171717" transform="translate(118,22)"/>
</svg>
