<svg version="1.1" id="Layer_1" xmlns="http://www.w3.org/2000/svg" xmlns:xlink="http://www.w3.org/1999/xlink" x="0px" y="0px"
	 width="100%" viewBox="0 0 150 133" enable-background="new 0 0 150 133" xml:space="preserve">
<path fill="#3C5FAC" opacity="1.000000" stroke="none" 
	d="
M98.000000,134.000000 
	C65.361763,134.000000 33.223522,134.000000 1.085283,134.000000 
	C1.056856,133.861908 1.003525,133.723816 1.003514,133.585724 
	C0.999923,89.458092 1.000000,45.330456 1.000000,1.101411 
	C50.888020,1.101411 100.776314,1.101411 150.832306,1.101411 
	C150.832306,45.332813 150.832306,89.666359 150.832306,134.000000 
	C133.468918,134.000000 115.984459,134.000000 98.000000,134.000000 
M111.925003,39.301727 
	C109.124397,32.263199 104.492676,27.149364 96.185333,24.814587 
	C94.885078,24.551750 93.585648,24.064672 92.284447,24.059895 
	C74.315483,23.993919 56.346073,23.944538 38.377316,24.019930 
	C34.750843,24.035143 32.858356,25.722322 32.890465,29.890305 
	C33.060925,52.018154 32.956669,74.148033 32.974720,96.277191 
	C32.979759,102.456116 34.494972,104.017128 40.543308,104.023933 
	C62.173298,104.048279 83.803345,104.048309 105.433334,104.023727 
	C111.497574,104.016830 113.016136,102.459648 113.024750,96.295143 
	C113.047523,79.989471 113.076630,63.683472 112.980461,47.378326 
	C112.965988,44.925514 112.292763,42.476585 111.925003,39.301727 
z"/>
<path fill="#F2F5FA" opacity="1.000000" stroke="none" 
	d="
M111.924271,40.025860 
	C112.292763,42.476585 112.965988,44.925514 112.980461,47.378326 
	C113.076630,63.683472 113.047523,79.989471 113.024750,96.295143 
	C113.016136,102.459648 111.497574,104.016830 105.433334,104.023727 
	C83.803345,104.048309 62.173298,104.048279 40.543308,104.023933 
	C34.494972,104.017128 32.979759,102.456116 32.974720,96.277191 
	C32.956669,74.148033 33.060925,52.018154 32.890465,29.890305 
	C32.858356,25.722322 34.750843,24.035143 38.377316,24.019930 
	C56.346073,23.944538 74.315483,23.993919 92.284447,24.059895 
	C93.585648,24.064672 94.885078,24.551750 96.586136,25.245045 
	C96.984917,26.076643 96.982895,26.477781 96.594879,26.884846 
	C95.873146,27.308449 95.159416,27.873289 95.256424,28.122490 
	C98.476624,36.393814 96.809311,44.860577 96.405121,53.289795 
	C95.815659,65.582565 95.276146,77.879211 94.897263,90.179817 
	C94.761497,94.587517 95.808380,98.908150 101.093811,99.509483 
	C106.094215,100.078377 108.297829,96.141525 110.108185,92.290474 
	C110.656502,91.124092 110.920387,89.712341 110.915398,88.414513 
	C110.855339,72.785248 110.720276,57.156265 110.819611,41.272171 
	C111.331047,40.686710 111.627663,40.356285 111.924271,40.025860 
M34.899117,54.499985 
	C34.900833,68.315933 34.992924,82.132805 34.852619,95.947311 
	C34.806828,100.456169 36.619827,102.336861 41.098797,102.137924 
	C45.252018,101.953468 49.434933,101.882477 53.576511,102.169418 
	C56.797592,102.392601 58.711033,101.206276 60.547085,98.608673 
	C69.956573,85.296326 79.317108,71.936089 89.189316,58.969131 
	C94.984077,51.357826 93.831932,43.361649 91.889488,35.281441 
	C90.777229,30.654598 86.796272,30.187077 83.688538,33.928837 
	C82.182823,35.741749 81.015144,37.835419 79.694420,39.801979 
	C79.221794,39.556217 78.749168,39.310452 78.276543,39.064690 
	C80.104309,34.842510 81.932083,30.620329 83.948875,25.961502 
	C68.501389,25.961502 53.252003,25.959051 38.002617,25.963457 
	C34.746464,25.964399 34.924080,28.359535 34.915642,30.528942 
	C34.885853,38.185863 34.900814,45.842957 34.899117,54.499985 
M91.268639,78.899254 
	C91.523048,75.558617 91.777458,72.217979 92.031860,68.877342 
	C91.645119,68.780128 91.258377,68.682915 90.871635,68.585709 
	C83.667313,79.511787 76.462990,90.437874 68.773903,102.099159 
	C76.614288,102.099159 83.248611,102.109253 89.882782,102.082344 
	C90.495590,102.079865 91.107445,101.841805 91.410812,101.778053 
	C91.108940,97.948936 90.630440,94.354630 90.596413,90.756104 
	C90.561928,87.110397 90.966850,83.460518 91.268639,78.899254 
z"/>
<path fill="#D9DFEF" opacity="1.000000" stroke="none" 
	d="
M96.980873,26.878920 
	C96.982895,26.477781 96.984917,26.076643 96.978561,25.374763 
	C104.492676,27.149364 109.124397,32.263199 111.924637,39.663795 
	C111.627663,40.356285 111.331047,40.686710 110.611984,40.982796 
	C107.954643,34.223259 103.147804,29.912659 96.980873,26.878920 
z"/>
<path fill="#3D60AD" opacity="1.000000" stroke="none" 
	d="
M34.898964,53.999985 
	C34.900814,45.842957 34.885853,38.185863 34.915642,30.528942 
	C34.924080,28.359535 34.746464,25.964399 38.002617,25.963457 
	C53.252003,25.959051 68.501389,25.961502 83.948875,25.961502 
	C81.932083,30.620329 80.104309,34.842510 78.276543,39.064690 
	C78.749168,39.310452 79.221794,39.556217 79.694420,39.801979 
	C81.015144,37.835419 82.182823,35.741749 83.688538,33.928837 
	C86.796272,30.187077 90.777229,30.654598 91.889488,35.281441 
	C93.831932,43.361649 94.984077,51.357826 89.189316,58.969131 
	C79.317108,71.936089 69.956573,85.296326 60.547085,98.608673 
	C58.711033,101.206276 56.797592,102.392601 53.576511,102.169418 
	C49.434933,101.882477 45.252018,101.953468 41.098797,102.137924 
	C36.619827,102.336861 34.806828,100.456169 34.852619,95.947311 
	C34.992924,82.132805 34.900833,68.315933 34.898964,53.999985 
z"/>
<path fill="#3F61AD" opacity="1.000000" stroke="none" 
	d="
M96.594879,26.884846 
	C103.147804,29.912659 107.954643,34.223259 110.397156,41.237831 
	C110.720276,57.156265 110.855339,72.785248 110.915398,88.414513 
	C110.920387,89.712341 110.656502,91.124092 110.108185,92.290474 
	C108.297829,96.141525 106.094215,100.078377 101.093811,99.509483 
	C95.808380,98.908150 94.761497,94.587517 94.897263,90.179817 
	C95.276146,77.879211 95.815659,65.582565 96.405121,53.289795 
	C96.809311,44.860577 98.476624,36.393814 95.256424,28.122490 
	C95.159416,27.873289 95.873146,27.308449 96.594879,26.884846 
z"/>
<path fill="#4364AF" opacity="1.000000" stroke="none" 
	d="
M91.223984,79.355865 
	C90.966850,83.460518 90.561928,87.110397 90.596413,90.756104 
	C90.630440,94.354630 91.108940,97.948936 91.410812,101.778053 
	C91.107445,101.841805 90.495590,102.079865 89.882782,102.082344 
	C83.248611,102.109253 76.614288,102.099159 68.773903,102.099159 
	C76.462990,90.437874 83.667313,79.511787 90.871635,68.585709 
	C91.258377,68.682915 91.645119,68.780128 92.031860,68.877342 
	C91.777458,72.217979 91.523048,75.558617 91.223984,79.355865 
z"/>
</svg>