<svg version="1.1" id="Layer_1" xmlns="http://www.w3.org/2000/svg" xmlns:xlink="http://www.w3.org/1999/xlink" x="0px" y="0px"
	 width="100%" viewBox="0 0 113 115" enable-background="new 0 0 113 115" xml:space="preserve">
<path fill="#1E2125" opacity="1.000000" stroke="none" 
	d="
M64.000000,116.000000 
	C42.666668,116.000000 21.833334,116.000000 1.000000,116.000000 
	C1.000000,77.666664 1.000000,39.333332 1.000000,1.000000 
	C38.666668,1.000000 76.333336,1.000000 114.000000,1.000000 
	C114.000000,39.333332 114.000000,77.666664 114.000000,116.000000 
	C97.500000,116.000000 81.000000,116.000000 64.000000,116.000000 
M25.502672,56.839241 
	C24.687654,57.434620 23.205948,57.990028 23.167461,58.631962 
	C22.943203,62.372444 23.057617,66.133224 23.057617,70.593781 
	C28.563545,68.774834 35.435669,73.891357 37.483765,65.223526 
	C41.652958,65.223526 45.618404,65.223526 49.733387,65.223526 
	C50.023792,66.812645 50.283901,68.235985 50.568798,69.794983 
	C54.962788,69.794983 59.204735,69.794983 63.428703,69.794983 
	C63.766342,68.007668 64.029350,66.615448 64.272057,65.330658 
	C68.772606,65.330658 72.855614,65.330658 77.757141,65.330658 
	C77.009956,67.146614 76.835640,68.805511 75.914749,69.613403 
	C68.403000,76.203400 63.650223,87.512596 50.489792,83.798019 
	C50.489792,88.836754 50.489792,92.897896 50.489792,97.061455 
	C55.051956,97.061455 59.258198,97.061455 64.293205,97.061455 
	C61.746620,88.283539 66.486275,83.249756 71.719177,77.651085 
	C77.150948,71.839638 82.929771,68.851593 90.688339,70.138489 
	C90.688339,65.354652 90.688339,61.291866 90.688339,56.528770 
	C82.085892,58.855335 76.939186,54.236202 71.363365,48.956562 
	C65.653610,43.550106 62.244789,37.941067 64.035118,29.941820 
	C58.949001,29.941820 54.741528,29.941820 50.527802,29.941820 
	C50.527802,34.510761 50.527802,38.580219 50.527802,42.928360 
	C56.707466,43.080593 62.948307,41.856205 66.887520,48.129887 
	C69.847122,52.843414 76.496338,54.945713 77.331467,61.854656 
	C72.499878,61.854656 68.396484,61.854656 64.280296,61.854656 
	C63.964294,60.158669 63.698799,58.733734 63.419506,57.234756 
	C58.985954,57.234756 54.752670,57.234756 50.569965,57.234756 
	C50.218552,59.062641 49.949509,60.462086 49.689068,61.816772 
	C45.238998,61.816772 41.155109,61.816772 37.015816,61.816772 
	C36.661522,60.098019 36.369423,58.680992 35.985931,56.820595 
	C32.671700,56.820595 29.537457,56.820595 25.502672,56.839241 
z"/>
<path fill="#4598C2" opacity="1.000000" stroke="none" 
	d="
M25.952942,56.829918 
	C29.537457,56.820595 32.671700,56.820595 35.985931,56.820595 
	C36.369423,58.680992 36.661522,60.098019 37.015816,61.816772 
	C41.155109,61.816772 45.238998,61.816772 49.689068,61.816772 
	C49.949509,60.462086 50.218552,59.062641 50.569965,57.234756 
	C54.752670,57.234756 58.985954,57.234756 63.419506,57.234756 
	C63.698799,58.733734 63.964294,60.158669 64.280296,61.854656 
	C68.396484,61.854656 72.499878,61.854656 77.331467,61.854656 
	C76.496338,54.945713 69.847122,52.843414 66.887520,48.129887 
	C62.948307,41.856205 56.707466,43.080593 50.527802,42.928360 
	C50.527802,38.580219 50.527802,34.510761 50.527802,29.941820 
	C54.741528,29.941820 58.949001,29.941820 64.035118,29.941820 
	C62.244789,37.941067 65.653610,43.550106 71.363365,48.956562 
	C76.939186,54.236202 82.085892,58.855335 90.688339,56.528770 
	C90.688339,61.291866 90.688339,65.354652 90.688339,70.138489 
	C82.929771,68.851593 77.150948,71.839638 71.719177,77.651085 
	C66.486275,83.249756 61.746620,88.283539 64.293205,97.061455 
	C59.258198,97.061455 55.051956,97.061455 50.489792,97.061455 
	C50.489792,92.897896 50.489792,88.836754 50.489792,83.798019 
	C63.650223,87.512596 68.403000,76.203400 75.914749,69.613403 
	C76.835640,68.805511 77.009956,67.146614 77.757141,65.330658 
	C72.855614,65.330658 68.772606,65.330658 64.272057,65.330658 
	C64.029350,66.615448 63.766342,68.007668 63.428703,69.794983 
	C59.204735,69.794983 54.962788,69.794983 50.568798,69.794983 
	C50.283901,68.235985 50.023792,66.812645 49.733387,65.223526 
	C45.618404,65.223526 41.652958,65.223526 37.483765,65.223526 
	C35.435669,73.891357 28.563545,68.774834 23.057617,70.593781 
	C23.057617,66.133224 22.943203,62.372444 23.167461,58.631962 
	C23.205948,57.990028 24.687654,57.434620 25.952942,56.829918 
z"/>
</svg>