<svg version="1.1" id="Layer_1" xmlns="http://www.w3.org/2000/svg" xmlns:xlink="http://www.w3.org/1999/xlink" x="0px" y="0px"
	 width="100%" viewBox="0 0 160 58" enable-background="new 0 0 160 58" xml:space="preserve">
<path fill="#F6993A" opacity="1.000000" stroke="none" 
	d="
M57.000000,1.000000 
	C84.354225,1.000000 111.708458,1.000000 139.531769,1.459955 
	C139.409927,7.416539 138.610016,12.900755 138.282578,18.413036 
	C137.899673,24.858883 132.194931,26.530235 128.518738,31.169073 
	C128.126236,28.417053 127.892807,26.780352 127.643936,25.035450 
	C122.276115,27.123959 121.818832,28.677496 124.417282,34.530674 
	C125.704208,33.970596 126.990845,33.410645 128.538361,32.737160 
	C125.230812,47.896954 113.419907,52.936974 101.318436,55.209244 
	C91.407051,57.070286 80.787514,55.369881 70.496346,54.918751 
	C64.427063,54.652702 58.751656,52.309582 56.966118,46.136990 
	C55.172745,39.937313 54.216026,33.294010 54.185726,26.839050 
	C54.151051,19.451311 55.527237,12.055397 56.325554,4.666831 
	C56.458687,3.434648 56.770664,2.221789 57.000000,1.000000 
M68.749519,31.342665 
	C68.489685,33.467007 67.971199,35.597298 68.019875,37.714550 
	C68.151093,43.422813 72.125252,45.622482 77.174522,42.835888 
	C78.896088,41.885788 80.432724,40.600609 82.042351,39.476578 
	C86.844566,45.488941 88.335091,45.504196 97.929070,40.137318 
	C99.546249,41.531303 101.267509,44.005966 102.341370,43.751251 
	C105.330772,43.042168 108.051414,41.200073 110.787514,39.850182 
	C111.022469,42.108345 112.018120,45.318020 115.073051,43.727764 
	C118.870834,41.750816 121.889404,38.277008 125.244507,35.449669 
	C124.890472,35.029156 124.536438,34.608643 124.182404,34.188129 
	C121.802345,36.189678 119.422295,38.191223 117.042244,40.192768 
	C116.591324,39.956360 116.140404,39.719948 115.689484,39.483540 
	C116.714348,34.734108 117.739212,29.984674 118.715248,25.461546 
	C116.589378,25.859377 114.106491,27.118528 113.086601,26.373892 
	C109.191444,23.529993 106.234276,25.640032 103.749687,27.904085 
	C101.659927,29.808346 100.796478,33.019505 98.793137,35.068356 
	C96.767731,37.139755 94.149529,38.823334 91.485588,39.962715 
	C90.677147,40.308495 88.854248,38.282413 87.050476,37.034466 
	C90.387589,35.235531 92.931335,34.443501 94.598450,32.775372 
	C95.847130,31.525938 95.966850,29.148218 96.589226,27.272860 
	C94.549034,26.704948 92.320457,25.314217 90.505424,25.729763 
	C85.831131,26.799929 84.145538,30.844208 82.319809,34.955837 
	C81.333923,37.176079 78.501625,38.636642 76.325363,40.192364 
	C76.051445,40.388176 73.915764,38.981628 73.974564,38.470795 
	C74.258751,36.001785 74.704536,33.460846 75.666359,31.188038 
	C76.486038,29.251122 78.369019,27.777184 79.269073,25.858057 
	C80.448563,23.343103 81.515823,20.651695 81.931297,17.929346 
	C82.677849,13.037703 81.166702,11.963569 76.837227,14.110393 
	C75.481667,14.782567 74.031136,16.066082 73.484306,17.417772 
	C71.753975,21.694952 70.430573,26.136765 68.749519,31.342665 
z"/>
<path fill="#000000" opacity="1.000000" stroke="none" 
	d="
M56.531342,1.000000 
	C56.770664,2.221789 56.458687,3.434648 56.325554,4.666831 
	C55.527237,12.055397 54.151051,19.451311 54.185726,26.839050 
	C54.216026,33.294010 55.172745,39.937313 56.966118,46.136990 
	C58.751656,52.309582 64.427063,54.652702 70.496346,54.918751 
	C80.787514,55.369881 91.407051,57.070286 101.318436,55.209244 
	C113.419907,52.936974 125.230812,47.896954 128.538361,32.737160 
	C126.990845,33.410645 125.704208,33.970596 124.417282,34.530674 
	C121.818832,28.677496 122.276115,27.123959 127.643936,25.035450 
	C127.892807,26.780352 128.126236,28.417053 128.518738,31.169073 
	C132.194931,26.530235 137.899673,24.858883 138.282578,18.413036 
	C138.610016,12.900755 139.409927,7.416539 140.000427,1.459955 
	C146.988464,1.000000 153.976944,1.000000 160.982697,1.000000 
	C160.982697,20.289944 160.982697,39.579906 160.982697,58.934937 
	C107.666687,58.934937 54.333351,58.934937 1.000000,58.934937 
	C1.000000,50.242115 1.000000,41.589722 1.242846,32.135479 
	C2.262727,32.356472 3.342796,33.267776 3.767054,34.420460 
	C6.302606,41.309399 8.304683,47.599758 16.287552,51.516426 
	C25.241056,55.909317 33.863899,56.104836 42.991886,55.143600 
	C46.773994,54.745319 49.831516,52.759663 50.307819,48.299595 
	C50.773472,43.939285 51.860550,39.604465 51.912548,35.249355 
	C52.021545,26.119907 49.016708,18.096251 41.596153,12.330489 
	C39.563442,10.751075 36.856613,10.067784 34.548229,8.809778 
	C23.577330,2.830933 8.405892,4.806941 3.561718,17.836176 
	C3.222418,18.748777 1.877364,19.287447 1.000000,20.000000 
	C1.000000,13.703844 1.000000,7.407687 1.000000,1.000000 
	C19.354095,1.000000 37.708389,1.000000 56.531342,1.000000 
z"/>
<path fill="#3499CD" opacity="1.000000" stroke="none" 
	d="
M1.000000,20.460636 
	C1.877364,19.287447 3.222418,18.748777 3.561718,17.836176 
	C8.405892,4.806941 23.577330,2.830933 34.548229,8.809778 
	C36.856613,10.067784 39.563442,10.751075 41.596153,12.330489 
	C49.016708,18.096251 52.021545,26.119907 51.912548,35.249355 
	C51.860550,39.604465 50.773472,43.939285 50.307819,48.299595 
	C49.831516,52.759663 46.773994,54.745319 42.991886,55.143600 
	C33.863899,56.104836 25.241056,55.909317 16.287552,51.516426 
	C8.304683,47.599758 6.302606,41.309399 3.767054,34.420460 
	C3.342796,33.267776 2.262727,32.356472 1.242846,31.666817 
	C1.000000,28.307091 1.000000,24.614182 1.000000,20.460636 
z"/>
<path fill="#0E0904" opacity="1.000000" stroke="none" 
	d="
M68.849655,30.928783 
	C70.430573,26.136765 71.753975,21.694952 73.484306,17.417772 
	C74.031136,16.066082 75.481667,14.782567 76.837227,14.110393 
	C81.166702,11.963569 82.677849,13.037703 81.931297,17.929346 
	C81.515823,20.651695 80.448563,23.343103 79.269073,25.858057 
	C78.369019,27.777184 76.486038,29.251122 75.666359,31.188038 
	C74.704536,33.460846 74.258751,36.001785 73.974564,38.470795 
	C73.915764,38.981628 76.051445,40.388176 76.325363,40.192364 
	C78.501625,38.636642 81.333923,37.176079 82.319809,34.955837 
	C84.145538,30.844208 85.831131,26.799929 90.505424,25.729763 
	C92.320457,25.314217 94.549034,26.704948 96.589226,27.272860 
	C95.966850,29.148218 95.847130,31.525938 94.598450,32.775372 
	C92.931335,34.443501 90.387589,35.235531 87.050476,37.034466 
	C88.854248,38.282413 90.677147,40.308495 91.485588,39.962715 
	C94.149529,38.823334 96.767731,37.139755 98.793137,35.068356 
	C100.796478,33.019505 101.659927,29.808346 103.749687,27.904085 
	C106.234276,25.640032 109.191444,23.529993 113.086601,26.373892 
	C114.106491,27.118528 116.589378,25.859377 118.715248,25.461546 
	C117.739212,29.984674 116.714348,34.734108 115.689484,39.483540 
	C116.140404,39.719948 116.591324,39.956360 117.042244,40.192768 
	C119.422295,38.191223 121.802345,36.189678 124.182404,34.188129 
	C124.536438,34.608643 124.890472,35.029156 125.244507,35.449669 
	C121.889404,38.277008 118.870834,41.750816 115.073051,43.727764 
	C112.018120,45.318020 111.022469,42.108345 110.787514,39.850182 
	C108.051414,41.200073 105.330772,43.042168 102.341370,43.751251 
	C101.267509,44.005966 99.546249,41.531303 97.929070,40.137318 
	C88.335091,45.504196 86.844566,45.488941 82.042351,39.476578 
	C80.432724,40.600609 78.896088,41.885788 77.174522,42.835888 
	C72.125252,45.622482 68.151093,43.422813 68.019875,37.714550 
	C67.971199,35.597298 68.489685,33.467007 68.849655,30.928783 
M104.351120,38.782867 
	C105.452759,38.903645 107.340149,39.441963 107.532684,39.079651 
	C109.189056,35.962566 110.634552,32.718819 111.882835,29.414597 
	C112.079468,28.894075 110.996071,27.252295 110.458969,27.230068 
	C109.458229,27.188656 107.826027,27.697937 107.507622,28.433161 
	C106.159271,31.546646 105.197273,34.827442 104.351120,38.782867 
M80.135391,16.533735 
	C79.532654,16.563921 78.475822,16.427641 78.394661,16.649031 
	C76.966934,20.543686 75.658325,24.482006 74.323898,28.410862 
	C74.954643,28.629944 75.585388,28.849024 76.216133,29.068106 
	C77.540474,25.133862 78.864815,21.199615 80.135391,16.533735 
M90.126617,27.503323 
	C89.102638,29.512579 88.078651,31.521833 87.054665,33.531090 
	C87.606270,33.909489 88.157867,34.287891 88.709465,34.666294 
	C90.082184,33.144581 91.649498,31.740168 92.688133,30.017075 
	C92.941628,29.596531 91.460999,28.130703 90.126617,27.503323 
z"/>
<path fill="#EE9337" opacity="1.000000" stroke="none" 
	d="
M104.222595,38.414978 
	C105.197273,34.827442 106.159271,31.546646 107.507622,28.433161 
	C107.826027,27.697937 109.458229,27.188656 110.458969,27.230068 
	C110.996071,27.252295 112.079468,28.894075 111.882835,29.414597 
	C110.634552,32.718819 109.189056,35.962566 107.532684,39.079651 
	C107.340149,39.441963 105.452759,38.903645 104.222595,38.414978 
z"/>
<path fill="#DF8A33" opacity="1.000000" stroke="none" 
	d="
M80.162277,16.899553 
	C78.864815,21.199615 77.540474,25.133862 76.216133,29.068106 
	C75.585388,28.849024 74.954643,28.629944 74.323898,28.410862 
	C75.658325,24.482006 76.966934,20.543686 78.394661,16.649031 
	C78.475822,16.427641 79.532654,16.563921 80.162277,16.899553 
z"/>
<path fill="#E48D34" opacity="1.000000" stroke="none" 
	d="
M90.452148,27.324402 
	C91.460999,28.130703 92.941628,29.596531 92.688133,30.017075 
	C91.649498,31.740168 90.082184,33.144581 88.709465,34.666294 
	C88.157867,34.287891 87.606270,33.909489 87.054665,33.531090 
	C88.078651,31.521833 89.102638,29.512579 90.452148,27.324402 
z"/>
</svg>