<svg version="1.1" id="Layer_1" xmlns="http://www.w3.org/2000/svg" xmlns:xlink="http://www.w3.org/1999/xlink" x="0px" y="0px"
	 width="100%" viewBox="0 0 433 457" enable-background="new 0 0 433 457" xml:space="preserve">
<path fill="#FDFCFE" opacity="1.000000" stroke="none" 
	d="
M234.000000,1.000000 
	C300.650269,1.000000 367.300568,1.000000 433.975403,1.000000 
	C433.975403,153.279480 433.975403,305.558990 433.975403,457.919250 
	C289.756042,457.919250 145.512024,457.919250 1.133999,457.919250 
	C1.133999,305.666748 1.133999,153.333389 1.126758,1.000019 
	C73.768356,1.000000 146.417206,1.000000 219.445374,1.361902 
	C219.436188,2.020729 219.089401,2.476915 218.653030,2.591291 
	C207.801407,5.435596 200.249588,15.179411 200.249420,26.394358 
	C200.248734,72.515427 200.425735,118.637733 200.102737,164.756546 
	C200.036774,174.176910 202.682037,181.499786 209.630630,187.869110 
	C217.157089,194.768173 226.264038,195.354797 234.653915,192.790100 
	C247.597382,188.833405 253.501495,178.517853 253.569016,165.403290 
	C253.796127,121.281410 253.713547,77.157455 253.569962,33.034878 
	C253.554764,28.362791 253.163147,23.379850 251.497574,19.105616 
	C249.495651,13.968308 247.930298,8.056320 241.532883,5.748928 
	C238.805756,4.765311 236.498215,2.618323 234.000000,1.000000 
M253.427628,425.312378 
	C253.485245,424.985229 253.593246,424.658081 253.593338,424.330933 
	C253.610245,362.086243 253.626984,299.841553 253.580322,237.596878 
	C253.579300,236.228439 252.851440,234.860565 252.189178,232.768188 
	C249.883209,228.179337 248.677277,222.238007 245.043137,219.282150 
	C237.389328,213.056946 228.771545,209.258881 217.811752,212.888687 
	C210.312439,215.372375 200.053619,227.801025 200.091171,235.585419 
	C200.393234,298.201202 200.361481,360.819458 200.142502,423.435944 
	C200.112366,432.048340 203.238937,438.541748 209.103638,444.410126 
	C220.202774,455.516296 242.329239,451.930206 248.879044,438.406036 
	C250.498398,435.062378 251.605377,431.470520 253.171478,427.343140 
	C253.111389,426.894012 253.051300,426.444855 253.427628,425.312378 
M402.467865,359.492981 
	C402.433746,359.283112 402.399628,359.073212 402.601776,357.966553 
	C402.617493,312.008606 402.634979,266.050659 402.637146,220.092712 
	C402.637207,219.104034 402.461029,218.115341 402.468811,216.499313 
	C402.376953,216.308395 402.285126,216.117477 401.999695,215.233200 
	C399.805878,211.804550 398.274078,207.560944 395.274445,205.124268 
	C389.764801,200.648605 383.175568,198.774200 375.685608,198.746002 
	C363.707764,198.700958 349.336487,211.232315 351.137634,223.988373 
	C350.756439,225.352570 350.044220,226.716278 350.042175,228.081039 
	C349.981659,268.599670 349.970337,309.118469 350.072449,349.636932 
	C350.076294,351.165558 351.287933,352.691162 351.800507,355.076416 
	C349.132141,366.055634 364.886322,378.393829 375.372803,378.843903 
	C388.157257,379.392548 397.201843,372.926147 402.467865,359.492981 
M327.784607,382.359344 
	C328.038300,381.927490 328.291962,381.495605 328.908539,380.316193 
	C328.951294,379.652863 329.031433,378.989502 329.031494,378.326172 
	C329.037476,311.080566 329.042908,243.834946 329.012451,176.589355 
	C329.011475,174.444153 328.637726,172.299133 328.530060,169.495865 
	C328.417816,169.304901 328.305542,169.113922 327.909180,168.217361 
	C324.708435,155.854172 317.121216,147.467300 308.205444,146.820251 
	C290.983704,145.570435 282.374664,149.072693 276.491882,164.512558 
	C276.531006,164.730225 276.570129,164.947906 276.377197,166.059341 
	C276.363159,238.467010 276.348389,310.874695 276.344574,383.282349 
	C276.344513,384.107300 276.487274,384.932220 276.314026,386.264099 
	C276.858032,386.907715 277.402069,387.551300 277.880951,388.933685 
	C279.580505,395.005188 283.615051,398.834656 289.085083,401.826813 
	C294.744263,404.922424 300.648041,404.025879 306.489105,403.970795 
	C315.956116,403.881500 327.309418,393.815094 327.784607,382.359344 
M149.615784,13.667011 
	C147.402420,14.236693 145.154556,14.698541 142.981491,15.394114 
	C131.575317,19.045103 124.911987,27.915531 124.890762,39.927452 
	C124.787453,98.391495 124.911736,156.855957 124.792648,215.319931 
	C124.765602,228.598801 135.578751,239.128113 147.663010,240.127701 
	C165.512924,241.604218 177.564560,229.701889 177.691803,212.600113 
	C178.115662,155.638123 177.912292,98.670822 177.725937,41.706291 
	C177.712570,37.627270 176.511124,33.272717 174.799789,29.532316 
	C170.119553,19.302938 161.357635,14.755562 149.615784,13.667011 
M102.085991,227.280457 
	C102.085922,184.158722 102.149696,141.036789 102.026855,97.915405 
	C102.004776,90.165817 98.723473,83.137932 92.377022,79.018997 
	C84.825142,74.117699 76.519897,71.000252 66.860283,74.722710 
	C56.466030,78.728271 49.189117,87.630966 49.142910,98.234726 
	C48.952095,142.021622 49.059895,185.809830 49.075665,229.597565 
	C49.076199,231.082199 48.860409,232.748505 49.431450,234.022690 
	C54.097370,244.434036 62.180511,253.435776 77.035744,253.169937 
	C89.002007,252.955765 101.730568,241.638718 102.085991,227.280457 
M176.034988,276.406128 
	C175.830917,275.279144 175.865143,274.037720 175.387009,273.042358 
	C168.128143,257.931427 149.145187,253.299057 135.936829,262.735138 
	C130.030273,266.954803 124.904945,272.596893 124.885849,280.652649 
	C124.790329,320.945770 124.778534,361.239502 124.961647,401.532013 
	C124.976540,404.808533 125.822105,408.744080 127.754387,411.227509 
	C134.113586,419.400543 141.373154,425.277405 153.325577,424.163483 
	C166.454056,422.939972 177.619110,411.916626 177.733047,399.588501 
	C178.093124,360.630524 177.887772,321.667023 177.798141,282.705933 
	C177.793900,280.867859 176.799271,279.032074 176.034988,276.406128 
M96.802406,368.204254 
	C100.953484,362.749603 102.263123,356.599213 102.164734,349.782654 
	C101.924232,333.120667 102.028099,316.452576 102.107460,299.787476 
	C102.157303,289.321228 99.024750,280.870117 89.525291,274.991364 
	C80.924309,269.668549 72.186470,269.409912 63.735638,273.575165 
	C53.467102,278.636322 48.772236,287.557343 48.964043,299.274292 
	C49.255878,317.101562 48.616322,334.950165 49.163998,352.765411 
	C49.674931,369.385254 60.043797,377.066101 74.780197,378.578247 
	C82.979988,379.419617 90.794983,375.543762 96.802406,368.204254 
M319.189514,121.728577 
	C326.948700,115.516510 328.989838,106.914200 329.046234,97.604729 
	C329.142090,81.786751 329.329803,65.961121 328.920441,50.153164 
	C328.792786,45.224075 327.290649,40.188492 325.607910,35.491829 
	C324.490234,32.372356 322.548218,28.839651 319.913513,27.098669 
	C310.081207,20.601685 299.494995,17.330875 288.470062,24.431570 
	C281.649872,28.824141 276.153168,34.526417 276.098969,43.344688 
	C275.969971,64.324295 276.043335,85.305260 276.087158,106.285568 
	C276.090179,107.729431 276.266388,109.276848 276.801147,110.598419 
	C279.761536,117.914490 284.593750,123.105759 292.229797,126.170609 
	C301.354218,129.832855 311.725128,128.749847 319.189514,121.728577 
M403.013855,148.496918 
	C403.013794,130.860306 402.814697,113.220520 403.094513,95.588341 
	C403.242706,86.250191 392.163269,76.338486 386.587006,74.770569 
	C380.457703,73.047134 374.517822,72.874374 368.404816,74.766357 
	C361.671448,76.850349 356.105438,81.371490 353.825104,87.244560 
	C351.069336,94.342094 350.409058,102.495125 350.088898,110.242874 
	C349.532959,123.696953 349.334045,137.227356 350.156464,150.654037 
	C350.661072,158.892181 351.867004,167.086304 359.193787,173.555237 
	C373.404114,186.101791 392.505188,181.772064 400.874817,166.282211 
	C403.376312,161.652618 402.397919,155.142746 403.013855,148.496918 
z"/>
<path fill="#D4307F" opacity="1.000000" stroke="none" 
	d="
M233.535355,1.000000 
	C236.498215,2.618323 238.805756,4.765311 241.532883,5.748928 
	C247.930298,8.056320 249.495651,13.968308 251.497574,19.105616 
	C253.163147,23.379850 253.554764,28.362791 253.569962,33.034878 
	C253.713547,77.157455 253.796127,121.281410 253.569016,165.403290 
	C253.501495,178.517853 247.597382,188.833405 234.653915,192.790100 
	C226.264038,195.354797 217.157089,194.768173 209.630630,187.869110 
	C202.682037,181.499786 200.036774,174.176910 200.102737,164.756546 
	C200.425735,118.637733 200.248734,72.515427 200.249420,26.394358 
	C200.249588,15.179411 207.801407,5.435596 218.653030,2.591291 
	C219.089401,2.476915 219.436188,2.020729 219.912354,1.361902 
	C224.356903,1.000000 228.713806,1.000000 233.535355,1.000000 
z"/>
<path fill="#6D55CE" opacity="1.000000" stroke="none" 
	d="
M328.437775,170.154022 
	C328.637726,172.299133 329.011475,174.444153 329.012451,176.589355 
	C329.042908,243.834946 329.037476,311.080566 329.031494,378.326172 
	C329.031433,378.989502 328.951294,379.652863 328.366333,380.821564 
	C327.566833,381.754486 327.309570,382.182037 327.052307,382.609589 
	C327.309418,393.815094 315.956116,403.881500 306.489105,403.970795 
	C300.648041,404.025879 294.744263,404.922424 289.085083,401.826813 
	C283.615051,398.834656 279.580505,395.005188 277.884369,388.190063 
	C277.446320,386.883331 277.004852,386.320251 276.563385,385.757172 
	C276.487274,384.932220 276.344513,384.107300 276.344574,383.282349 
	C276.348389,310.874695 276.363159,238.467010 276.723267,165.501251 
	C277.177429,164.817535 277.395782,164.604019 277.376495,164.579803 
	C277.178925,164.331772 276.942749,164.114441 276.717377,163.888535 
	C282.374664,149.072693 290.983704,145.570435 308.205444,146.820251 
	C317.121216,147.467300 324.708435,155.854172 327.847595,168.702972 
	C328.003265,169.510406 328.220520,169.832214 328.437775,170.154022 
z"/>
<path fill="#456AE0" opacity="1.000000" stroke="none" 
	d="
M252.947876,427.992767 
	C251.605377,431.470520 250.498398,435.062378 248.879044,438.406036 
	C242.329239,451.930206 220.202774,455.516296 209.103638,444.410126 
	C203.238937,438.541748 200.112366,432.048340 200.142502,423.435944 
	C200.361481,360.819458 200.393234,298.201202 200.091171,235.585419 
	C200.053619,227.801025 210.312439,215.372375 217.811752,212.888687 
	C228.771545,209.258881 237.389328,213.056946 245.043137,219.282150 
	C248.677277,222.238007 249.883209,228.179337 252.191772,233.277679 
	C252.194351,233.787155 251.943451,234.096817 251.651901,234.380249 
	C251.239838,239.144241 251.016205,243.624786 251.014389,248.105408 
	C250.990829,306.262024 250.981232,364.418701 251.080673,422.575134 
	C251.083755,424.382080 252.298187,426.186951 252.947876,427.992767 
z"/>
<path fill="#BD2A92" opacity="1.000000" stroke="none" 
	d="
M150.065125,13.665488 
	C161.357635,14.755562 170.119553,19.302938 174.799789,29.532316 
	C176.511124,33.272717 177.712570,37.627270 177.725937,41.706291 
	C177.912292,98.670822 178.115662,155.638123 177.691803,212.600113 
	C177.564560,229.701889 165.512924,241.604218 147.663010,240.127701 
	C135.578751,239.128113 124.765602,228.598801 124.792648,215.319931 
	C124.911736,156.855957 124.787453,98.391495 124.890762,39.927452 
	C124.911987,27.915531 131.575317,19.045103 142.981491,15.394114 
	C145.154556,14.698541 147.402420,14.236693 150.065125,13.665488 
z"/>
<path fill="#A12AA2" opacity="1.000000" stroke="none" 
	d="
M102.086014,227.748322 
	C101.730568,241.638718 89.002007,252.955765 77.035744,253.169937 
	C62.180511,253.435776 54.097370,244.434036 49.431450,234.022690 
	C48.860409,232.748505 49.076199,231.082199 49.075665,229.597565 
	C49.059895,185.809830 48.952095,142.021622 49.142910,98.234726 
	C49.189117,87.630966 56.466030,78.728271 66.860283,74.722710 
	C76.519897,71.000252 84.825142,74.117699 92.377022,79.018997 
	C98.723473,83.137932 102.004776,90.165817 102.026855,97.915405 
	C102.149696,141.036789 102.085922,184.158722 102.086014,227.748322 
z"/>
<path fill="#863FB6" opacity="1.000000" stroke="none" 
	d="
M402.367065,217.126663 
	C402.461029,218.115341 402.637207,219.104034 402.637146,220.092712 
	C402.634979,266.050659 402.617493,312.008606 402.262268,358.513092 
	C401.813385,359.171783 401.595001,359.360718 401.611572,359.384216 
	C401.782654,359.627197 401.991608,359.843475 402.190033,360.067200 
	C397.201843,372.926147 388.157257,379.392548 375.372803,378.843903 
	C364.886322,378.393829 349.132141,366.055634 351.881836,354.161591 
	C351.942383,310.041351 351.921661,266.835907 351.900940,223.630493 
	C349.336487,211.232315 363.707764,198.700958 375.685608,198.746002 
	C383.175568,198.774200 389.764801,200.648605 395.274445,205.124268 
	C398.274078,207.560944 399.805878,211.804550 401.895142,215.703873 
	C401.982727,216.491928 402.174896,216.809296 402.367065,217.126663 
z"/>
<path fill="#387AEC" opacity="1.000000" stroke="none" 
	d="
M176.150436,276.800659 
	C176.799271,279.032074 177.793900,280.867859 177.798141,282.705933 
	C177.887772,321.667023 178.093124,360.630524 177.733047,399.588501 
	C177.619110,411.916626 166.454056,422.939972 153.325577,424.163483 
	C141.373154,425.277405 134.113586,419.400543 127.754387,411.227509 
	C125.822105,408.744080 124.976540,404.808533 124.961647,401.532013 
	C124.778534,361.239502 124.790329,320.945770 124.885849,280.652649 
	C124.904945,272.596893 130.030273,266.954803 135.936829,262.735138 
	C149.145187,253.299057 168.128143,257.931427 175.387009,273.042358 
	C175.865143,274.037720 175.830917,275.279144 176.150436,276.800659 
z"/>
<path fill="#3F8AF3" opacity="1.000000" stroke="none" 
	d="
M96.669128,368.549622 
	C90.794983,375.543762 82.979988,379.419617 74.780197,378.578247 
	C60.043797,377.066101 49.674931,369.385254 49.163998,352.765411 
	C48.616322,334.950165 49.255878,317.101562 48.964043,299.274292 
	C48.772236,287.557343 53.467102,278.636322 63.735638,273.575165 
	C72.186470,269.409912 80.924309,269.668549 89.525291,274.991364 
	C99.024750,280.870117 102.157303,289.321228 102.107460,299.787476 
	C102.028099,316.452576 101.924232,333.120667 102.164734,349.782654 
	C102.263123,356.599213 100.953484,362.749603 96.669128,368.549622 
z"/>
<path fill="#E3346C" opacity="1.000000" stroke="none" 
	d="
M318.912415,121.963974 
	C311.725128,128.749847 301.354218,129.832855 292.229797,126.170609 
	C284.593750,123.105759 279.761536,117.914490 276.801147,110.598419 
	C276.266388,109.276848 276.090179,107.729431 276.087158,106.285568 
	C276.043335,85.305260 275.969971,64.324295 276.098969,43.344688 
	C276.153168,34.526417 281.649872,28.824141 288.470062,24.431570 
	C299.494995,17.330875 310.081207,20.601685 319.913513,27.098669 
	C322.548218,28.839651 324.490234,32.372356 325.607910,35.491829 
	C327.290649,40.188492 328.792786,45.224075 328.920441,50.153164 
	C329.329803,65.961121 329.142090,81.786751 329.046234,97.604729 
	C328.989838,106.914200 326.948700,115.516510 318.912415,121.963974 
z"/>
<path fill="#EA3658" opacity="1.000000" stroke="none" 
	d="
M403.013855,148.995636 
	C402.397919,155.142746 403.376312,161.652618 400.874817,166.282211 
	C392.505188,181.772064 373.404114,186.101791 359.193787,173.555237 
	C351.867004,167.086304 350.661072,158.892181 350.156464,150.654037 
	C349.334045,137.227356 349.532959,123.696953 350.088898,110.242874 
	C350.409058,102.495125 351.069336,94.342094 353.825104,87.244560 
	C356.105438,81.371490 361.671448,76.850349 368.404816,74.766357 
	C374.517822,72.874374 380.457703,73.047134 386.587006,74.770569 
	C392.163269,76.338486 403.242706,86.250191 403.094513,95.588341 
	C402.814697,113.220520 403.013794,130.860306 403.013855,148.995636 
z"/>
<path fill="#456AE0" opacity="1.000000" stroke="none" 
	d="
M252.328491,233.639786 
	C252.851440,234.860565 253.579300,236.228439 253.580322,237.596878 
	C253.626984,299.841553 253.610245,362.086243 253.593338,424.330933 
	C253.593246,424.658081 253.485245,424.985229 252.910950,425.361755 
	C252.260193,423.434113 252.010086,421.457153 252.008911,419.480103 
	C251.972153,357.685669 251.959656,295.891235 251.943451,234.096817 
	C251.943451,234.096817 252.194351,233.787155 252.328491,233.639786 
z"/>
<path fill="#7C2EB0" opacity="1.000000" stroke="none" 
	d="
M351.519287,223.809433 
	C351.921661,266.835907 351.942383,310.041351 351.949951,353.732483 
	C351.287933,352.691162 350.076294,351.165558 350.072449,349.636932 
	C349.970337,309.118469 349.981659,268.599670 350.042175,228.081039 
	C350.044220,226.716278 350.756439,225.352570 351.519287,223.809433 
z"/>
<path fill="#3A60DF" opacity="1.000000" stroke="none" 
	d="
M251.651901,234.380249 
	C251.959656,295.891235 251.972153,357.685669 252.008911,419.480103 
	C252.010086,421.457153 252.260193,423.434113 252.692749,425.703430 
	C253.051300,426.444855 253.111389,426.894012 253.059692,427.667969 
	C252.298187,426.186951 251.083755,424.382080 251.080673,422.575134 
	C250.981232,364.418701 250.990829,306.262024 251.014389,248.105408 
	C251.016205,243.624786 251.239838,239.144241 251.651901,234.380249 
z"/>
<path fill="#5E44C9" opacity="1.000000" stroke="none" 
	d="
M276.438721,386.010620 
	C277.004852,386.320251 277.446320,386.883331 277.916931,387.820648 
	C277.402069,387.551300 276.858032,386.907715 276.438721,386.010620 
z"/>
<path fill="#5E44C9" opacity="1.000000" stroke="none" 
	d="
M276.604614,164.200546 
	C276.942749,164.114441 277.178925,164.331772 277.376495,164.579803 
	C277.395782,164.604019 277.177429,164.817535 276.839294,165.054382 
	C276.570129,164.947906 276.531006,164.730225 276.604614,164.200546 
z"/>
<path fill="#6047C9" opacity="1.000000" stroke="none" 
	d="
M328.483917,169.824951 
	C328.220520,169.832214 328.003265,169.510406 327.989624,169.055756 
	C328.305542,169.113922 328.417816,169.304901 328.483917,169.824951 
z"/>
<path fill="#7C2FB0" opacity="1.000000" stroke="none" 
	d="
M402.417938,216.812988 
	C402.174896,216.809296 401.982727,216.491928 401.991943,216.050568 
	C402.285126,216.117477 402.376953,216.308395 402.417938,216.812988 
z"/>
<path fill="#7C2FB0" opacity="1.000000" stroke="none" 
	d="
M402.328949,359.780090 
	C401.991608,359.843475 401.782654,359.627197 401.611572,359.384216 
	C401.595001,359.360718 401.813385,359.171783 402.144135,358.961487 
	C402.399628,359.073212 402.433746,359.283112 402.328949,359.780090 
z"/>
<path fill="#6047C9" opacity="1.000000" stroke="none" 
	d="
M327.418457,382.484467 
	C327.309570,382.182037 327.566833,381.754486 328.184875,381.195312 
	C328.291962,381.495605 328.038300,381.927490 327.418457,382.484467 
z"/>
</svg>