<svg version="1.1" id="Layer_1" xmlns="http://www.w3.org/2000/svg" xmlns:xlink="http://www.w3.org/1999/xlink" x="0px" y="0px"
	 width="100%" viewBox="0 0 500 500" enable-background="new 0 0 500 500" xml:space="preserve">
<path fill="#000000" opacity="1.000000" stroke="none" 
	d="
M501.000000,195.000000 
	C501.000000,297.333313 501.000000,399.166626 501.000000,500.999939 
	C334.333405,500.999969 167.666794,500.999969 1.000144,501.000000 
	C1.000096,334.333435 1.000096,167.666870 1.000048,1.000234 
	C167.666519,1.000156 334.333038,1.000156 500.999786,1.000078 
	C501.000000,65.500000 501.000000,130.000000 501.000000,195.000000 
M73.693222,177.742264 
	C73.740372,178.501541 73.787521,179.260803 73.632790,180.937698 
	C73.712997,189.311890 73.793198,197.686096 73.680626,206.970810 
	C73.742973,213.325775 73.805321,219.680740 73.726097,226.957535 
	C73.867950,233.314728 74.009811,239.671906 73.659721,246.682312 
	C73.659721,255.869141 73.659721,265.055969 73.659721,275.410034 
	C87.382874,266.897491 100.190140,258.953064 113.683151,250.840057 
	C130.817978,240.616501 147.961990,230.408295 165.084869,220.164734 
	C179.718018,211.410614 194.354721,202.661819 208.938629,193.826096 
	C223.008133,185.302002 237.012115,176.669724 251.738770,167.945770 
	C262.245911,161.800446 272.753082,155.655136 284.152557,149.647903 
	C315.663696,149.647903 347.174835,149.647903 378.642029,149.647903 
	C378.642029,176.431152 378.642029,201.963760 378.642029,228.214722 
	C372.288849,228.214722 366.285217,228.214722 358.992920,228.214722 
	C361.764282,232.541702 363.847809,235.794739 366.013519,239.762238 
	C368.315704,243.754044 371.170044,247.533875 372.801422,251.783218 
	C375.890991,259.831055 380.807373,264.103760 389.744019,262.142365 
	C391.019287,261.862457 392.798523,261.557312 393.347046,260.656494 
	C397.549744,253.754791 401.505402,246.702652 405.838715,239.061829 
	C407.913300,235.631241 409.987885,232.200638 412.614441,227.857300 
	C406.086761,227.857300 400.818390,227.857300 394.806030,227.857300 
	C394.806030,196.669724 394.806030,165.983566 394.806030,135.250687 
	C392.885132,135.144287 391.726105,135.023636 390.567108,135.024124 
	C358.741913,135.037552 326.916687,135.045700 295.091583,135.111023 
	C291.435364,135.118530 287.779846,135.456497 283.391876,135.338120 
	C278.620605,132.845383 273.849365,130.352661 268.645142,127.351822 
	C263.794708,124.518463 258.944275,121.685104 253.655975,118.346916 
	C249.435440,115.919037 245.214890,113.491150 240.610291,110.673523 
	C240.274216,110.553177 239.938141,110.432838 239.187439,109.801468 
	C225.450363,101.549660 211.713303,93.297852 197.538788,84.535118 
	C187.221069,78.303268 176.925140,72.034683 166.560959,65.881096 
	C165.088318,65.006744 163.284012,64.691010 161.177322,63.842167 
	C161.000488,63.828041 160.823669,63.813911 160.585373,63.667892 
	C160.342041,63.509472 160.098724,63.351048 159.415207,62.707878 
	C157.336441,61.113754 155.386093,59.307713 153.159180,57.958023 
	C128.708435,43.138805 104.221054,28.379932 79.719711,13.644433 
	C77.826309,12.505712 75.752495,11.666972 72.776581,10.204149 
	C73.220009,16.532568 73.586296,21.760033 73.741562,27.895477 
	C73.820023,31.931009 73.898483,35.966541 73.637726,40.706261 
	C73.768646,44.100143 73.899567,47.494026 73.755310,51.609512 
	C73.840454,55.080952 73.925606,58.552395 73.653450,62.566940 
	C73.761299,67.377579 73.869148,72.188225 73.732597,77.889374 
	C73.809868,81.269890 73.887138,84.650414 73.621696,88.907974 
	C73.746811,96.604866 73.871925,104.301758 73.750870,112.812424 
	C73.813507,114.220604 73.876144,115.628777 73.588486,117.761635 
	C73.571968,123.538780 73.555450,129.315933 72.685776,135.176163 
	C71.843636,135.274170 71.001488,135.372177 69.222130,135.265915 
	C49.681042,135.265915 30.139952,135.265915 10.481546,135.265915 
	C10.481546,140.346710 10.481546,145.020233 10.481546,149.771347 
	C30.701145,149.771347 50.453690,149.771347 71.022491,149.890594 
	C71.861595,149.889511 72.700691,149.888412 73.576622,150.655350 
	C73.994072,152.514130 74.411522,154.372910 74.819061,156.295837 
	C74.819061,156.295837 74.830162,156.356064 74.135262,156.418167 
	C74.055374,157.297989 73.975479,158.177811 73.628235,159.951141 
	C73.729271,165.290344 73.830299,170.629532 73.808319,176.492188 
	C73.850395,176.666351 73.892479,176.840515 73.693222,177.742264 
M489.778900,385.911133 
	C489.876373,385.446014 489.973877,384.980896 490.086395,384.496307 
	C490.086395,384.496307 490.106903,384.482788 490.412537,383.665222 
	C489.964355,382.765289 489.516205,381.865387 489.158295,380.941925 
	C489.158295,380.941925 489.177490,380.850616 489.665894,380.102356 
	C489.886414,376.392303 490.106934,372.682220 490.513824,368.112274 
	C490.513824,335.586334 490.513824,303.060394 490.513824,270.297668 
	C483.785095,270.297668 477.347473,270.297668 470.091797,270.184387 
	C456.731842,270.198944 443.371887,270.213531 429.081665,270.095093 
	C416.458710,270.069855 403.835236,269.986969 391.213379,270.091980 
	C389.624023,270.105255 388.042938,271.107300 385.760345,271.632294 
	C381.168640,271.201447 376.576904,270.770599 371.062653,270.178375 
	C359.324188,270.154541 347.585449,270.071838 335.847412,270.132477 
	C330.264709,270.161316 324.683380,270.463104 319.004761,270.576630 
	C318.690796,270.597412 318.376801,270.618195 317.441986,270.193787 
	C301.741852,270.193787 286.041718,270.193787 270.347748,270.193787 
	C270.347748,277.498474 270.347748,284.275635 270.191071,291.894745 
	C270.318451,296.801392 270.445831,301.708008 270.237732,307.173706 
	C270.352478,307.793823 270.467224,308.413910 270.196472,309.679932 
	C270.233429,316.139832 270.270386,322.599762 270.188324,329.921478 
	C270.245697,332.237946 270.303101,334.554443 270.169708,337.681030 
	C270.210876,347.438110 270.252045,357.195160 270.094238,367.875763 
	C270.151611,393.552490 270.208984,419.229187 270.081635,445.838837 
	C270.081635,460.740387 270.081635,475.641907 270.081635,490.843262 
	C272.525482,490.843262 274.010590,490.844391 275.495667,490.843109 
	C302.321777,490.819824 329.147980,490.818787 355.973999,490.759705 
	C364.632050,490.740631 373.289764,490.568817 382.868256,490.695435 
	C389.556122,490.664276 396.243958,490.633118 403.859344,490.792938 
	C431.499207,490.813385 459.139069,490.820007 486.778839,490.877686 
	C489.296814,490.882935 490.907104,490.392883 490.886963,487.350922 
	C490.749176,466.544495 490.701508,445.737488 490.748901,424.010040 
	C490.680756,413.327637 490.612640,402.645264 490.687836,391.261261 
	C490.179016,389.533966 489.670197,387.806641 489.115448,386.017792 
	C489.115448,386.017792 489.044067,386.046112 489.778900,385.911133 
z"/>
<path fill="#5A5A5A" opacity="1.000000" stroke="none" 
	d="
M365.931335,239.047760 
	C363.847809,235.794739 361.764282,232.541702 358.992920,228.214722 
	C366.285217,228.214722 372.288849,228.214722 378.642029,228.214722 
	C378.642029,201.963760 378.642029,176.431152 378.642029,149.647903 
	C347.174835,149.647903 315.663696,149.647903 283.903870,149.362274 
	C286.559418,147.016739 289.463654,144.956818 292.382599,142.886475 
	C289.433167,140.298965 286.778595,137.970108 284.123993,135.641251 
	C287.779846,135.456497 291.435364,135.118530 295.091583,135.111023 
	C326.916687,135.045700 358.741913,135.037552 390.567108,135.024124 
	C391.726105,135.023636 392.885132,135.144287 394.806030,135.250687 
	C394.806030,165.983566 394.806030,196.669724 394.806030,227.857300 
	C400.818390,227.857300 406.086761,227.857300 412.614441,227.857300 
	C409.987885,232.200638 407.913300,235.631241 405.283264,239.205704 
	C403.130920,239.624817 401.445831,239.661591 399.951538,240.214233 
	C390.677643,243.644119 381.479401,244.551605 372.154755,240.284225 
	C370.283569,239.427902 368.016083,239.437439 365.931335,239.047760 
z"/>
<path fill="#73C8EC" opacity="1.000000" stroke="none" 
	d="
M74.010742,62.023834 
	C73.925606,58.552395 73.840454,55.080952 74.142334,50.784851 
	C74.345215,46.640816 74.161079,43.321445 73.976944,40.002071 
	C73.898483,35.966541 73.820023,31.931009 74.220734,27.327583 
	C75.387489,23.190859 76.075073,19.622030 76.963631,15.010072 
	C95.570816,26.454700 113.832458,37.686798 132.069473,49.341419 
	C133.912415,64.511787 129.060776,76.775398 118.063667,86.568321 
	C105.749947,97.533699 91.646599,100.198441 76.023285,94.564941 
	C75.332886,92.107765 74.648643,90.069351 73.964409,88.030930 
	C73.887138,84.650414 73.809868,81.269890 74.117767,77.128014 
	C74.584625,71.577278 76.989365,66.708183 74.010742,62.023834 
z"/>
<path fill="#AD2701" opacity="1.000000" stroke="none" 
	d="
M490.327515,368.972168 
	C490.106934,372.682220 489.886414,376.392303 489.194550,380.770996 
	C488.525543,382.902771 488.327881,384.365845 488.043762,386.177612 
	C484.842499,391.030273 481.731171,395.536713 478.612305,400.037903 
	C466.307495,417.796448 451.625244,433.440216 435.038391,447.156647 
	C417.641235,461.543182 398.393097,473.097321 377.494476,481.803772 
	C373.970215,483.272003 370.633453,485.196838 367.090240,486.610382 
	C364.820984,487.515717 362.360016,488.113892 359.932404,488.393860 
	C357.991455,488.617706 355.971680,488.022888 353.986145,488.016510 
	C340.654816,487.973816 327.323334,487.991272 314.125183,487.646423 
	C316.235443,486.602966 318.159912,485.590027 320.197083,485.247772 
	C362.060760,478.213379 399.151489,461.114899 431.336731,433.290344 
	C451.842621,415.562775 468.514771,394.872498 481.511414,371.124542 
	C483.291168,367.872467 485.811920,365.025970 487.992859,362.415894 
	C488.773224,364.884064 489.550354,366.928101 490.327515,368.972168 
z"/>
<path fill="#E5762E" opacity="1.000000" stroke="none" 
	d="
M270.293213,366.952240 
	C270.252045,357.195160 270.210876,347.438110 270.702881,337.290436 
	C271.818268,336.941437 272.400513,336.983032 272.981567,337.487701 
	C272.991058,342.300140 273.001801,346.649445 273.008423,351.458801 
	C273.003723,353.248535 273.154449,354.599030 272.975647,355.904358 
	C272.314117,360.733276 274.336121,362.473022 279.136139,362.056763 
	C286.394623,361.427338 293.796936,361.844238 300.944977,360.655212 
	C340.615875,354.056366 372.354828,323.405182 380.757355,284.057190 
	C383.121765,272.985077 383.121796,272.985077 371.994080,272.674042 
	C371.984833,271.673676 371.985016,271.006683 371.985199,270.339722 
	C376.576904,270.770599 381.168640,271.201447 386.580872,271.730957 
	C389.599426,271.929596 391.797455,272.029602 393.996216,272.567780 
	C393.834076,275.656708 393.915314,278.349243 393.470123,280.951752 
	C389.543335,303.907135 379.739594,323.862396 363.287537,340.537903 
	C350.045410,353.959900 334.625275,363.585693 316.568848,369.124634 
	C302.035980,373.582672 287.180359,374.500366 272.112976,373.581818 
	C271.490448,371.098328 270.891815,369.025269 270.293213,366.952240 
z"/>
<path fill="#A12607" opacity="1.000000" stroke="none" 
	d="
M313.991882,487.989258 
	C327.323334,487.991272 340.654816,487.973816 353.986145,488.016510 
	C355.971680,488.022888 357.991455,488.617706 359.932404,488.393860 
	C362.360016,488.113892 364.820984,487.515717 367.090240,486.610382 
	C370.633453,485.196838 373.970215,483.272003 377.494476,481.803772 
	C398.393097,473.097321 417.641235,461.543182 435.038391,447.156647 
	C451.625244,433.440216 466.307495,417.796448 478.612305,400.037903 
	C481.731171,395.536713 484.842499,391.030273 488.300201,386.243408 
	C488.815918,386.000183 488.988678,386.039764 489.161377,386.079315 
	C489.670197,387.806641 490.179016,389.533966 490.254059,391.677979 
	C489.220276,393.460052 488.201111,394.795837 488.102203,396.196594 
	C487.848999,399.783112 488.005127,403.398560 487.658813,407.067627 
	C486.130280,408.221405 484.845062,409.223358 483.765381,410.411987 
	C473.103882,422.149841 462.933777,434.376282 451.730438,445.569519 
	C435.665009,461.620453 416.770233,473.928497 396.590515,484.289948 
	C395.141785,485.033844 394.186371,486.738434 392.547394,487.998474 
	C390.335510,488.003693 388.499268,487.688538 386.841766,488.097626 
	C385.120331,488.522491 383.571777,489.647858 381.947632,490.466888 
	C373.289764,490.568817 364.632050,490.740631 355.973999,490.759705 
	C329.147980,490.818787 302.321777,490.819824 275.495667,490.843109 
	C274.010590,490.844391 272.525482,490.843262 270.081635,490.843262 
	C270.081635,475.641907 270.081635,460.740387 270.475433,445.370361 
	C271.271057,444.912659 271.672852,444.923370 272.057617,445.317749 
	C272.048553,446.465057 272.056549,447.228668 272.042908,448.430145 
	C272.017120,450.912018 272.012970,452.955994 271.998291,455.416656 
	C271.993164,457.222626 271.998505,458.611908 271.996704,460.450958 
	C272.001038,463.599274 272.012482,466.297821 272.015320,469.413147 
	C272.013733,471.218292 272.020782,472.606659 272.021851,474.409363 
	C272.344299,477.214966 272.672760,479.606262 272.999023,482.427124 
	C272.493713,486.725433 274.091095,488.135590 278.057709,488.068726 
	C290.032806,487.866852 302.013428,487.991730 313.991882,487.989258 
z"/>
<path fill="#E68836" opacity="1.000000" stroke="none" 
	d="
M273.012512,350.998779 
	C273.001801,346.649445 272.991058,342.300140 273.421387,337.481201 
	C281.772736,336.877502 289.875153,337.808167 297.559723,336.422241 
	C328.430389,330.854614 350.824524,308.372894 357.374847,277.649017 
	C358.076355,274.358704 357.515869,272.832092 353.987183,272.998657 
	C352.659180,273.061340 351.325958,273.012695 349.541687,273.010132 
	C346.062103,273.003632 343.035950,273.001831 339.567993,272.996094 
	C335.087494,272.987701 331.048767,272.983246 326.541748,272.965576 
	C323.749451,272.181976 321.425446,271.411591 319.101440,270.641235 
	C324.683380,270.463104 330.264709,270.161316 335.847412,270.132477 
	C347.585449,270.071838 359.324188,270.154541 371.523926,270.259033 
	C371.985016,271.006683 371.984833,271.673676 371.968689,273.079956 
	C371.653625,275.285187 371.337585,276.747925 371.057922,278.217590 
	C365.029816,309.895355 347.157715,332.067566 317.639099,344.972382 
	C303.314911,351.234589 288.216187,351.424805 273.012512,350.998779 
z"/>
<path fill="#1964A4" opacity="1.000000" stroke="none" 
	d="
M197.976227,85.046051 
	C211.713303,93.297852 225.450363,101.549660 239.233307,110.234207 
	C239.279190,110.666954 238.974487,111.029785 238.593079,111.024307 
	C237.085846,111.966072 235.435715,112.686462 234.912964,113.894638 
	C227.226898,131.658630 216.454880,147.393723 203.120667,161.284439 
	C183.015396,182.228760 158.921432,196.956329 131.030594,205.064224 
	C113.099846,210.276703 94.817848,213.505249 75.983841,210.622375 
	C75.277153,208.842300 74.575279,207.451294 73.873398,206.060287 
	C73.793198,197.686096 73.712997,189.311890 74.034782,180.465118 
	C74.637390,179.984741 74.837997,179.976974 75.258461,180.291016 
	C75.656853,182.737625 75.835396,184.862457 76.007248,187.441620 
	C76.008553,190.924438 76.016556,193.952942 76.017380,197.408844 
	C75.335609,202.753601 77.666786,204.379288 82.347527,204.045197 
	C90.126282,203.489990 98.001358,203.765625 105.700378,202.706451 
	C131.880768,199.104706 155.735092,189.453354 177.145416,173.904434 
	C198.588989,158.331390 214.616898,138.237625 226.164276,114.519669 
	C229.943848,106.756561 229.696350,106.636070 222.706528,102.830597 
	C219.966827,101.423729 217.518753,100.189301 214.874573,98.681839 
	C211.795013,96.587845 208.911575,94.766891 205.799515,92.707733 
	C203.050186,90.640572 200.529495,88.811623 198.004700,86.659927 
	C197.992462,85.906792 197.984344,85.476425 197.976227,85.046051 
z"/>
<path fill="#225287" opacity="1.000000" stroke="none" 
	d="
M240.994354,111.063263 
	C245.214890,113.491150 249.435440,115.919037 253.902344,118.936951 
	C255.108536,121.010941 256.068359,122.494896 256.874512,124.305328 
	C255.658203,127.065643 254.739304,129.574768 253.510178,131.921417 
	C243.815765,150.429977 231.813705,167.238358 216.759598,181.817307 
	C214.910889,183.607681 213.579224,185.931961 211.825378,188.291885 
	C192.763199,200.056458 173.883606,211.537964 154.743958,222.827789 
	C153.205994,222.847443 151.851013,222.853546 150.661606,223.300415 
	C126.577179,232.349045 101.695953,236.257904 75.997704,234.565796 
	C75.992645,232.088318 75.990807,230.048111 76.458855,228.005402 
	C86.051521,227.691223 95.221008,227.858673 104.288025,226.974930 
	C128.235596,224.640747 150.674957,217.397873 171.764832,205.688797 
	C205.055542,187.205841 229.910156,160.791901 247.023941,126.927437 
	C250.980316,119.098663 250.883789,118.949303 242.742935,114.859909 
	C241.967819,114.129135 241.447510,113.545761 240.930969,112.645546 
	C240.954605,111.906891 240.974472,111.485077 240.994354,111.063263 
z"/>
<path fill="#2D8AC8" opacity="1.000000" stroke="none" 
	d="
M73.895584,159.057632 
	C73.975479,158.177811 74.055374,157.297989 74.977318,156.577820 
	C86.543274,159.229431 97.251205,158.350845 107.861977,156.210892 
	C134.521820,150.834183 156.109177,137.082703 172.669250,115.655518 
	C180.208054,105.901031 186.144333,95.140602 189.359314,83.027573 
	C192.121979,84.411293 194.546677,85.721931 196.974777,87.427856 
	C193.867874,102.412918 186.175018,114.778297 176.584412,125.635986 
	C149.957764,155.780487 116.646477,170.525742 75.992783,166.574768 
	C75.288849,163.781891 74.592216,161.419769 73.895584,159.057632 
z"/>
<path fill="#3591CC" opacity="1.000000" stroke="none" 
	d="
M189.021362,82.954506 
	C186.144333,95.140602 180.208054,105.901031 172.669250,115.655518 
	C156.109177,137.082703 134.521820,150.834183 107.861977,156.210892 
	C97.251205,158.350845 86.543274,159.229431 75.324768,156.546768 
	C74.830162,156.356064 74.819061,156.295837 75.148354,155.776382 
	C75.661263,153.167252 75.844887,151.077576 76.435318,149.071274 
	C86.241753,149.020905 95.948334,150.369125 104.987816,148.496750 
	C144.002060,140.415543 170.081818,117.342026 182.369202,79.008766 
	C184.814865,80.366325 186.918121,81.660416 189.021362,82.954506 
z"/>
<path fill="#2A446F" opacity="1.000000" stroke="none" 
	d="
M155.003998,223.019470 
	C173.883606,211.537964 192.763199,200.056458 212.191788,188.273041 
	C222.736725,182.131073 232.735336,176.295593 242.718964,170.434586 
	C243.126816,170.195129 243.460876,169.756302 243.715729,169.340698 
	C250.296906,158.608109 257.128082,148.016891 263.345001,137.076752 
	C268.032196,128.828583 267.461975,128.057373 258.475189,124.338379 
	C258.021027,124.150429 257.511780,124.095650 257.028168,123.978859 
	C256.068359,122.494896 255.108536,121.010941 254.121292,119.189362 
	C258.944275,121.685104 263.794708,124.518463 268.900208,127.957771 
	C270.212128,129.776215 271.062378,131.317108 272.366058,132.137451 
	C275.791870,134.293137 276.173187,136.768066 274.027069,140.037796 
	C273.029816,141.557129 272.356659,143.289658 271.541901,144.928177 
	C267.811859,152.429474 263.810669,159.586868 255.486053,163.186279 
	C253.643997,163.982742 252.506699,166.409119 251.044891,168.084991 
	C237.012115,176.669724 223.008133,185.302002 208.938629,193.826096 
	C194.354721,202.661819 179.718018,211.410614 165.084869,220.164734 
	C147.961990,230.408295 130.817978,240.616501 113.085129,250.710632 
	C111.389503,250.695602 110.035965,250.435059 109.234001,250.982513 
	C101.482895,256.273834 92.638382,255.922394 83.910767,255.975433 
	C75.402199,256.027161 74.815872,255.292374 75.583305,247.039688 
	C85.713997,246.997864 95.462219,246.951279 105.203735,246.671280 
	C114.476738,246.404755 122.944405,243.704849 130.606491,238.253799 
	C135.598846,234.702087 141.006897,231.735168 146.224075,228.498764 
	C149.155609,226.680206 152.077667,224.846390 155.003998,223.019470 
z"/>
<path fill="#49A1D5" opacity="1.000000" stroke="none" 
	d="
M160.646835,63.799782 
	C160.823669,63.813911 161.000488,63.828041 161.568726,64.402916 
	C164.641693,66.971817 167.323227,68.979973 169.934753,71.366837 
	C162.513535,99.623207 145.813782,119.396591 119.024429,130.446823 
	C105.127563,136.179077 90.772888,137.462723 76.007607,134.550873 
	C75.998337,131.401077 75.996506,128.701248 76.415512,126.027466 
	C84.119087,126.306015 91.579323,127.704277 98.653221,126.608498 
	C126.182877,122.344025 145.959106,107.227142 156.997543,81.552521 
	C159.334579,76.116730 159.487564,69.741936 160.646835,63.799782 
z"/>
<path fill="#E2A244" opacity="1.000000" stroke="none" 
	d="
M327.010040,272.978760 
	C331.048767,272.983246 335.087494,272.987701 339.496033,273.373291 
	C334.308350,297.405426 320.154602,312.981476 296.212646,318.182800 
	C288.490967,319.860321 280.175659,318.805420 272.101990,318.517120 
	C271.575317,315.033844 271.078644,312.033936 270.581970,309.034027 
	C270.467224,308.413910 270.352478,307.793823 270.996033,307.002686 
	C282.040619,308.176270 292.271698,308.599243 302.010437,304.133606 
	C315.520203,297.938751 324.484253,288.023315 327.010040,272.978760 
z"/>
<path fill="#51A9DA" opacity="1.000000" stroke="none" 
	d="
M160.616104,63.733837 
	C159.487564,69.741936 159.334579,76.116730 156.997543,81.552521 
	C145.959106,107.227142 126.182877,122.344025 98.653221,126.608498 
	C91.579323,127.704277 84.119087,126.306015 76.406929,125.577972 
	C75.969055,122.412415 75.960587,119.722397 76.347717,117.095757 
	C80.499023,117.772362 84.268356,118.986404 88.008263,118.901672 
	C112.962776,118.336395 132.636856,107.824684 145.186996,86.071129 
	C149.394058,78.778900 151.135788,70.064362 154.377594,62.079323 
	C156.452332,62.503338 158.153870,62.847980 159.855392,63.192627 
	C160.098724,63.351048 160.342041,63.509472 160.616104,63.733837 
z"/>
<path fill="#5A5A5A" opacity="1.000000" stroke="none" 
	d="
M70.206238,149.771347 
	C50.453690,149.771347 30.701145,149.771347 10.481546,149.771347 
	C10.481546,145.020233 10.481546,140.346710 10.481546,135.265915 
	C30.139952,135.265915 49.681042,135.265915 69.749725,135.668854 
	C71.522858,136.985931 72.768394,137.900070 74.051239,139.271286 
	C74.070724,141.866196 74.052902,144.003998 73.696823,146.150055 
	C72.307785,147.362656 71.257011,148.567001 70.206238,149.771347 
z"/>
<path fill="#E6933C" opacity="1.000000" stroke="none" 
	d="
M349.995117,273.014801 
	C351.325958,273.012695 352.659180,273.061340 353.987183,272.998657 
	C357.515869,272.832092 358.076355,274.358704 357.374847,277.649017 
	C350.824524,308.372894 328.430389,330.854614 297.559723,336.422241 
	C289.875153,337.808167 281.772736,336.877502 273.422577,337.018127 
	C272.400513,336.983032 271.818268,336.941437 270.798248,336.885376 
	C270.303101,334.554443 270.245697,332.237946 270.701508,329.471619 
	C271.516174,328.995087 271.817688,328.968384 272.555481,328.958496 
	C279.416809,329.005768 285.911926,329.665283 292.255096,328.959534 
	C322.553406,325.588531 344.993652,303.653992 349.995117,273.014801 
z"/>
<path fill="#E5AE4A" opacity="1.000000" stroke="none" 
	d="
M326.541748,272.965576 
	C324.484253,288.023315 315.520203,297.938751 302.010437,304.133606 
	C292.271698,308.599243 282.040619,308.176270 271.163788,306.723175 
	C270.445831,301.708008 270.318451,296.801392 270.717224,291.469727 
	C271.541473,291.027344 271.839569,291.010010 272.479858,291.158997 
	C280.795776,293.581329 288.838409,294.271820 296.494476,290.571594 
	C304.280243,286.808685 310.517944,281.416382 312.486938,272.126709 
	C314.694275,271.603546 316.378540,271.121277 318.062836,270.638977 
	C318.376801,270.618195 318.690796,270.597412 319.053101,270.608948 
	C321.425446,271.411591 323.749451,272.181976 326.541748,272.965576 
z"/>
<path fill="#58B0DE" opacity="1.000000" stroke="none" 
	d="
M154.004379,61.999947 
	C151.135788,70.064362 149.394058,78.778900 145.186996,86.071129 
	C132.636856,107.824684 112.962776,118.336395 88.008263,118.901672 
	C84.268356,118.986404 80.499023,117.772362 76.012749,117.076553 
	C74.834389,117.008301 74.386581,117.022629 73.938782,117.036957 
	C73.876144,115.628777 73.813507,114.220604 74.199059,112.320251 
	C75.112061,110.880554 75.576866,109.933029 76.442825,109.014282 
	C85.010460,111.580734 93.220749,111.273140 101.437035,109.357513 
	C126.728943,103.460754 143.686646,83.522644 146.311432,57.141266 
	C149.079712,58.859951 151.542038,60.429947 154.004379,61.999947 
z"/>
<path fill="#6E1F18" opacity="1.000000" stroke="none" 
	d="
M490.624786,424.930664 
	C490.701508,445.737488 490.749176,466.544495 490.886963,487.350922 
	C490.907104,490.392883 489.296814,490.882935 486.778839,490.877686 
	C459.139069,490.820007 431.499207,490.813385 403.411072,490.384430 
	C403.003601,489.346771 403.044403,488.717590 403.545044,488.079468 
	C410.337219,488.055237 416.669556,488.040009 423.299194,488.212311 
	C429.065369,488.269348 434.534241,488.138885 440.471497,488.011505 
	C446.939423,488.009003 452.944672,488.148468 458.934967,487.911133 
	C460.775879,487.838226 462.961426,487.188446 464.329193,486.026184 
	C470.911652,480.432739 477.143158,474.424469 483.758789,468.872803 
	C486.991699,466.159882 488.414001,463.236694 488.085968,458.996674 
	C487.727142,454.358307 488.007324,449.670471 488.010956,444.539154 
	C488.013855,439.718903 488.014832,435.363678 488.019836,430.581665 
	C488.029633,428.452606 488.035400,426.750366 488.365112,425.038574 
	C489.334290,424.996246 489.979523,424.963470 490.624786,424.930664 
z"/>
<path fill="#3C3B3B" opacity="1.000000" stroke="none" 
	d="
M365.972412,239.404999 
	C368.016083,239.437439 370.283569,239.427902 372.154755,240.284225 
	C381.479401,244.551605 390.677643,243.644119 399.951538,240.214233 
	C401.445831,239.661591 403.130920,239.624817 405.132812,239.523422 
	C401.505402,246.702652 397.549744,253.754791 393.347046,260.656494 
	C392.798523,261.557312 391.019287,261.862457 389.744019,262.142365 
	C380.807373,264.103760 375.890991,259.831055 372.801422,251.783218 
	C371.170044,247.533875 368.315704,243.754044 365.972412,239.404999 
z"/>
<path fill="#2B385D" opacity="1.000000" stroke="none" 
	d="
M75.197906,246.932922 
	C74.815872,255.292374 75.402199,256.027161 83.910767,255.975433 
	C92.638382,255.922394 101.482895,256.273834 109.234001,250.982513 
	C110.035965,250.435059 111.389503,250.695602 112.742264,250.794922 
	C100.190140,258.953064 87.382874,266.897491 73.659721,275.410034 
	C73.659721,265.055969 73.659721,255.869141 74.146591,246.330582 
	C74.633469,245.978851 75.119926,245.963684 75.131119,246.206665 
	C75.142311,246.449646 75.197906,246.932922 75.197906,246.932922 
z"/>
<path fill="#2B385D" opacity="1.000000" stroke="none" 
	d="
M251.391830,168.015381 
	C252.506699,166.409119 253.643997,163.982742 255.486053,163.186279 
	C263.810669,159.586868 267.811859,152.429474 271.541901,144.928177 
	C272.356659,143.289658 273.029816,141.557129 274.027069,140.037796 
	C276.173187,136.768066 275.791870,134.293137 272.366058,132.137451 
	C271.062378,131.317108 270.212128,129.776215 269.116669,128.211823 
	C273.849365,130.352661 278.620605,132.845383 283.757935,135.489685 
	C286.778595,137.970108 289.433167,140.298965 292.382599,142.886475 
	C289.463654,144.956818 286.559418,147.016739 283.457703,149.293243 
	C272.753082,155.655136 262.245911,161.800446 251.391830,168.015381 
z"/>
<path fill="#49A1D5" opacity="1.000000" stroke="none" 
	d="
M154.377594,62.079319 
	C151.542038,60.429947 149.079712,58.859951 146.077179,56.899097 
	C141.056030,53.978458 136.575073,51.448677 132.094101,48.918892 
	C113.832458,37.686798 95.570816,26.454700 76.963631,15.010072 
	C76.075073,19.622030 75.387489,23.190859 74.326248,26.873592 
	C73.586296,21.760033 73.220009,16.532568 72.776581,10.204149 
	C75.752495,11.666972 77.826309,12.505712 79.719711,13.644433 
	C104.221054,28.379932 128.708435,43.138805 153.159180,57.958023 
	C155.386093,59.307713 157.336441,61.113754 159.635300,62.950253 
	C158.153870,62.847980 156.452332,62.503338 154.377594,62.079319 
z"/>
<path fill="#A12607" opacity="1.000000" stroke="none" 
	d="
M490.420654,368.542236 
	C489.550354,366.928101 488.773224,364.884064 487.995270,361.950623 
	C487.991882,356.372559 487.989349,351.683929 487.990662,346.527100 
	C487.995697,338.705933 487.996857,331.352966 488.001678,323.531616 
	C488.004913,316.708954 488.004486,310.354736 488.008301,303.531799 
	C488.016418,295.093994 488.024872,287.124817 488.022888,279.155670 
	C488.021088,271.983765 488.016022,271.983765 480.571869,272.046814 
	C478.767487,272.045898 477.378754,272.062012 475.571350,272.061218 
	C473.751526,272.034729 472.350433,272.025146 470.938049,271.586121 
	C470.921143,270.870331 470.915497,270.584015 470.909882,270.297668 
	C477.347473,270.297668 483.785095,270.297668 490.513824,270.297668 
	C490.513824,303.060394 490.513824,335.586334 490.420654,368.542236 
z"/>
<path fill="#C3511D" opacity="1.000000" stroke="none" 
	d="
M272.074677,444.934082 
	C271.672852,444.923370 271.271057,444.912659 270.567780,444.903931 
	C270.208984,419.229187 270.151611,393.552490 270.193726,367.414001 
	C270.891815,369.025269 271.490448,371.098328 272.076294,374.039551 
	C272.087585,378.266022 272.111694,381.624298 272.102386,385.409882 
	C272.371246,388.892670 272.673523,391.948151 272.972107,395.447510 
	C272.974670,398.261688 272.980896,400.632080 272.982849,403.452209 
	C272.985046,406.600494 272.991547,409.299042 272.994324,412.447449 
	C272.995117,415.596008 272.999634,418.294678 273.000549,421.422058 
	C272.999176,423.565155 273.001434,425.279541 273.000549,427.422577 
	C272.998688,429.564240 272.999939,431.277252 272.998322,433.434631 
	C272.996155,436.246979 272.996857,438.614960 272.991882,441.335815 
	C272.682404,442.770477 272.378540,443.852295 272.074677,444.934082 
z"/>
<path fill="#E6933C" opacity="1.000000" stroke="none" 
	d="
M272.137634,290.992676 
	C271.839569,291.010010 271.541473,291.027344 270.795593,291.048737 
	C270.347748,284.275635 270.347748,277.498474 270.347748,270.193787 
	C286.041718,270.193787 301.741852,270.193787 317.752411,270.416382 
	C316.378540,271.121277 314.694275,271.603546 312.023407,272.085388 
	C299.579559,272.053589 288.121307,272.097137 276.665649,271.944611 
	C273.284607,271.899628 271.803772,273.037201 271.965820,276.550659 
	C272.187561,281.357086 272.095306,286.177979 272.137634,290.992676 
z"/>
<path fill="#2E7AAF" opacity="1.000000" stroke="none" 
	d="
M170.004776,70.988129 
	C167.323227,68.979973 164.641693,66.971817 161.796677,64.540199 
	C163.284012,64.691010 165.088318,65.006744 166.560959,65.881096 
	C176.925140,72.034683 187.221069,78.303268 197.757507,84.790588 
	C197.984344,85.476425 197.992462,85.906792 197.745255,86.671753 
	C197.317062,87.015083 197.144211,87.023827 196.971375,87.032570 
	C194.546677,85.721931 192.121979,84.411293 189.359314,83.027573 
	C186.918121,81.660416 184.814865,80.366325 182.187988,78.732697 
	C179.777512,77.258446 177.890671,76.123726 175.723038,74.821762 
	C173.629761,73.432388 171.817276,72.210258 170.004776,70.988129 
z"/>
<path fill="#C3511D" opacity="1.000000" stroke="none" 
	d="
M393.995514,272.129639 
	C391.797455,272.029602 389.599426,271.929596 386.929688,271.740417 
	C388.042938,271.107300 389.624023,270.105255 391.213379,270.091980 
	C403.835236,269.986969 416.458710,270.069855 429.633728,270.435486 
	C430.790741,271.183899 431.395660,271.591888 432.000244,272.249878 
	C431.999908,272.499847 431.999573,272.999695 431.555573,272.995453 
	C428.741852,272.989899 426.372162,272.988617 423.558105,272.983643 
	C420.743927,272.978516 418.374146,272.977051 415.550293,272.969849 
	C412.073181,272.957428 409.050079,272.950714 405.682251,272.724243 
	C401.556854,272.379547 397.776184,272.254578 393.995514,272.129639 
z"/>
<path fill="#8D2515" opacity="1.000000" stroke="none" 
	d="
M490.686829,424.470367 
	C489.979523,424.963470 489.334290,424.996246 488.349823,424.565430 
	C488.006256,418.402069 488.001923,412.702240 487.997559,407.002441 
	C488.005127,403.398560 487.848999,399.783112 488.102203,396.196594 
	C488.201111,394.795837 489.220276,393.460052 490.182373,392.028778 
	C490.612640,402.645264 490.680756,413.327637 490.686829,424.470367 
z"/>
<path fill="#C43C0D" opacity="1.000000" stroke="none" 
	d="
M432.000580,271.999908 
	C431.395660,271.591888 430.790741,271.183899 430.098877,270.502014 
	C443.371887,270.213531 456.731842,270.198944 470.500854,270.241028 
	C470.915497,270.584015 470.921143,270.870331 470.661041,271.635071 
	C469.928467,272.412842 469.461700,272.712219 468.550964,273.009766 
	C465.737213,273.006927 463.367371,273.005890 460.560394,273.002838 
	C458.082550,273.000122 456.041901,272.999451 453.619385,272.977661 
	C451.485870,272.672577 449.734192,272.388550 447.545685,272.088013 
	C445.065308,272.083527 443.021790,272.095520 440.535828,272.089966 
	C437.729065,272.048798 435.364685,272.025208 432.750305,272.000732 
	C432.500305,271.999908 432.000580,271.999908 432.000580,271.999908 
z"/>
<path fill="#2D8AC8" opacity="1.000000" stroke="none" 
	d="
M73.763634,117.399292 
	C74.386581,117.022629 74.834389,117.008301 75.617157,117.013176 
	C75.960587,119.722397 75.969055,122.412415 75.986099,125.551933 
	C75.996506,128.701248 75.998337,131.401077 75.999008,134.987915 
	C76.006271,137.914658 76.014679,139.954346 76.017090,142.431473 
	C76.016891,144.908569 76.022697,146.948227 76.028503,148.987900 
	C75.844887,151.077576 75.661263,153.167252 75.153305,155.744308 
	C74.411522,154.372910 73.994072,152.514130 73.742027,150.004517 
	C73.949982,148.283051 73.992531,147.212433 74.035080,146.141815 
	C74.052902,144.003998 74.070724,141.866196 74.088547,138.958038 
	C73.905342,137.156158 73.722137,136.124619 73.538940,135.093079 
	C73.555450,129.315933 73.571968,123.538780 73.763634,117.399292 
z"/>
<path fill="#8D2515" opacity="1.000000" stroke="none" 
	d="
M403.085175,488.088440 
	C403.044403,488.717590 403.003601,489.346771 402.947327,490.288940 
	C396.243958,490.633118 389.556122,490.664276 382.407959,490.581177 
	C383.571777,489.647858 385.120331,488.522491 386.841766,488.097626 
	C388.499268,487.688538 390.335510,488.003693 393.002350,488.001648 
	C396.969391,488.031250 400.027283,488.059845 403.085175,488.088440 
z"/>
<path fill="#49A1D5" opacity="1.000000" stroke="none" 
	d="
M76.041679,108.985512 
	C75.576866,109.933029 75.112061,110.880554 74.322144,111.913361 
	C73.871925,104.301758 73.746811,96.604866 73.793053,88.469452 
	C74.648643,90.069351 75.332886,92.107765 76.004570,95.030960 
	C76.008568,100.272324 76.025124,104.628914 76.041679,108.985512 
z"/>
<path fill="#225287" opacity="1.000000" stroke="none" 
	d="
M73.777016,206.515549 
	C74.575279,207.451294 75.277153,208.842300 75.981522,211.074921 
	C75.995430,214.940964 76.006836,217.965408 76.012878,221.420731 
	C75.996849,223.577637 75.986183,225.303650 75.714462,226.900711 
	C74.924828,226.526413 74.396248,226.281052 73.867676,226.035706 
	C73.805321,219.680740 73.742973,213.325775 73.777016,206.515549 
z"/>
<path fill="#2A446F" opacity="1.000000" stroke="none" 
	d="
M73.796890,226.496613 
	C74.396248,226.281052 74.924828,226.526413 75.717209,227.145111 
	C75.981026,227.518448 75.988968,228.007889 75.988968,228.007889 
	C75.990807,230.048111 75.992645,232.088318 75.995026,235.016632 
	C75.703682,239.257706 75.411804,242.610687 75.119926,245.963684 
	C75.119926,245.963684 74.633469,245.978851 74.392563,246.003967 
	C74.009811,239.671906 73.867950,233.314728 73.796890,226.496613 
z"/>
<path fill="#E5762E" opacity="1.000000" stroke="none" 
	d="
M272.119202,328.941650 
	C271.817688,328.968384 271.516174,328.995087 270.761017,329.040710 
	C270.270386,322.599762 270.233429,316.139832 270.389221,309.356995 
	C271.078644,312.033936 271.575317,315.033844 272.062317,318.969238 
	C272.074768,322.917053 272.096985,325.929352 272.119202,328.941650 
z"/>
<path fill="#156BAF" opacity="1.000000" stroke="none" 
	d="
M73.761909,159.504395 
	C74.592216,161.419769 75.288849,163.781891 75.984818,167.028229 
	C75.999046,170.942642 76.013931,173.972839 75.780113,177.010986 
	C75.531403,177.018936 75.033951,177.033630 75.013474,177.017334 
	C74.993004,177.001053 74.951752,176.968872 74.807312,176.778229 
	C74.440056,176.356430 74.196213,176.150146 73.931328,175.968735 
	C73.830299,170.629532 73.729271,165.290344 73.761909,159.504395 
z"/>
<path fill="#58B0DE" opacity="1.000000" stroke="none" 
	d="
M73.832092,62.295387 
	C76.989365,66.708183 74.584625,71.577278 74.239975,76.682755 
	C73.869148,72.188225 73.761299,67.377579 73.832092,62.295387 
z"/>
<path fill="#58B0DE" opacity="1.000000" stroke="none" 
	d="
M73.807335,40.354164 
	C74.161079,43.321445 74.345215,46.640816 74.279922,50.424049 
	C73.899567,47.494026 73.768646,44.100143 73.807335,40.354164 
z"/>
<path fill="#2A446F" opacity="1.000000" stroke="none" 
	d="
M73.696823,146.150055 
	C73.992531,147.212433 73.949982,148.283051 73.723618,149.620483 
	C72.700691,149.888412 71.861595,149.889511 70.614365,149.830963 
	C71.257011,148.567001 72.307785,147.362656 73.696823,146.150055 
z"/>
<path fill="#2A446F" opacity="1.000000" stroke="none" 
	d="
M73.112350,135.134613 
	C73.722137,136.124619 73.905342,137.156158 74.051239,138.500946 
	C72.768394,137.900070 71.522858,136.985931 70.218330,135.770996 
	C71.001488,135.372177 71.843636,135.274170 73.112350,135.134613 
z"/>
<path fill="#6E1F18" opacity="1.000000" stroke="none" 
	d="
M489.138428,386.048553 
	C488.988678,386.039764 488.815918,386.000183 488.386658,385.894775 
	C488.327881,384.365845 488.525543,382.902771 488.950348,381.145142 
	C489.177490,380.850616 489.158295,380.941925 489.097656,381.328461 
	C489.393646,382.637604 489.750275,383.560181 490.106903,384.482788 
	C490.106903,384.482788 490.086395,384.496307 489.908325,384.763000 
	C489.501556,385.368500 489.272797,385.707306 489.044067,386.046112 
	C489.044067,386.046112 489.115448,386.017792 489.138428,386.048553 
z"/>
<path fill="#1964A4" opacity="1.000000" stroke="none" 
	d="
M240.802307,110.868393 
	C240.974472,111.485077 240.954605,111.906891 240.646698,112.570320 
	C239.897293,112.217880 239.435898,111.623833 238.974487,111.029785 
	C238.974487,111.029785 239.279190,110.666954 239.440628,110.489723 
	C239.938141,110.432838 240.274216,110.553177 240.802307,110.868393 
z"/>
<path fill="#8D2515" opacity="1.000000" stroke="none" 
	d="
M490.259705,384.074005 
	C489.750275,383.560181 489.393646,382.637604 489.052521,381.340210 
	C489.516205,381.865387 489.964355,382.765289 490.259705,384.074005 
z"/>
<path fill="#156BAF" opacity="1.000000" stroke="none" 
	d="
M75.038612,179.969223 
	C74.837997,179.976974 74.637390,179.984741 74.135719,180.006302 
	C73.787521,179.260803 73.740372,178.501541 74.068016,177.362610 
	C74.612457,176.978271 74.782104,176.973572 74.951752,176.968872 
	C74.951752,176.968872 74.993004,177.001053 75.011230,177.383881 
	C75.032509,178.500870 75.035561,179.235046 75.038612,179.969223 
z"/>
<path fill="#8D2515" opacity="1.000000" stroke="none" 
	d="
M489.411499,385.978638 
	C489.272797,385.707306 489.501556,385.368500 489.900818,384.772705 
	C489.973877,384.980896 489.876373,385.446014 489.411499,385.978638 
z"/>
<path fill="#1B7ABF" opacity="1.000000" stroke="none" 
	d="
M74.807312,176.778229 
	C74.782104,176.973572 74.612457,176.978271 74.188683,176.998825 
	C73.892479,176.840515 73.850395,176.666351 73.869827,176.230469 
	C74.196213,176.150146 74.440056,176.356430 74.807312,176.778229 
z"/>
<path fill="#5FB6E2" opacity="1.000000" stroke="none" 
	d="
M76.442825,109.014282 
	C76.025124,104.628914 76.008568,100.272324 76.010727,95.449707 
	C91.646599,100.198441 105.749947,97.533699 118.063667,86.568321 
	C129.060776,76.775398 133.912415,64.511787 132.069473,49.341423 
	C136.575073,51.448677 141.056030,53.978458 145.771255,56.750404 
	C143.686646,83.522644 126.728943,103.460754 101.437035,109.357513 
	C93.220749,111.273140 85.010460,111.580734 76.442825,109.014282 
z"/>
<path fill="#B42C03" opacity="1.000000" stroke="none" 
	d="
M487.986786,346.995270 
	C487.989349,351.683929 487.991882,356.372559 487.992065,361.526489 
	C485.811920,365.025970 483.291168,367.872467 481.511414,371.124542 
	C468.514771,394.872498 451.842621,415.562775 431.336731,433.290344 
	C399.151489,461.114899 362.060760,478.213379 320.197083,485.247772 
	C318.159912,485.590027 316.235443,486.602966 314.125183,487.646423 
	C302.013428,487.991730 290.032806,487.866852 278.057709,488.068726 
	C274.091095,488.135590 272.493713,486.725433 273.467468,482.427521 
	C287.533569,481.266724 301.256561,481.460846 314.697693,479.609100 
	C341.946136,475.855103 367.780151,467.338776 391.799255,453.626740 
	C416.060516,439.776550 436.866180,421.963531 454.501007,400.309174 
	C466.579926,385.477081 475.921570,369.044952 484.133209,351.873291 
	C485.005157,350.049957 486.682861,348.612000 487.986786,346.995270 
z"/>
<path fill="#E76D28" opacity="1.000000" stroke="none" 
	d="
M393.996216,272.567749 
	C397.776184,272.254578 401.556854,272.379547 405.673706,273.164337 
	C405.679321,276.455627 405.470978,279.109192 404.999939,281.715271 
	C396.482361,328.843750 370.021088,361.185547 325.241119,378.416351 
	C308.082092,385.018921 290.186951,385.619965 272.135803,384.982605 
	C272.111694,381.624298 272.087585,378.266022 272.100220,374.450012 
	C287.180359,374.500366 302.035980,373.582672 316.568848,369.124634 
	C334.625275,363.585693 350.045410,353.959900 363.287537,340.537903 
	C379.739594,323.862396 389.543335,303.907135 393.470123,280.951752 
	C393.915314,278.349243 393.834076,275.656708 393.996216,272.567749 
z"/>
<path fill="#E78032" opacity="1.000000" stroke="none" 
	d="
M273.008423,351.458801 
	C288.216187,351.424805 303.314911,351.234589 317.639099,344.972382 
	C347.157715,332.067566 365.029816,309.895355 371.057922,278.217590 
	C371.337585,276.747925 371.653625,275.285187 371.978119,273.413330 
	C383.121796,272.985077 383.121765,272.985077 380.757355,284.057190 
	C372.354828,323.405182 340.615875,354.056366 300.944977,360.655212 
	C293.796936,361.844238 286.394623,361.427338 279.136139,362.056763 
	C274.336121,362.473022 272.314117,360.733276 272.975647,355.904358 
	C273.154449,354.599030 273.003723,353.248535 273.008423,351.458801 
z"/>
<path fill="#BE370A" opacity="1.000000" stroke="none" 
	d="
M480.987549,272.063873 
	C488.016022,271.983765 488.021088,271.983765 488.022888,279.155670 
	C488.024872,287.124817 488.016418,295.093994 487.667969,303.647339 
	C485.935638,308.234589 484.286346,312.168091 483.200226,316.251434 
	C471.236755,361.228973 446.532074,397.779572 410.045441,426.388733 
	C385.578339,445.573395 357.889984,458.009338 327.520233,464.685730 
	C309.190369,468.715271 290.666565,469.419861 272.023926,468.996399 
	C272.012482,466.297821 272.001038,463.599274 272.464966,460.450928 
	C286.365509,459.358215 299.913452,459.647644 313.193115,457.899292 
	C354.758423,452.426788 390.514862,434.245819 420.786713,405.548340 
	C439.796112,387.527618 454.513885,366.231323 464.925446,342.104462 
	C474.570740,319.753174 479.948029,296.400146 480.987549,272.063873 
z"/>
<path fill="#CC4512" opacity="1.000000" stroke="none" 
	d="
M460.997559,273.004883 
	C463.367371,273.005890 465.737213,273.006927 468.552612,273.451721 
	C467.179077,285.866913 466.381561,298.103882 463.351532,309.760590 
	C453.813934,346.452515 434.801880,377.446716 406.094452,402.587585 
	C383.164032,422.669189 356.946533,435.929138 327.565643,443.323059 
	C309.323639,447.913788 290.738373,448.497223 272.064514,447.992279 
	C272.056549,447.228668 272.048553,446.465057 272.057617,445.317749 
	C272.378540,443.852295 272.682404,442.770477 273.460754,441.341187 
	C282.056549,440.668915 290.179199,440.374908 298.298828,440.013428 
	C319.521576,439.068512 339.616913,433.398560 358.740173,424.536072 
	C391.586365,409.313843 417.553833,386.140045 436.248596,355.080383 
	C451.431122,329.856049 460.252380,302.626007 460.997559,273.004883 
z"/>
<path fill="#B83106" opacity="1.000000" stroke="none" 
	d="
M487.990662,346.527100 
	C486.682861,348.612000 485.005157,350.049957 484.133209,351.873291 
	C475.921570,369.044952 466.579926,385.477081 454.501007,400.309174 
	C436.866180,421.963531 416.060516,439.776550 391.799255,453.626740 
	C367.780151,467.338776 341.946136,475.855103 314.697693,479.609100 
	C301.256561,481.460846 287.533569,481.266724 273.469666,481.997955 
	C272.672760,479.606262 272.344299,477.214966 272.487366,474.410950 
	C288.043701,473.145538 303.238068,473.151794 318.188507,471.245300 
	C342.552948,468.138306 365.233734,459.403137 386.749390,447.630463 
	C413.311646,433.096527 435.291962,413.298218 453.448151,389.212463 
	C466.474335,371.932037 476.284393,352.901794 483.438324,332.469849 
	C484.484924,329.480865 486.455170,326.815247 487.998047,324.000000 
	C487.996857,331.352966 487.995697,338.705933 487.990662,346.527100 
z"/>
<path fill="#C7400F" opacity="1.000000" stroke="none" 
	d="
M272.042908,448.430145 
	C290.738373,448.497223 309.323639,447.913788 327.565643,443.323059 
	C356.946533,435.929138 383.164032,422.669189 406.094452,402.587585 
	C434.801880,377.446716 453.813934,346.452515 463.351532,309.760590 
	C466.381561,298.103882 467.179077,285.866913 468.996552,273.453522 
	C469.461700,272.712219 469.928467,272.412842 470.672302,272.064514 
	C472.350433,272.025146 473.751526,272.034729 475.566406,272.477997 
	C475.662903,274.878693 475.154449,276.836334 475.057343,278.814117 
	C473.846344,303.487518 466.823090,326.647430 456.068817,348.644958 
	C444.374115,372.566071 427.927856,392.875519 407.554962,410.097443 
	C388.475220,426.226257 367.062653,437.960205 343.383636,445.725433 
	C320.173737,453.336853 296.295532,455.719299 272.008789,455.000000 
	C272.012970,452.955994 272.017120,450.912018 272.042908,448.430145 
z"/>
<path fill="#C43C0D" opacity="1.000000" stroke="none" 
	d="
M271.998291,455.416656 
	C296.295532,455.719299 320.173737,453.336853 343.383636,445.725433 
	C367.062653,437.960205 388.475220,426.226257 407.554962,410.097443 
	C427.927856,392.875519 444.374115,372.566071 456.068817,348.644958 
	C466.823090,326.647430 473.846344,303.487518 475.057343,278.814117 
	C475.154449,276.836334 475.662903,274.878693 475.985107,272.494934 
	C477.378754,272.062012 478.767487,272.045898 480.571869,272.046814 
	C479.948029,296.400146 474.570740,319.753174 464.925446,342.104462 
	C454.513885,366.231323 439.796112,387.527618 420.786713,405.548340 
	C390.514862,434.245819 354.758423,452.426788 313.193115,457.899292 
	C299.913452,459.647644 286.365509,459.358215 272.472076,460.001221 
	C271.998505,458.611908 271.993164,457.222626 271.998291,455.416656 
z"/>
<path fill="#9B260D" opacity="1.000000" stroke="none" 
	d="
M403.545044,488.079468 
	C400.027283,488.059845 396.969391,488.031250 393.456543,487.999512 
	C394.186371,486.738434 395.141785,485.033844 396.590515,484.289948 
	C416.770233,473.928497 435.665009,461.620453 451.730438,445.569519 
	C462.933777,434.376282 473.103882,422.149841 483.765381,410.411987 
	C484.845062,409.223358 486.130280,408.221405 487.658813,407.067627 
	C488.001923,412.702240 488.006256,418.402069 488.025909,424.575012 
	C488.035400,426.750366 488.029633,428.452606 487.679077,430.642212 
	C486.412231,431.795502 485.301544,432.304108 484.596039,433.150452 
	C470.627472,449.907074 454.587158,464.392395 436.889923,477.110779 
	C432.113190,480.543671 427.623383,484.375885 423.001862,488.024811 
	C416.669556,488.040009 410.337219,488.055237 403.545044,488.079468 
z"/>
<path fill="#BB3408" opacity="1.000000" stroke="none" 
	d="
M488.001709,323.531616 
	C486.455170,326.815247 484.484924,329.480865 483.438324,332.469849 
	C476.284393,352.901794 466.474335,371.932037 453.448151,389.212463 
	C435.291962,413.298218 413.311646,433.096527 386.749390,447.630463 
	C365.233734,459.403137 342.552948,468.138306 318.188507,471.245300 
	C303.238068,473.151794 288.043701,473.145538 272.493347,473.996643 
	C272.020782,472.606659 272.013733,471.218292 272.015320,469.413147 
	C290.666565,469.419861 309.190369,468.715271 327.520233,464.685730 
	C357.889984,458.009338 385.578339,445.573395 410.045441,426.388733 
	C446.532074,397.779572 471.236755,361.228973 483.200226,316.251434 
	C484.286346,312.168091 485.935638,308.234589 487.663727,304.115997 
	C488.004486,310.354736 488.004913,316.708954 488.001709,323.531616 
z"/>
<path fill="#E69A40" opacity="1.000000" stroke="none" 
	d="
M272.555481,328.958496 
	C272.096985,325.929352 272.074768,322.917053 272.092255,319.452637 
	C280.175659,318.805420 288.490967,319.860321 296.212646,318.182800 
	C320.154602,312.981476 334.308350,297.405426 339.937805,273.377228 
	C343.035950,273.001831 346.062103,273.003632 349.541687,273.010132 
	C344.993652,303.653992 322.553406,325.588531 292.255096,328.959534 
	C285.911926,329.665283 279.416809,329.005768 272.555481,328.958496 
z"/>
<path fill="#1D5D99" opacity="1.000000" stroke="none" 
	d="
M238.593079,111.024307 
	C239.435898,111.623833 239.897293,112.217880 240.642944,112.887161 
	C241.447510,113.545761 241.967819,114.129135 242.739044,115.256844 
	C242.106659,118.639603 241.621033,121.683571 240.276962,124.283806 
	C229.794281,144.563736 216.364395,162.502380 199.059006,177.633362 
	C184.355057,190.489761 168.133331,200.639420 150.170517,208.087143 
	C126.432869,217.929260 101.681480,222.124374 76.018242,220.989838 
	C76.006836,217.965408 75.995430,214.940964 75.986336,211.463989 
	C94.817848,213.505249 113.099846,210.276703 131.030594,205.064224 
	C158.921432,196.956329 183.015396,182.228760 203.120667,161.284439 
	C216.454880,147.393723 227.226898,131.658630 234.912964,113.894638 
	C235.435715,112.686462 237.085846,111.966072 238.593079,111.024307 
z"/>
<path fill="#1472BA" opacity="1.000000" stroke="none" 
	d="
M76.024559,196.981430 
	C76.016556,193.952942 76.008553,190.924438 76.474327,187.445465 
	C88.543343,186.320724 100.377922,186.898926 111.688942,184.737396 
	C145.638245,178.249802 173.948456,161.530594 194.657288,133.616455 
	C202.601501,122.908134 208.331650,110.557274 215.070694,98.954872 
	C217.518753,100.189301 219.966827,101.423729 222.687378,103.213242 
	C222.453659,105.519806 222.158569,107.367561 221.410217,109.008606 
	C205.107971,144.756531 178.823822,170.365463 142.776367,185.876389 
	C121.472748,195.043167 99.109009,198.290588 76.024559,196.981430 
z"/>
<path fill="#1B7ABF" opacity="1.000000" stroke="none" 
	d="
M214.874573,98.681839 
	C208.331650,110.557274 202.601501,122.908134 194.657288,133.616455 
	C173.948456,161.530594 145.638245,178.249802 111.688942,184.737396 
	C100.377922,186.898926 88.543343,186.320724 76.481026,186.991119 
	C75.835396,184.862457 75.656853,182.737625 75.258461,180.291016 
	C75.035561,179.235046 75.032509,178.500870 75.031708,177.400162 
	C75.033951,177.033630 75.531403,177.018936 76.214607,177.010193 
	C88.051903,179.006378 99.152588,177.552841 109.990791,175.362930 
	C142.961166,168.701035 169.735336,151.838028 189.705383,124.660164 
	C196.797928,115.007698 203.015915,104.765625 206.028152,92.945946 
	C208.911575,94.766891 211.795013,96.587845 214.874573,98.681839 
z"/>
<path fill="#2482C4" opacity="1.000000" stroke="none" 
	d="
M205.799515,92.707733 
	C203.015915,104.765625 196.797928,115.007698 189.705383,124.660164 
	C169.735336,151.838028 142.961166,168.701035 109.990791,175.362930 
	C99.152588,177.552841 88.051903,179.006378 76.463318,177.002258 
	C76.013931,173.972839 75.999046,170.942642 75.992126,167.458954 
	C116.646477,170.525742 149.957764,155.780487 176.584412,125.635986 
	C186.175018,114.778297 193.867874,102.412918 196.974777,87.427856 
	C197.144211,87.023827 197.317062,87.015083 197.749359,86.994507 
	C200.529495,88.811623 203.050186,90.640572 205.799515,92.707733 
z"/>
<path fill="#156BAF" opacity="1.000000" stroke="none" 
	d="
M76.017380,197.408844 
	C99.109009,198.290588 121.472748,195.043167 142.776367,185.876389 
	C178.823822,170.365463 205.107971,144.756531 221.410217,109.008606 
	C222.158569,107.367561 222.453659,105.519806 222.979004,103.385681 
	C229.696350,106.636070 229.943848,106.756561 226.164276,114.519669 
	C214.616898,138.237625 198.588989,158.331390 177.145416,173.904434 
	C155.735092,189.453354 131.880768,199.104706 105.700378,202.706451 
	C98.001358,203.765625 90.126282,203.489990 82.347527,204.045197 
	C77.666786,204.379288 75.335609,202.753601 76.017380,197.408844 
z"/>
<path fill="#205891" opacity="1.000000" stroke="none" 
	d="
M76.012878,221.420731 
	C101.681480,222.124374 126.432869,217.929260 150.170517,208.087143 
	C168.133331,200.639420 184.355057,190.489761 199.059006,177.633362 
	C216.364395,162.502380 229.794281,144.563736 240.276962,124.283806 
	C241.621033,121.683571 242.106659,118.639603 242.993835,115.404251 
	C250.883789,118.949303 250.980316,119.098663 247.023941,126.927437 
	C229.910156,160.791901 205.055542,187.205841 171.764832,205.688797 
	C150.674957,217.397873 128.235596,224.640747 104.288025,226.974930 
	C95.221008,227.858673 86.051521,227.691223 76.458855,228.005402 
	C75.988968,228.007889 75.981026,227.518448 75.978271,227.274048 
	C75.986183,225.303650 75.996849,223.577637 76.012878,221.420731 
z"/>
<path fill="#264D7E" opacity="1.000000" stroke="none" 
	d="
M75.131119,246.206665 
	C75.411804,242.610687 75.703682,239.257706 75.998238,235.453888 
	C101.695953,236.257904 126.577179,232.349045 150.661606,223.300415 
	C151.851013,222.853546 153.205994,222.847443 154.743942,222.827789 
	C152.077667,224.846390 149.155609,226.680206 146.224075,228.498764 
	C141.006897,231.735168 135.598846,234.702087 130.606491,238.253799 
	C122.944405,243.704849 114.476738,246.404755 105.203735,246.671280 
	C95.462219,246.951279 85.713997,246.997864 75.583305,247.039688 
	C75.197906,246.932922 75.142311,246.449646 75.131119,246.206665 
z"/>
<path fill="#264D7E" opacity="1.000000" stroke="none" 
	d="
M256.874512,124.305328 
	C257.511780,124.095650 258.021027,124.150429 258.475189,124.338379 
	C267.461975,128.057373 268.032196,128.828583 263.345001,137.076752 
	C257.128082,148.016891 250.296906,158.608109 243.715729,169.340698 
	C243.460876,169.756302 243.126816,170.195129 242.718964,170.434586 
	C232.735336,176.295593 222.736725,182.131073 212.374359,187.989960 
	C213.579224,185.931961 214.910889,183.607681 216.759598,181.817307 
	C231.813705,167.238358 243.815765,150.429977 253.510178,131.921417 
	C254.739304,129.574768 255.658203,127.065643 256.874512,124.305328 
z"/>
<path fill="#3B97D0" opacity="1.000000" stroke="none" 
	d="
M76.435318,149.071274 
	C76.022697,146.948227 76.016891,144.908569 76.424500,142.512726 
	C86.569641,141.932007 96.667664,143.316132 105.968292,141.198364 
	C142.043564,132.983932 165.602463,110.751549 176.003815,74.989006 
	C177.890671,76.123726 179.777512,77.258446 181.845581,78.669235 
	C170.081818,117.342026 144.002060,140.415543 104.987816,148.496750 
	C95.948334,150.369125 86.241753,149.020905 76.435318,149.071274 
z"/>
<path fill="#429CD3" opacity="1.000000" stroke="none" 
	d="
M175.723038,74.821762 
	C165.602463,110.751549 142.043564,132.983932 105.968292,141.198364 
	C96.667664,143.316132 86.569641,141.932007 76.430504,142.075302 
	C76.014679,139.954346 76.006271,137.914658 76.006454,135.437897 
	C90.772888,137.462723 105.127563,136.179077 119.024429,130.446823 
	C145.813782,119.396591 162.513535,99.623207 169.934753,71.366837 
	C171.817276,72.210258 173.629761,73.432388 175.723038,74.821762 
z"/>
<path fill="#E3BB51" opacity="1.000000" stroke="none" 
	d="
M272.479858,291.158997 
	C272.095306,286.177979 272.187561,281.357086 271.965820,276.550659 
	C271.803772,273.037201 273.284607,271.899628 276.665649,271.944611 
	C288.121307,272.097137 299.579559,272.053589 311.500366,272.126221 
	C310.517944,281.416382 304.280243,286.808685 296.494476,290.571594 
	C288.838409,294.271820 280.795776,293.581329 272.479858,291.158997 
z"/>
<path fill="#84261C" opacity="1.000000" stroke="none" 
	d="
M488.009003,445.004211 
	C488.007324,449.670471 487.727142,454.358307 488.085968,458.996674 
	C488.414001,463.236694 486.991699,466.159882 483.758789,468.872803 
	C477.143158,474.424469 470.911652,480.432739 464.329193,486.026184 
	C462.961426,487.188446 460.775879,487.838226 458.934967,487.911133 
	C452.944672,488.148468 446.939423,488.009003 440.535156,487.671631 
	C441.155548,486.057831 441.955353,484.465179 443.240295,483.565186 
	C457.881531,473.309937 470.796112,461.119446 483.220703,448.352386 
	C484.554901,446.981476 486.400604,446.108276 488.009003,445.004211 
z"/>
<path fill="#8D2515" opacity="1.000000" stroke="none" 
	d="
M488.010956,444.539154 
	C486.400604,446.108276 484.554901,446.981476 483.220703,448.352386 
	C470.796112,461.119446 457.881531,473.309937 443.240295,483.565186 
	C441.955353,484.465179 441.155548,486.057831 440.066742,487.668579 
	C434.534241,488.138885 429.065369,488.269348 423.299194,488.212311 
	C427.623383,484.375885 432.113190,480.543671 436.889923,477.110779 
	C454.587158,464.392395 470.627472,449.907074 484.596039,433.150452 
	C485.301544,432.304108 486.412231,431.795502 487.675018,431.069061 
	C488.014832,435.363678 488.013855,439.718903 488.010956,444.539154 
z"/>
<path fill="#DC551B" opacity="1.000000" stroke="none" 
	d="
M433.000305,272.001587 
	C435.364685,272.025208 437.729065,272.048798 440.541809,272.537750 
	C440.941071,275.829102 441.161957,278.690247 440.799530,281.475494 
	C438.205505,301.410400 432.707672,320.402191 422.980133,338.154755 
	C404.969727,371.023438 378.689941,394.604858 344.209167,409.070099 
	C321.434937,418.624268 297.502289,421.574249 273.004150,420.993347 
	C272.999634,418.294678 272.995117,415.596008 273.463196,412.448181 
	C285.535217,411.338837 297.281769,411.623505 308.706909,409.844177 
	C345.395142,404.130493 375.613068,386.424530 399.289978,357.933960 
	C419.705261,333.368103 430.244019,304.678314 433.000000,272.750732 
	C433.000153,272.501038 433.000305,272.001587 433.000305,272.001587 
z"/>
<path fill="#E15A1E" opacity="1.000000" stroke="none" 
	d="
M432.999878,273.000458 
	C430.244019,304.678314 419.705261,333.368103 399.289978,357.933960 
	C375.613068,386.424530 345.395142,404.130493 308.706909,409.844177 
	C297.281769,411.623505 285.535217,411.338837 273.466919,411.998291 
	C272.991547,409.299042 272.985046,406.600494 273.427734,403.451508 
	C280.480194,403.003693 287.090240,403.201294 293.685425,402.972015 
	C312.457855,402.319214 330.299469,397.354095 346.850677,388.895203 
	C376.223389,373.883484 398.236664,351.390656 411.962189,321.122467 
	C418.909485,305.801849 422.928375,289.767609 424.002441,272.987335 
	C426.372162,272.988617 428.741852,272.989899 431.805756,272.995667 
	C432.499939,273.000153 432.999878,273.000458 432.999878,273.000458 
z"/>
<path fill="#D04914" opacity="1.000000" stroke="none" 
	d="
M460.560394,273.002838 
	C460.252380,302.626007 451.431122,329.856049 436.248596,355.080383 
	C417.553833,386.140045 391.586365,409.313843 358.740173,424.536072 
	C339.616913,433.398560 319.521576,439.068512 298.298828,440.013428 
	C290.179199,440.374908 282.056549,440.668915 273.466431,440.988281 
	C272.996857,438.614960 272.996155,436.246979 273.436157,433.438049 
	C280.312469,433.005707 286.748535,433.067169 293.183624,433.012970 
	C311.554718,432.858246 329.090881,428.570435 346.155121,422.093628 
	C366.646545,414.315948 384.768097,402.713257 400.724731,387.743530 
	C413.552063,375.709503 424.366852,362.076660 432.911194,346.653931 
	C445.619141,323.715698 453.061615,299.294495 454.001221,272.998779 
	C456.041901,272.999451 458.082550,273.000122 460.560394,273.002838 
z"/>
<path fill="#E86424" opacity="1.000000" stroke="none" 
	d="
M272.102386,385.409882 
	C290.186951,385.619965 308.082092,385.018921 325.241119,378.416351 
	C370.021088,361.185547 396.482361,328.843750 404.999939,281.715271 
	C405.470978,279.109192 405.679321,276.455627 406.018463,273.384094 
	C409.050079,272.950714 412.073181,272.957428 415.524536,273.384155 
	C415.656281,275.269684 415.261383,276.722992 415.077606,278.202484 
	C410.796356,312.667450 395.969757,341.574432 369.345276,364.068848 
	C355.480835,375.782593 339.802795,384.250854 322.304413,389.511261 
	C306.134155,394.372375 289.676727,395.501129 272.975800,395.003662 
	C272.673523,391.948151 272.371246,388.892670 272.102386,385.409882 
z"/>
<path fill="#E55F21" opacity="1.000000" stroke="none" 
	d="
M272.972107,395.447510 
	C289.676727,395.501129 306.134155,394.372375 322.304413,389.511261 
	C339.802795,384.250854 355.480835,375.782593 369.345276,364.068848 
	C395.969757,341.574432 410.796356,312.667450 415.077606,278.202484 
	C415.261383,276.722992 415.656281,275.269684 415.978577,273.389893 
	C418.374146,272.977051 420.743927,272.978516 423.558105,272.983643 
	C422.928375,289.767609 418.909485,305.801849 411.962189,321.122467 
	C398.236664,351.390656 376.223389,373.883484 346.850677,388.895203 
	C330.299469,397.354095 312.457855,402.319214 293.685425,402.972015 
	C287.090240,403.201294 280.480194,403.003693 273.432037,403.001740 
	C272.980896,400.632080 272.974670,398.261688 272.972107,395.447510 
z"/>
<path fill="#D75119" opacity="1.000000" stroke="none" 
	d="
M273.000549,421.422058 
	C297.502289,421.574249 321.434937,418.624268 344.209167,409.070099 
	C378.689941,394.604858 404.969727,371.023438 422.980133,338.154755 
	C432.707672,320.402191 438.205505,301.410400 440.799530,281.475494 
	C441.161957,278.690247 440.941071,275.829102 440.984222,272.555298 
	C443.021790,272.095520 445.065308,272.083527 447.550537,272.529175 
	C446.768188,282.188660 446.311371,291.572174 444.183075,300.559875 
	C436.310974,333.803223 419.966003,362.156219 394.425690,385.190033 
	C376.315582,401.522797 355.718109,413.152893 332.503448,420.366608 
	C313.086273,426.400269 293.227173,428.289062 273.003662,426.993896 
	C273.001434,425.279541 272.999176,423.565155 273.000549,421.422058 
z"/>
<path fill="#D44D17" opacity="1.000000" stroke="none" 
	d="
M273.000549,427.422577 
	C293.227173,428.289062 313.086273,426.400269 332.503448,420.366608 
	C355.718109,413.152893 376.315582,401.522797 394.425690,385.190033 
	C419.966003,362.156219 436.310974,333.803223 444.183075,300.559875 
	C446.311371,291.572174 446.768188,282.188660 447.987366,272.545685 
	C449.734192,272.388550 451.485870,272.672577 453.619385,272.977661 
	C453.061615,299.294495 445.619141,323.715698 432.911194,346.653931 
	C424.366852,362.076660 413.552063,375.709503 400.724731,387.743530 
	C384.768097,402.713257 366.646545,414.315948 346.155121,422.093628 
	C329.090881,428.570435 311.554718,432.858246 293.183624,433.012970 
	C286.748535,433.067169 280.312469,433.005707 273.439026,432.993652 
	C272.999939,431.277252 272.998688,429.564240 273.000549,427.422577 
z"/>
<path fill="#D75119" opacity="1.000000" stroke="none" 
	d="
M433.000000,272.750732 
	C432.999878,273.000458 432.499939,273.000153 432.249756,272.999939 
	C431.999573,272.999695 431.999908,272.499847 432.000244,272.249878 
	C432.000580,271.999908 432.500305,271.999908 432.750305,272.000732 
	C433.000305,272.001587 433.000153,272.501038 433.000000,272.750732 
z"/>
</svg>