<svg version="1.1" id="Layer_1" xmlns="http://www.w3.org/2000/svg" xmlns:xlink="http://www.w3.org/1999/xlink" x="0px" y="0px"
	 width="100%" viewBox="0 0 207 92" enable-background="new 0 0 207 92" xml:space="preserve">
<path fill="#FEFFFF" opacity="1.000000" stroke="none" 
	d="
M51.000000,1.000000 
	C103.276894,1.000000 155.553787,1.000000 207.915344,1.000000 
	C207.915344,31.576944 207.915344,62.154202 207.915344,93.000000 
	C155.979416,93.000000 103.958366,93.000000 51.468597,92.531593 
	C50.999901,85.705269 50.999920,79.347351 51.392929,72.968941 
	C55.211914,72.958794 55.809330,70.619301 55.860687,67.933098 
	C55.921307,64.762688 55.874908,61.590225 55.874908,57.917885 
	C63.668152,63.341473 69.664658,63.148186 74.259697,57.898872 
	C79.305511,52.134598 79.247719,41.053524 74.142311,35.392166 
	C69.755569,30.527729 63.008522,30.646637 56.981522,35.268845 
	C55.210896,33.960381 53.608524,32.776249 51.925732,31.206047 
	C51.563488,28.870119 51.061062,26.922821 51.038456,24.969969 
	C50.945976,16.980900 50.999950,8.990138 51.000000,1.000000 
M130.627350,21.091732 
	C122.844276,22.899809 118.215195,27.929947 116.601273,35.556896 
	C114.856567,43.801880 116.047554,51.681767 122.282196,57.770153 
	C130.122345,65.426399 146.085770,62.901871 150.446060,53.652813 
	C151.789703,50.802700 152.870560,47.510883 149.468674,45.712284 
	C145.810425,43.778141 144.695908,47.298523 143.449356,49.776485 
	C141.195847,54.256237 137.495773,55.755505 132.732239,55.091026 
	C128.123642,54.448166 125.449127,51.456337 125.057137,47.152569 
	C124.674011,42.946159 124.664352,38.476051 125.687294,34.423740 
	C127.325218,27.935240 134.292953,25.311735 139.958023,28.749067 
	C141.803299,29.868702 142.715881,32.434952 144.450958,33.856232 
	C145.767273,34.934483 147.711227,35.246506 149.375900,35.899483 
	C149.971970,34.336864 151.359528,32.546005 150.989273,31.262035 
	C150.340714,29.012903 148.960617,26.717672 147.270905,25.075788 
	C142.856262,20.786079 137.229919,20.327423 130.627350,21.091732 
M94.118233,61.720032 
	C96.994537,60.614662 99.870834,59.509293 101.460678,58.898312 
	C104.491318,60.035267 106.577911,61.043358 108.775009,61.441208 
	C109.185860,61.515602 110.638145,59.120193 110.587234,57.907497 
	C110.337646,51.962181 110.199135,45.942188 109.065155,40.135315 
	C108.544640,37.469856 106.116684,33.483631 104.053894,33.145504 
	C98.871872,32.296085 93.358215,32.844791 88.080933,33.577538 
	C86.470306,33.801170 84.761482,36.248825 83.939346,38.060009 
	C83.486137,39.058445 84.448997,41.192875 85.427193,42.139954 
	C85.916946,42.614136 88.007568,41.805973 89.121964,41.149601 
	C90.058372,40.598064 90.489273,38.858696 91.388809,38.636539 
	C93.985130,37.995316 96.765511,37.389389 99.349731,37.724609 
	C100.545830,37.879765 101.454201,40.253059 102.772072,41.988106 
	C96.833694,43.625118 91.980019,44.703247 87.319710,46.334000 
	C83.889526,47.534302 81.988983,50.363033 82.441154,54.139690 
	C82.893845,57.920731 84.857681,60.647568 88.868065,61.359100 
	C90.330162,61.618507 91.825317,61.691574 94.118233,61.720032 
M176.279877,53.908443 
	C178.414169,48.155285 180.716064,42.454689 182.549866,36.607292 
	C182.945236,35.346569 181.652908,33.556583 181.138000,32.010399 
	C179.590179,32.821804 177.950409,33.504482 176.541809,34.510746 
	C176.010757,34.890118 176.057755,36.034737 175.767960,36.802860 
	C173.840225,41.912407 171.892654,47.014465 169.421509,53.512646 
	C167.206055,46.810982 165.540085,41.627514 163.770523,36.479664 
	C162.893173,33.927402 161.876175,30.928919 158.347565,32.134190 
	C154.774994,33.354481 155.863815,36.279003 156.881653,38.800926 
	C159.298126,44.788242 161.773163,50.752148 164.256073,56.712376 
	C166.987442,63.269009 165.343613,66.075127 158.417923,67.122787 
	C157.223953,67.303398 156.204300,68.636230 155.104126,69.436829 
	C155.934677,70.497185 156.550217,72.091812 157.632233,72.527229 
	C162.859985,74.630913 169.134842,71.901108 171.314255,66.702843 
	C172.982132,62.724678 174.447479,58.661613 176.279877,53.908443 
z"/>
<path fill="#F0F0F0" opacity="1.000000" stroke="none" 
	d="
M22.000000,93.000000 
	C15.022957,93.000000 8.045914,93.000000 1.034436,93.000000 
	C1.034436,62.456894 1.034436,31.913744 1.034436,1.000000 
	C7.682828,1.000000 14.372502,1.000000 21.530445,1.468657 
	C22.008999,12.331308 22.019283,22.725304 21.813332,33.383728 
	C18.066456,34.976376 16.956604,38.050919 17.303438,41.216785 
	C17.700769,44.843578 20.240488,47.164696 23.932341,48.053669 
	C26.659184,48.710278 29.485380,49.218128 32.004219,50.368378 
	C33.354652,50.985062 34.149521,52.818325 35.195091,54.102592 
	C33.826153,55.060493 32.233921,57.022285 31.132540,56.777306 
	C28.443501,56.179176 26.020716,54.465511 23.414621,53.384434 
	C21.667875,52.659832 19.790831,52.249329 17.972088,51.698280 
	C18.303379,53.898045 18.293385,56.234257 19.097343,58.245033 
	C19.560036,59.402271 21.340126,60.032780 22.399292,61.424866 
	C22.180918,72.299561 22.090458,82.649780 22.000000,93.000000 
z"/>
<path fill="#FAFAFA" opacity="1.000000" stroke="none" 
	d="
M50.999939,72.989433 
	C50.999920,79.347351 50.999901,85.705269 50.999939,92.531593 
	C44.645603,93.000000 38.291203,93.000000 31.468403,92.531342 
	C31.000969,82.068314 31.001938,72.073944 31.382908,62.000160 
	C33.050301,61.618282 34.344124,61.340641 35.623932,61.008904 
	C40.237427,59.813046 42.702446,56.725113 42.665924,52.056561 
	C42.631462,47.650528 39.253212,45.941345 35.642338,44.788746 
	C33.122051,43.984264 30.391726,43.698441 28.028406,42.595547 
	C26.679811,41.966206 25.879164,40.162693 24.831789,38.887878 
	C26.310368,38.054039 27.926416,36.374447 29.234890,36.587128 
	C31.136305,36.896191 32.706589,38.863998 34.621944,39.576130 
	C36.404411,40.238842 38.453636,40.184055 40.385426,40.445145 
	C39.962215,38.559177 40.158955,35.839882 38.983337,34.965286 
	C36.719765,33.281311 33.679775,32.640980 30.972580,31.063702 
	C30.988930,20.706369 30.994465,10.853185 31.000000,1.000000 
	C37.354397,1.000000 43.708797,1.000000 50.531597,1.000000 
	C50.999950,8.990138 50.945976,16.980900 51.038456,24.969969 
	C51.061062,26.922821 51.563488,28.870119 51.550320,31.363567 
	C50.448368,33.746113 48.987206,35.569714 48.943638,37.426575 
	C48.710720,47.354885 48.717846,57.293907 48.928474,67.223152 
	C48.969540,69.159027 50.276741,71.068031 50.999939,72.989433 
z"/>
<path fill="#F6F6F7" opacity="1.000000" stroke="none" 
	d="
M31.002909,62.079578 
	C31.001938,72.073944 31.000969,82.068314 31.000000,92.531342 
	C28.299986,93.000000 25.599974,93.000000 22.449978,93.000000 
	C22.090458,82.649780 22.180918,72.299561 22.809635,61.512619 
	C25.899567,61.410461 28.451239,61.745022 31.002909,62.079578 
z"/>
<path fill="#F6F6F7" opacity="1.000000" stroke="none" 
	d="
M30.550018,1.000000 
	C30.994465,10.853185 30.988930,20.706369 30.588737,31.112040 
	C27.472578,32.149448 24.751072,32.634373 22.029568,33.119297 
	C22.019283,22.725304 22.008999,12.331308 21.999357,1.468657 
	C24.700014,1.000000 27.400026,1.000000 30.550018,1.000000 
z"/>
<path fill="#4384A7" opacity="1.000000" stroke="none" 
	d="
M131.022644,21.044064 
	C137.229919,20.327423 142.856262,20.786079 147.270905,25.075788 
	C148.960617,26.717672 150.340714,29.012903 150.989273,31.262035 
	C151.359528,32.546005 149.971970,34.336864 149.375900,35.899483 
	C147.711227,35.246506 145.767273,34.934483 144.450958,33.856232 
	C142.715881,32.434952 141.803299,29.868702 139.958023,28.749067 
	C134.292953,25.311735 127.325218,27.935240 125.687294,34.423740 
	C124.664352,38.476051 124.674011,42.946159 125.057137,47.152569 
	C125.449127,51.456337 128.123642,54.448166 132.732239,55.091026 
	C137.495773,55.755505 141.195847,54.256237 143.449356,49.776485 
	C144.695908,47.298523 145.810425,43.778141 149.468674,45.712284 
	C152.870560,47.510883 151.789703,50.802700 150.446060,53.652813 
	C146.085770,62.901871 130.122345,65.426399 122.282196,57.770153 
	C116.047554,51.681767 114.856567,43.801880 116.601273,35.556896 
	C118.215195,27.929947 122.844276,22.899809 131.022644,21.044064 
z"/>
<path fill="#4082A5" opacity="1.000000" stroke="none" 
	d="
M51.392929,72.968941 
	C50.276741,71.068031 48.969540,69.159027 48.928474,67.223152 
	C48.717846,57.293907 48.710720,47.354885 48.943638,37.426575 
	C48.987206,35.569714 50.448368,33.746113 51.630741,31.749641 
	C53.608524,32.776249 55.210896,33.960381 56.981522,35.268845 
	C63.008522,30.646637 69.755569,30.527729 74.142311,35.392166 
	C79.247719,41.053524 79.305511,52.134598 74.259697,57.898872 
	C69.664658,63.148186 63.668152,63.341473 55.874908,57.917885 
	C55.874908,61.590225 55.921307,64.762688 55.860687,67.933098 
	C55.809330,70.619301 55.211914,72.958794 51.392929,72.968941 
M63.430634,37.572178 
	C58.734543,37.463036 57.266167,40.639740 56.511471,44.455883 
	C55.680542,48.657524 56.287899,52.861778 60.187469,54.881359 
	C62.083366,55.863243 65.984085,55.350151 67.654488,53.943298 
	C72.552757,49.817848 70.276543,40.104790 63.430634,37.572178 
z"/>
<path fill="#4384A7" opacity="1.000000" stroke="none" 
	d="
M93.711807,61.784843 
	C91.825317,61.691574 90.330162,61.618507 88.868065,61.359100 
	C84.857681,60.647568 82.893845,57.920731 82.441154,54.139690 
	C81.988983,50.363033 83.889526,47.534302 87.319710,46.334000 
	C91.980019,44.703247 96.833694,43.625118 102.772072,41.988106 
	C101.454201,40.253059 100.545830,37.879765 99.349731,37.724609 
	C96.765511,37.389389 93.985130,37.995316 91.388809,38.636539 
	C90.489273,38.858696 90.058372,40.598064 89.121964,41.149601 
	C88.007568,41.805973 85.916946,42.614136 85.427193,42.139954 
	C84.448997,41.192875 83.486137,39.058445 83.939346,38.060009 
	C84.761482,36.248825 86.470306,33.801170 88.080933,33.577538 
	C93.358215,32.844791 98.871872,32.296085 104.053894,33.145504 
	C106.116684,33.483631 108.544640,37.469856 109.065155,40.135315 
	C110.199135,45.942188 110.337646,51.962181 110.587234,57.907497 
	C110.638145,59.120193 109.185860,61.515602 108.775009,61.441208 
	C106.577911,61.043358 104.491318,60.035267 101.460678,58.898312 
	C99.870834,59.509293 96.994537,60.614662 93.711807,61.784843 
M96.135231,48.787685 
	C93.303391,49.289471 89.303276,48.889225 90.091591,53.288452 
	C90.355255,54.759842 93.580864,56.619118 95.512352,56.690853 
	C100.223442,56.865822 102.126274,53.654358 101.635841,47.453644 
	C100.040833,47.818859 98.471977,48.178089 96.135231,48.787685 
z"/>
<path fill="#4384A7" opacity="1.000000" stroke="none" 
	d="
M176.141388,54.272377 
	C174.447479,58.661613 172.982132,62.724678 171.314255,66.702843 
	C169.134842,71.901108 162.859985,74.630913 157.632233,72.527229 
	C156.550217,72.091812 155.934677,70.497185 155.104126,69.436829 
	C156.204300,68.636230 157.223953,67.303398 158.417923,67.122787 
	C165.343613,66.075127 166.987442,63.269009 164.256073,56.712376 
	C161.773163,50.752148 159.298126,44.788242 156.881653,38.800926 
	C155.863815,36.279003 154.774994,33.354481 158.347565,32.134190 
	C161.876175,30.928919 162.893173,33.927402 163.770523,36.479664 
	C165.540085,41.627514 167.206055,46.810982 169.421509,53.512646 
	C171.892654,47.014465 173.840225,41.912407 175.767960,36.802860 
	C176.057755,36.034737 176.010757,34.890118 176.541809,34.510746 
	C177.950409,33.504482 179.590179,32.821804 181.138000,32.010399 
	C181.652908,33.556583 182.945236,35.346569 182.549866,36.607292 
	C180.716064,42.454689 178.414169,48.155285 176.141388,54.272377 
z"/>
<path fill="#4082A5" opacity="1.000000" stroke="none" 
	d="
M21.813332,33.383728 
	C24.751072,32.634373 27.472578,32.149448 30.577925,31.616188 
	C33.679775,32.640980 36.719765,33.281311 38.983337,34.965286 
	C40.158955,35.839882 39.962215,38.559177 40.385426,40.445145 
	C38.453636,40.184055 36.404411,40.238842 34.621944,39.576130 
	C32.706589,38.863998 31.136305,36.896191 29.234890,36.587128 
	C27.926416,36.374447 26.310368,38.054039 24.831789,38.887878 
	C25.879164,40.162693 26.679811,41.966206 28.028406,42.595547 
	C30.391726,43.698441 33.122051,43.984264 35.642338,44.788746 
	C39.253212,45.941345 42.631462,47.650528 42.665924,52.056561 
	C42.702446,56.725113 40.237427,59.813046 35.623932,61.008904 
	C34.344124,61.340641 33.050301,61.618282 31.382908,62.000160 
	C28.451239,61.745022 25.899567,61.410461 22.937553,60.988144 
	C21.340126,60.032780 19.560036,59.402271 19.097343,58.245033 
	C18.293385,56.234257 18.303379,53.898045 17.972088,51.698280 
	C19.790831,52.249329 21.667875,52.659832 23.414621,53.384434 
	C26.020716,54.465511 28.443501,56.179176 31.132540,56.777306 
	C32.233921,57.022285 33.826153,55.060493 35.195091,54.102592 
	C34.149521,52.818325 33.354652,50.985062 32.004219,50.368378 
	C29.485380,49.218128 26.659184,48.710278 23.932341,48.053669 
	C20.240488,47.164696 17.700769,44.843578 17.303438,41.216785 
	C16.956604,38.050919 18.066456,34.976376 21.813332,33.383728 
z"/>
<path fill="#FAFAFA" opacity="1.000000" stroke="none" 
	d="
M63.848808,37.608089 
	C70.276543,40.104790 72.552757,49.817848 67.654488,53.943298 
	C65.984085,55.350151 62.083366,55.863243 60.187469,54.881359 
	C56.287899,52.861778 55.680542,48.657524 56.511471,44.455883 
	C57.266167,40.639740 58.734543,37.463036 63.848808,37.608089 
z"/>
<path fill="#F6F6F7" opacity="1.000000" stroke="none" 
	d="
M96.519180,48.662498 
	C98.471977,48.178089 100.040833,47.818859 101.635841,47.453644 
	C102.126274,53.654358 100.223442,56.865822 95.512352,56.690853 
	C93.580864,56.619118 90.355255,54.759842 90.091591,53.288452 
	C89.303276,48.889225 93.303391,49.289471 96.519180,48.662498 
z"/>
</svg>