<?xml version="1.0" encoding="UTF-8"?>
<svg version="1.1" xmlns="http://www.w3.org/2000/svg" width="203" height="127">
<path d="M0 0 C66.99 0 133.98 0 203 0 C203 41.91 203 83.82 203 127 C136.01 127 69.02 127 0 127 C0 85.09 0 43.18 0 0 Z " fill="#DDEAF2" transform="translate(0,0)"/>
<path d="M0 0 C29.22857143 0 29.22857143 0 35.75 5.1875 C39.72566867 10.15708584 41.34046808 14.60165309 40.9375 21 C40.00674359 27.43608155 38.11704197 32.2433056 33.0625 36.4375 C27.52068101 39.26495867 22.2684139 39.12824905 16.1875 39.0625 C13.485625 39.041875 10.78375 39.02125 8 39 C8 46.59 8 54.18 8 62 C5.36 62 2.72 62 0 62 C0 41.54 0 21.08 0 0 Z " fill="#0E0E0F" transform="translate(14,32)"/>
<path d="M0 0 C6.63092139 2.44817131 11.55160794 7.936174 15.13671875 13.88671875 C17.10298996 18.70007949 16.97914806 24.5038028 15.08984375 29.3203125 C11.78419728 34.91121297 7.11702607 39.58510449 1 42 C-2.2421875 42.30078125 -2.2421875 42.30078125 -5.875 42.3125 C-7.06867188 42.32925781 -8.26234375 42.34601563 -9.4921875 42.36328125 C-16.41390344 41.6464443 -20.25626936 38.27888965 -24.515625 33.10546875 C-28.05533961 28.08466303 -28.42463229 23.15343093 -27.5234375 17.265625 C-26.06199722 10.93998798 -23.80668632 7.23019816 -18.375 3.5625 C-12.13719434 -0.24028186 -7.34070638 -0.80231339 0 0 Z " fill="#488FF5" transform="translate(92,51)"/>
<path d="M0 0 C2.31 0 4.62 0 7 0 C7 18.15 7 36.3 7 55 C16.24 55 25.48 55 35 55 C35 57.31 35 59.62 35 62 C23.45 62 11.9 62 0 62 C0 41.54 0 21.08 0 0 Z " fill="#0A0A0A" transform="translate(126,32)"/>
<path d="M0 0 C4.5478125 -0.1546875 4.5478125 -0.1546875 9.1875 -0.3125 C10.13391357 -0.35802002 11.08032715 -0.40354004 12.05541992 -0.45043945 C16.58414603 -0.5249488 18.39974554 -0.48343157 22.05078125 2.45703125 C22.69402344 3.29621094 23.33726563 4.13539062 24 5 C24.33 5.33 24.66 5.66 25 6 C25.30859375 8.4765625 25.30859375 8.4765625 25.4375 11.625 C25.49808594 12.64851563 25.55867188 13.67203125 25.62109375 14.7265625 C24.74281006 19.35550422 22.87496271 22.27402296 19 25 C15.64401605 25.81549293 12.55231271 25.67052427 9.125 25.4375 C6.11375 25.293125 3.1025 25.14875 0 25 C0 16.75 0 8.5 0 0 Z " fill="#D9E6EE" transform="translate(22,39)"/>
<path d="M0 0 C2.75329021 1.79562405 4.52627461 3.05254922 6 6 C6.0407792 10.22472472 5.64803461 13.89294087 3.5 17.5625 C-0.30444096 19.75005355 -3.73423141 19.99433396 -8 19 C-11.63715985 15.95666217 -12.82298645 14.12108584 -13.5625 9.4375 C-12.91429589 5.47625263 -11.81200626 3.81200626 -9 1 C-5.89951072 -0.55024464 -3.42105782 -0.28992015 0 0 Z " fill="#4990F5" transform="translate(181,23)"/>
<path d="M0 0 C1.65 0 3.3 0 5 0 C5 14.52 5 29.04 5 44 C3.35 44 1.7 44 0 44 C0 29.48 0 14.96 0 0 Z " fill="#020202" transform="translate(176,49)"/>
</svg>
