<svg version="1.1" id="Layer_1" xmlns="http://www.w3.org/2000/svg" xmlns:xlink="http://www.w3.org/1999/xlink" x="0px" y="0px"
	 width="100%" viewBox="0 0 203 127" enable-background="new 0 0 203 127" xml:space="preserve">
<path fill="#DFECF4" opacity="1.000000" stroke="none" 
	d="
M35.000000,1.000000 
	C91.279823,1.000000 147.559647,1.000000 203.919739,1.000000 
	C203.919739,43.239483 203.919739,85.479172 203.919739,128.000000 
	C149.312759,128.000000 94.625038,128.000000 39.468719,127.531517 
	C39.333954,108.726891 39.667793,90.390739 40.310425,71.846657 
	C47.048683,70.298035 51.724674,66.938164 54.103893,60.554104 
	C58.487106,48.792801 53.719463,33.017612 36.008530,32.191071 
	C35.673252,21.497698 35.336628,11.248849 35.000000,1.000000 
M104.109558,86.546692 
	C113.056343,74.310326 109.017426,59.140915 95.135048,53.631908 
	C86.811264,50.328743 78.887688,51.821915 72.326065,57.766174 
	C66.276703,63.246368 63.806564,70.212456 65.997101,78.508842 
	C68.117058,86.537956 73.411507,91.545067 81.031799,93.781807 
	C89.778214,96.349083 97.444298,93.839417 104.109558,86.546692 
M142.504547,94.698532 
	C148.926956,94.698532 155.349380,94.698532 161.663788,94.698532 
	C161.663788,92.068565 161.663788,90.158913 161.663788,87.830482 
	C152.439453,87.830482 143.525177,87.830482 134.154129,87.830482 
	C134.154129,69.349724 134.154129,51.289143 134.154129,33.232697 
	C131.476852,33.232697 129.285049,33.232697 127.271523,33.232697 
	C127.271523,53.850533 127.271523,74.075798 127.271523,94.698517 
	C132.237305,94.698517 136.872437,94.698517 142.504547,94.698532 
M187.185684,37.372250 
	C188.824295,30.907177 186.375381,25.663412 181.007599,24.143375 
	C176.102921,22.754482 170.710175,25.786697 169.214783,30.774178 
	C167.822845,35.416634 170.286377,40.796112 174.752457,42.866539 
	C178.995529,44.833584 183.262650,43.158146 187.185684,37.372250 
M176.833694,76.499146 
	C176.833694,82.439476 176.833694,88.379814 176.833694,94.408524 
	C178.832993,94.408524 180.234940,94.408524 181.670425,94.408524 
	C181.670425,79.267448 181.670425,64.395111 181.670425,49.237576 
	C179.862198,49.406765 178.453339,49.538586 177.164673,49.659161 
	C177.001221,50.371792 176.863480,50.693848 176.862762,51.016212 
	C176.844330,59.177254 176.840271,67.338326 176.833694,76.499146 
z"/>
<path fill="#D2DDE5" opacity="1.000000" stroke="none" 
	d="
M24.000000,128.000000 
	C16.353149,128.000000 8.706298,128.000000 1.057476,127.999985 
	C1.055506,85.666634 1.055506,43.333298 1.055506,1.000000 
	C7.427979,1.000000 13.744947,1.000000 20.529350,1.468151 
	C21.334877,12.173512 21.672972,22.410723 21.566608,32.741982 
	C19.204266,32.836033 17.286379,32.836033 15.486678,32.836033 
	C15.486678,53.811943 15.486678,74.125473 15.486678,94.281601 
	C17.980640,94.281601 20.032524,94.281601 22.393896,94.281601 
	C22.393896,87.927834 22.301695,81.959152 22.467327,75.997627 
	C22.502848,74.719177 23.471704,73.466660 24.007172,72.658112 
	C24.002493,91.409355 24.001245,109.704681 24.000000,128.000000 
z"/>
<path fill="#DCE8F0" opacity="1.000000" stroke="none" 
	d="
M24.466118,128.000000 
	C24.001245,109.704681 24.002493,91.409355 24.468809,72.588646 
	C29.956465,72.060364 34.979050,72.057480 40.001633,72.054596 
	C39.667793,90.390739 39.333954,108.726891 39.000061,127.531517 
	C34.310745,128.000000 29.621489,128.000000 24.466118,128.000000 
z"/>
<path fill="#DAE6EE" opacity="1.000000" stroke="none" 
	d="
M22.011066,32.647934 
	C21.672972,22.410723 21.334877,12.173512 20.998392,1.468151 
	C25.356899,1.000000 29.713799,1.000000 34.535351,1.000000 
	C35.336628,11.248849 35.673252,21.497698 35.551788,32.285030 
	C30.732824,32.764988 26.371944,32.706459 22.011066,32.647934 
z"/>
<path fill="#488FF6" opacity="1.000000" stroke="none" 
	d="
M103.888916,86.834518 
	C97.444298,93.839417 89.778214,96.349083 81.031799,93.781807 
	C73.411507,91.545067 68.117058,86.537956 65.997101,78.508842 
	C63.806564,70.212456 66.276703,63.246368 72.326065,57.766174 
	C78.887688,51.821915 86.811264,50.328743 95.135048,53.631908 
	C109.017426,59.140915 113.056343,74.310326 103.888916,86.834518 
z"/>
<path fill="#09090A" opacity="1.000000" stroke="none" 
	d="
M21.566608,32.741982 
	C26.371944,32.706459 30.732824,32.764988 35.550446,32.729553 
	C53.719463,33.017612 58.487106,48.792801 54.103893,60.554104 
	C51.724674,66.938164 47.048683,70.298035 40.310425,71.846657 
	C34.979050,72.057480 29.956465,72.060364 24.472244,72.132721 
	C23.471704,73.466660 22.502848,74.719177 22.467327,75.997627 
	C22.301695,81.959152 22.393896,87.927834 22.393896,94.281601 
	C20.032524,94.281601 17.980640,94.281601 15.486678,94.281601 
	C15.486678,74.125473 15.486678,53.811943 15.486678,32.836033 
	C17.286379,32.836033 19.204266,32.836033 21.566608,32.741982 
M47.836376,47.368507 
	C43.937195,39.694340 34.293644,37.033325 22.651451,40.466053 
	C22.651451,48.510193 22.651451,56.577072 22.651451,65.057854 
	C28.147697,65.057854 33.581127,65.846191 38.617573,64.772453 
	C41.816563,64.090446 45.362686,61.177227 47.024124,58.274826 
	C48.554085,55.602097 47.773666,51.606827 47.836376,47.368507 
z"/>
<path fill="#0A0B0B" opacity="1.000000" stroke="none" 
	d="
M142.006058,94.698524 
	C136.872437,94.698517 132.237305,94.698517 127.271523,94.698517 
	C127.271523,74.075798 127.271523,53.850533 127.271523,33.232697 
	C129.285049,33.232697 131.476852,33.232697 134.154129,33.232697 
	C134.154129,51.289143 134.154129,69.349724 134.154129,87.830482 
	C143.525177,87.830482 152.439453,87.830482 161.663788,87.830482 
	C161.663788,90.158913 161.663788,92.068565 161.663788,94.698532 
	C155.349380,94.698532 148.926956,94.698532 142.006058,94.698524 
z"/>
<path fill="#4990F6" opacity="1.000000" stroke="none" 
	d="
M187.045364,37.733604 
	C183.262650,43.158146 178.995529,44.833584 174.752457,42.866539 
	C170.286377,40.796112 167.822845,35.416634 169.214783,30.774178 
	C170.710175,25.786697 176.102921,22.754482 181.007599,24.143375 
	C186.375381,25.663412 188.824295,30.907177 187.045364,37.733604 
z"/>
<path fill="#060607" opacity="1.000000" stroke="none" 
	d="
M176.833694,75.999268 
	C176.840271,67.338326 176.844330,59.177254 176.862762,51.016212 
	C176.863480,50.693848 177.001221,50.371792 177.164673,49.659161 
	C178.453339,49.538586 179.862198,49.406765 181.670425,49.237576 
	C181.670425,64.395111 181.670425,79.267448 181.670425,94.408524 
	C180.234940,94.408524 178.832993,94.408524 176.833694,94.408524 
	C176.833694,88.379814 176.833694,82.439476 176.833694,75.999268 
z"/>
<path fill="#D6E3EA" opacity="1.000000" stroke="none" 
	d="
M47.923679,47.781326 
	C47.773666,51.606827 48.554085,55.602097 47.024124,58.274826 
	C45.362686,61.177227 41.816563,64.090446 38.617573,64.772453 
	C33.581127,65.846191 28.147697,65.057854 22.651451,65.057854 
	C22.651451,56.577072 22.651451,48.510193 22.651451,40.466053 
	C34.293644,37.033325 43.937195,39.694340 47.923679,47.781326 
z"/>
</svg>