<svg version="1.1" id="Layer_1" xmlns="http://www.w3.org/2000/svg" xmlns:xlink="http://www.w3.org/1999/xlink" x="0px" y="0px"
	 width="100%" viewBox="0 0 493 349" enable-background="new 0 0 493 349" xml:space="preserve">
<path fill="#FBFBFB" opacity="1.000000" stroke="none" 
	d="
M307.000000,350.000000 
	C204.666672,350.000000 102.833359,350.000000 1.000027,350.000000 
	C1.000018,233.666687 1.000018,117.333382 1.000009,1.000059 
	C165.333298,1.000039 329.666595,1.000039 493.999908,1.000020 
	C493.999939,117.333275 493.999939,233.666550 493.999969,349.999908 
	C431.833344,350.000000 369.666656,350.000000 307.000000,350.000000 
M418.053467,258.338348 
	C417.754120,258.140961 417.454742,257.943604 417.132904,257.850616 
	C417.132904,257.850616 417.233429,257.814484 417.013794,257.194183 
	C415.738007,256.049194 414.462219,254.904221 413.150787,253.859497 
	C413.150787,253.859497 413.254272,253.834793 413.080322,253.306396 
	C412.766663,253.124237 412.453003,252.942093 412.115662,252.862045 
	C412.115662,252.862045 412.216339,252.832977 411.989014,252.200287 
	C410.385101,250.393326 408.781189,248.586365 407.126465,246.873779 
	C407.126465,246.873779 407.232269,246.856369 407.069977,246.324661 
	C406.761658,246.136353 406.453339,245.948029 406.121643,245.865005 
	C406.121643,245.865005 406.219177,245.818970 405.843933,245.088226 
	C403.136444,243.129959 404.369415,241.521194 405.933899,239.385071 
	C418.954437,221.606567 427.984497,202.136108 431.063599,179.669037 
	C431.066376,179.457458 431.069183,179.245880 431.304810,178.314774 
	C431.812256,166.372589 432.848755,154.420456 432.624725,142.492004 
	C432.494537,135.560120 430.341187,128.666229 429.112732,121.372948 
	C429.112732,121.372948 429.009674,121.004524 429.305084,120.410255 
	C426.422791,111.462097 423.927917,102.362602 420.513336,93.622406 
	C418.456024,88.356415 414.967865,83.649429 412.141418,78.328072 
	C412.141418,78.328072 411.969788,78.007469 412.028259,77.285873 
	C410.449097,74.779625 409.010559,72.170601 407.266907,69.784592 
	C398.984955,58.451775 390.104889,47.688538 377.453247,39.899651 
	C376.776611,39.552555 376.099976,39.205463 375.223877,38.266045 
	C374.853607,38.096420 374.483307,37.926796 374.100372,37.868572 
	C374.100372,37.868572 374.206696,37.832970 374.010590,37.350601 
	C373.046417,36.838074 372.082275,36.325546 371.094543,35.908325 
	C371.094543,35.908325 371.191589,35.893295 371.006653,35.375263 
	C370.701630,35.189754 370.396637,35.004246 370.072510,34.913139 
	C370.072510,34.913139 370.161591,34.876495 369.912598,34.280678 
	C369.313507,34.104385 368.714447,33.928093 368.100677,33.863556 
	C368.100677,33.863556 368.207886,33.828751 367.973450,33.193871 
	C367.362274,33.033562 366.751099,32.873257 366.109985,32.830372 
	C366.109985,32.830372 366.227875,32.802311 365.894257,32.196007 
	C364.296509,31.410513 362.698792,30.625019 361.050079,29.937757 
	C361.050079,29.937757 361.150574,29.891388 360.921631,29.282116 
	C360.323517,29.098955 359.725403,28.915796 359.100494,28.852104 
	C359.100494,28.852104 359.220428,28.827414 358.985718,28.183262 
	C357.258179,27.208466 355.578674,26.134108 353.795776,25.274029 
	C332.298279,14.903555 309.290649,12.727693 285.964203,13.895415 
	C277.987396,14.294734 270.152863,17.536566 262.185272,19.206610 
	C262.185272,19.206610 261.906982,19.164673 261.151123,19.142817 
	C259.763336,19.699713 258.375549,20.256611 256.213837,20.822969 
	C250.859985,23.378542 245.506134,25.934116 240.082245,28.566628 
	C240.082245,28.566628 239.986786,28.607958 239.443817,28.732525 
	C239.295456,28.844200 239.147110,28.955875 238.413742,29.085152 
	C237.953247,29.426390 237.492737,29.767626 236.500046,30.137007 
	C236.254868,30.368887 236.009674,30.600767 235.859619,30.871700 
	C235.859619,30.871700 235.841965,30.770386 235.269440,30.842220 
	C234.679138,31.292049 234.088837,31.741877 233.337662,32.294636 
	C233.337662,32.294636 233.171265,32.388378 232.708099,32.400299 
	C232.393372,32.493500 232.155930,32.683380 231.414352,33.046432 
	C230.812134,33.525032 230.209915,34.003632 229.871094,34.755093 
	C229.871094,34.755093 229.572662,34.521061 228.985168,34.685528 
	C228.549744,35.081745 228.114319,35.477959 227.153702,35.973404 
	C226.771072,36.317402 226.388443,36.661396 225.329239,37.129902 
	C221.125992,40.671989 216.922745,44.214077 212.923660,47.888176 
	C212.923660,47.888176 212.754135,47.713905 212.123856,47.942509 
	C187.195618,71.663277 171.521118,100.373108 167.431976,134.617355 
	C163.238678,169.733719 170.430878,202.657166 189.777023,232.563934 
	C192.486771,236.752853 195.931213,240.466507 199.519211,244.869385 
	C200.348053,245.911667 201.176895,246.953949 201.989609,248.685532 
	C207.390884,253.954391 212.792145,259.223267 218.339478,264.699219 
	C218.339478,264.699219 218.553207,264.835419 218.935532,265.316833 
	C230.344528,274.874908 243.153625,282.036041 257.175201,286.872925 
	C275.091644,293.053436 293.406494,295.508179 312.453949,293.250763 
	C327.401093,291.479340 341.663208,288.032013 355.659637,281.064026 
	C356.149445,280.742310 356.639252,280.420593 357.025818,280.064667 
	C357.025818,280.064667 357.090973,280.151764 357.660339,280.107147 
	C358.132660,279.813446 358.604980,279.519745 359.759674,279.113922 
	C360.695465,278.468445 361.631256,277.822968 362.835144,277.248657 
	C362.835144,277.248657 362.998138,277.024231 363.703827,276.908813 
	C368.658936,273.685638 373.614075,270.462433 378.712921,267.145782 
	C386.067780,274.871460 393.460480,282.636841 400.885406,290.941803 
	C401.228607,291.303925 401.571838,291.666046 402.153107,292.647797 
	C403.746338,294.147003 405.339569,295.646210 407.249115,297.725800 
	C413.943146,305.020355 420.605896,312.343964 427.341003,319.600403 
	C432.825989,325.509949 438.397552,331.339081 444.197784,337.819244 
	C445.675568,338.832581 447.052307,340.057678 448.649811,340.820190 
	C453.759644,343.258942 458.962799,344.742493 464.881775,340.852478 
	C467.667297,338.603088 470.452820,336.353729 473.768555,333.623138 
	C476.953979,327.252533 477.296051,320.531738 473.209595,314.837463 
	C469.241852,309.308685 463.897736,304.767700 459.077911,299.913025 
	C459.077911,299.913025 459.204620,299.843781 458.965851,299.216614 
	C448.746490,288.817291 438.539581,278.405640 428.285828,268.040314 
	C427.394135,267.138885 426.193726,266.542908 425.106293,265.898895 
	C425.106293,265.898895 425.204132,265.886597 425.035492,265.359253 
	C424.728821,265.168396 424.422180,264.977539 424.093628,264.899384 
	C424.093628,264.899384 424.206940,264.880981 424.033905,264.354980 
	C423.732269,264.160675 423.430664,263.966339 423.110199,263.872620 
	C423.110199,263.872620 423.207886,263.842102 422.985626,263.225891 
	C421.710541,262.079163 420.435455,260.932465 419.128387,259.881805 
	C419.128387,259.881805 419.227814,259.862701 419.054871,259.336029 
	C418.746185,259.147919 418.437500,258.959778 418.104797,258.888123 
	C418.104797,258.888123 418.221893,258.867279 418.053467,258.338348 
M96.204536,78.861664 
	C96.038780,79.542114 95.873024,80.222557 95.277664,81.300591 
	C95.267921,81.871582 95.258179,82.442574 95.064095,83.933510 
	C95.096169,128.954849 95.128242,173.976181 94.972847,219.918381 
	C95.032516,226.285019 95.092194,232.651657 95.046669,239.699219 
	C95.179298,240.129852 95.311928,240.560486 95.453644,241.536835 
	C95.715782,242.014282 95.977928,242.491714 96.206711,243.562012 
	C96.550652,244.016251 96.894600,244.470490 97.425629,245.543991 
	C97.956520,245.736710 98.487404,245.929428 99.547913,246.327621 
	C99.847092,246.545105 100.146278,246.762589 100.702881,247.313553 
	C101.025002,247.430557 101.347130,247.547546 101.669243,247.664551 
	C101.590591,247.466583 101.511932,247.268616 102.012436,247.925125 
	C103.675598,247.896301 105.338760,247.867462 107.666946,247.730927 
	C112.997398,245.014313 113.489471,240.022125 113.486572,234.944168 
	C113.457893,184.690155 113.403908,134.436096 113.232216,84.182472 
	C113.224258,81.853783 112.033600,79.529129 111.323067,77.115517 
	C111.323067,77.115517 111.240219,77.039894 111.052910,76.468681 
	C110.736168,76.245621 110.419426,76.022552 110.093307,75.894630 
	C110.093307,75.894630 110.183540,75.863060 109.924881,75.266251 
	C108.950638,74.859474 107.976387,74.452705 106.212944,73.713547 
	C104.805634,73.800346 103.398331,73.887138 101.333305,73.932770 
	C100.474655,74.554070 99.616005,75.175377 98.867668,75.928345 
	C98.867668,75.928345 98.813873,75.765221 98.216904,75.955170 
	C97.794930,76.635460 97.372955,77.315758 96.723686,78.110298 
	C96.723686,78.110298 96.705330,78.364029 96.204536,78.861664 
M133.586227,181.714767 
	C133.780746,185.796875 133.975266,189.878998 134.009445,194.891113 
	C134.025681,216.787643 133.962631,238.684799 134.132462,260.580139 
	C134.162430,264.440582 135.165863,268.293457 135.855942,272.847260 
	C137.850525,277.159271 141.201996,279.218170 145.899368,278.302582 
	C150.416718,277.422089 153.001602,273.630524 152.996277,268.283142 
	C152.952087,223.967529 152.967773,179.651611 152.786682,135.336487 
	C152.672348,107.358482 152.228638,79.381927 151.991516,51.404221 
	C151.951813,46.720299 150.420242,43.185188 145.477585,42.179939 
	C140.461624,41.159779 137.292023,43.348850 134.824600,49.627209 
	C134.780731,50.282681 134.736877,50.938148 134.270508,51.975952 
	C134.242004,52.099159 134.167191,52.233994 134.194626,52.343140 
	C134.252045,52.571709 134.363297,52.786755 134.187286,53.905163 
	C134.212234,58.621716 134.237198,63.338264 133.869675,68.752403 
	C133.875977,80.511269 133.882278,92.270142 133.734665,104.951897 
	C133.787598,130.292892 133.840530,155.633881 133.586227,181.714767 
M58.932747,211.734512 
	C61.479263,217.011322 66.257393,216.564896 70.585823,215.589462 
	C74.989586,214.597061 75.880081,210.793976 75.878876,206.578430 
	C75.870789,178.336548 75.984261,150.094620 76.049194,121.852699 
	C76.051865,120.691002 76.066864,119.513947 75.898865,118.370087 
	C75.376999,114.816963 70.055794,110.804970 65.755226,110.903030 
	C61.873192,110.991531 59.175766,112.674171 58.782612,117.512650 
	C58.866161,117.676750 58.949707,117.840858 58.626965,118.767372 
	C58.349030,119.669365 57.830311,120.570778 57.828133,121.473434 
	C57.761871,148.927368 57.731949,176.381424 57.773754,203.835358 
	C57.775501,204.983063 58.520214,206.129608 58.814476,208.024109 
	C58.869411,209.015869 58.924351,210.007629 58.932747,211.734512 
M37.615696,154.008469 
	C36.788296,148.529373 34.231728,145.962891 29.473606,145.834763 
	C25.067104,145.716095 20.457441,149.055023 20.243290,153.211823 
	C19.936527,159.166245 19.853106,165.183960 20.366678,171.114716 
	C20.911579,177.407242 24.418720,180.159470 30.157236,179.853241 
	C34.991215,179.595276 37.884514,176.304199 38.014420,170.305099 
	C38.125637,165.168884 37.802357,160.023254 37.615696,154.008469 
z"/>
<path fill="#172C60" opacity="1.000000" stroke="none" 
	d="
M237.032227,30.108864 
	C237.492737,29.767626 237.953247,29.426390 238.849533,29.225609 
	C239.519150,29.113363 239.752960,28.860661 239.986786,28.607960 
	C239.986786,28.607958 240.082245,28.566628 240.543869,28.662127 
	C246.340469,26.506712 251.675461,24.255798 257.398041,21.997498 
	C259.159424,21.048298 260.533203,20.106487 261.906982,19.164675 
	C261.906982,19.164673 262.185272,19.206610 262.661499,19.520916 
	C265.835236,19.229498 268.506744,18.289442 271.234833,18.077263 
	C281.750000,17.259434 292.274780,16.360529 302.811768,16.074560 
	C319.403381,15.624276 335.220215,19.269331 350.350952,26.092390 
	C353.149475,27.354362 356.256042,27.933252 359.220428,28.827412 
	C359.220428,28.827414 359.100494,28.852104 359.234467,29.094519 
	C359.962494,29.521749 360.556519,29.706568 361.150574,29.891388 
	C361.150574,29.891388 361.050079,29.937757 361.097168,30.257820 
	C362.838776,31.319357 364.533325,32.060829 366.227875,32.802307 
	C366.227875,32.802311 366.109985,32.830372 366.245880,33.080231 
	C366.990479,33.496307 367.599182,33.662529 368.207886,33.828751 
	C368.207886,33.828751 368.100677,33.863556 368.234497,34.107513 
	C368.966095,34.526478 369.563843,34.701488 370.161591,34.876495 
	C370.161591,34.876495 370.072510,34.913139 370.175140,35.124710 
	C370.582367,35.521957 370.886993,35.707626 371.191589,35.893295 
	C371.191589,35.893295 371.094543,35.908325 371.125122,36.233208 
	C372.172699,36.983051 373.189697,37.408012 374.206696,37.832970 
	C374.206696,37.832970 374.100372,37.868572 374.225220,38.097252 
	C374.707825,38.503414 375.065582,38.680897 375.423309,38.858376 
	C376.099976,39.205463 376.776611,39.552555 377.768372,40.347176 
	C378.996155,41.938824 379.738007,43.293522 380.848083,44.194378 
	C391.425934,52.778248 400.330658,62.835102 407.842834,74.183983 
	C408.848572,75.703331 410.576355,76.744743 411.969788,78.007477 
	C411.969788,78.007469 412.141418,78.328072 412.108154,78.905411 
	C412.578522,81.036453 413.007111,82.619331 413.597748,84.139221 
	C418.010345,95.493690 422.431732,106.844940 426.927887,118.166412 
	C427.346985,119.221596 428.302979,120.063560 429.009674,121.004524 
	C429.009674,121.004524 429.112732,121.372948 429.082153,122.024025 
	C429.054169,124.163681 428.855042,125.684990 429.090424,127.135796 
	C431.533417,142.192154 431.790588,157.276001 430.109344,172.433609 
	C429.872162,174.571930 430.724152,176.831085 431.071991,179.034302 
	C431.069183,179.245880 431.066376,179.457458 430.472321,179.952942 
	C429.567627,180.962646 429.150146,181.661728 428.956024,182.418137 
	C423.662628,203.046494 417.082581,223.063919 402.955902,239.712997 
	C400.424103,242.696899 401.962769,245.247681 406.219177,245.818970 
	C406.219177,245.818970 406.121643,245.865005 406.211853,246.081604 
	C406.612122,246.484238 406.922180,246.670303 407.232269,246.856369 
	C407.232269,246.856369 407.126465,246.873779 407.103638,247.207916 
	C408.792664,249.305695 410.504486,251.069336 412.216339,252.832977 
	C412.216339,252.832977 412.115662,252.862045 412.210815,253.080353 
	C412.622101,253.477356 412.938171,253.656067 413.254272,253.834793 
	C413.254272,253.834793 413.150787,253.859497 413.143677,254.176422 
	C414.502228,255.600388 415.867828,256.707428 417.233429,257.814484 
	C417.233429,257.814484 417.132904,257.850616 417.217041,258.069855 
	C417.608063,258.481812 417.914978,258.674561 418.221893,258.867279 
	C418.221893,258.867279 418.104797,258.888123 418.200623,259.097229 
	C418.606903,259.491791 418.917358,259.677246 419.227814,259.862701 
	C419.227814,259.862701 419.128387,259.881805 419.127258,260.198761 
	C420.486694,261.624512 421.847290,262.733307 423.207886,263.842102 
	C423.207886,263.842102 423.110199,263.872620 423.200256,264.089417 
	C423.595886,264.497833 423.901398,264.689423 424.206940,264.880981 
	C424.206940,264.880981 424.093628,264.899384 424.190338,265.107666 
	C424.592743,265.506195 424.898438,265.696381 425.204132,265.886597 
	C425.204132,265.886597 425.106293,265.898895 425.109314,266.209473 
	C425.267914,266.987823 425.290131,267.583588 425.598419,267.904877 
	C435.270111,277.985138 444.926086,288.081635 454.729187,298.033081 
	C455.765625,299.085236 457.691406,299.261292 459.204620,299.843781 
	C459.204620,299.843781 459.077911,299.913025 459.099182,300.216614 
	C460.976196,302.959900 462.428040,305.915436 464.762695,307.743530 
	C472.104919,313.492676 475.075409,320.550568 472.960419,329.734955 
	C472.646576,331.097839 473.126007,332.643372 473.238342,334.104370 
	C470.452820,336.353729 467.667297,338.603088 464.075317,340.945679 
	C455.950775,341.913422 449.475342,340.096924 443.873535,334.713898 
	C440.806366,331.257294 437.899323,328.089661 434.969116,324.943573 
	C425.972595,315.284180 416.967224,305.633118 407.817719,295.673370 
	C405.751801,294.254669 403.833435,293.141418 401.915070,292.028137 
	C401.571838,291.666046 401.228607,291.303925 400.885345,290.297363 
	C395.626068,283.308411 390.587311,276.763367 385.047821,270.673828 
	C379.081787,264.115387 378.899658,264.332611 371.734192,269.551514 
	C369.995422,270.817932 367.902985,271.622864 366.254120,272.981079 
	C364.946136,274.058472 364.067444,275.657043 362.998138,277.024231 
	C362.998138,277.024231 362.835144,277.248657 362.308777,277.167480 
	C360.850006,277.392426 359.917633,277.698608 358.657196,278.054443 
	C357.916412,278.786682 357.503693,279.469208 357.090973,280.151764 
	C357.090973,280.151764 357.025818,280.064667 356.723938,280.041748 
	C355.950470,280.018036 355.478882,280.017242 354.633820,280.053833 
	C347.889618,282.390289 341.641998,285.147308 335.124146,286.898682 
	C318.568207,291.347260 301.679596,293.368713 284.602966,290.882721 
	C276.322662,289.677277 268.111023,287.691833 260.035828,285.454803 
	C246.308899,281.652039 234.253357,274.470734 222.886154,266.023682 
	C221.766037,265.191315 220.012665,265.211151 218.553207,264.835419 
	C218.553207,264.835419 218.339478,264.699219 218.459778,264.262878 
	C216.731445,261.730408 215.035690,259.470184 213.000351,257.574463 
	C209.445541,254.263550 205.681870,251.176880 202.005737,247.996231 
	C201.176895,246.953949 200.348053,245.911667 199.256531,244.303284 
	C198.150864,242.149033 197.332077,240.547485 196.460968,238.974915 
	C190.059952,227.419495 182.287415,216.388809 177.628571,204.170349 
	C173.099091,192.291168 170.327728,179.309540 169.322952,166.611130 
	C167.405060,142.372528 169.684052,118.514870 180.345551,95.882942 
	C188.005630,79.622345 198.041473,65.271584 210.196747,52.212898 
	C211.340408,50.984268 211.915222,49.226177 212.754135,47.713905 
	C212.754135,47.713905 212.923660,47.888176 213.188904,47.867790 
	C215.568344,46.597305 217.934769,45.630188 219.733856,44.026573 
	C222.061386,41.951942 223.936127,39.369305 226.005829,37.005394 
	C226.388443,36.661396 226.771072,36.317402 227.764313,35.925926 
	C228.774170,35.425983 229.173416,34.973522 229.572662,34.521057 
	C229.572662,34.521061 229.871094,34.755093 230.059906,34.741608 
	C230.834991,34.481800 231.421234,34.235481 232.330933,33.938133 
	C232.826675,33.387531 232.998962,32.887955 233.171265,32.388378 
	C233.171265,32.388378 233.337662,32.294636 233.751984,32.430515 
	C234.724869,31.967722 235.283417,31.369051 235.841949,30.770382 
	C235.841965,30.770386 235.859619,30.871700 236.070648,30.830078 
	C236.531860,30.561924 236.782043,30.335392 237.032227,30.108864 
M225.185013,61.190697 
	C225.185013,61.190697 225.304276,61.223160 224.747314,61.323387 
	C224.542328,61.624222 224.337341,61.925056 224.110931,62.124985 
	C224.110931,62.124985 224.210342,62.152565 223.495010,62.119671 
	C220.610016,64.153442 216.661224,65.326950 216.924744,70.505615 
	C216.781326,70.846252 216.525223,71.028778 215.416473,71.087517 
	C214.447968,72.534164 213.479477,73.980812 212.181808,74.948189 
	C212.286224,75.110626 212.390625,75.273056 211.834335,75.436783 
	C211.586105,76.001389 211.337875,76.565994 211.041824,77.035149 
	C211.041824,77.035149 211.135757,77.085876 210.428131,77.132393 
	C210.040283,77.856895 209.652435,78.581398 209.141373,79.138748 
	C209.141373,79.138748 209.312439,79.256477 208.580185,79.159790 
	C207.875427,79.529823 206.843140,79.715218 206.514893,80.297493 
	C201.336975,89.482422 195.373962,98.357086 191.378403,108.040421 
	C187.059387,118.507645 184.761398,129.616104 183.652451,141.179199 
	C181.740631,161.113922 184.505798,180.117340 191.383331,198.586426 
	C198.665817,218.142990 210.320358,234.828598 226.637085,248.045654 
	C227.628052,248.848358 229.174118,248.965759 230.531693,249.500793 
	C230.531693,249.500793 230.643448,249.546982 230.421371,250.075684 
	C230.613129,250.384354 230.804871,250.693024 231.301346,251.603897 
	C239.971939,256.943604 248.335541,262.892609 257.396515,267.457458 
	C267.124573,272.358368 277.818329,274.885010 288.743652,275.649292 
	C291.780457,275.861755 294.911377,274.728882 298.817902,273.979034 
	C300.228790,274.028137 301.639679,274.077209 303.459625,274.601257 
	C304.637024,275.057526 305.814453,275.513794 307.793182,275.885742 
	C310.870697,275.265442 313.948181,274.645111 317.827393,274.005463 
	C319.554535,273.675507 321.281708,273.345551 323.829407,273.004333 
	C324.986328,272.918549 326.212494,273.052826 327.289825,272.713959 
	C343.844849,267.507477 359.562195,260.540314 372.936462,249.261597 
	C376.446075,246.301895 378.888916,242.077240 382.057343,237.861847 
	C383.361542,236.509918 384.665771,235.157990 386.153778,234.152008 
	C386.275940,234.183426 386.398102,234.214844 386.520264,234.246262 
	C386.393738,234.037735 386.267212,233.829208 386.273529,233.305618 
	C386.273529,233.305618 386.574799,233.143921 387.033783,233.489990 
	C387.354706,233.331345 387.675659,233.172699 388.599457,232.709290 
	C391.404114,228.798172 394.208740,224.887039 397.558502,220.485382 
	C397.562378,219.532898 397.566254,218.580414 397.911438,218.033569 
	C397.792938,217.901962 397.674469,217.770340 398.275269,217.637421 
	C401.896423,211.077072 406.611115,204.878311 408.923523,197.885193 
	C414.718109,180.361725 417.861206,162.448303 416.266418,143.635498 
	C414.943909,128.034454 411.256256,113.389076 404.634338,99.379936 
	C402.762115,95.419098 400.223267,91.773384 397.774567,87.553741 
	C397.577179,87.287224 397.321442,87.100731 396.929169,86.287346 
	C394.739838,82.594048 393.741516,77.835281 388.247223,76.697044 
	C388.247223,76.697044 388.119385,76.415871 388.547424,75.781837 
	C385.315002,67.902145 378.939209,62.927208 372.247009,58.280941 
	C371.680328,57.887520 370.653259,58.157200 369.945557,58.053787 
	C369.945557,58.053787 369.887817,58.163418 369.893829,57.446747 
	C369.041687,56.263996 368.421234,54.765198 367.302948,53.945549 
	C348.115295,39.881783 326.421173,32.427681 302.838135,31.226946 
	C294.431915,30.798943 285.718384,32.205105 277.462555,34.133228 
	C268.046051,36.332420 258.938782,39.923527 249.806168,43.212479 
	C248.005539,43.860939 246.700546,45.885666 245.124283,47.170292 
	C245.124283,47.170292 245.232071,47.206459 244.504654,47.099644 
	C243.002563,48.402050 241.500488,49.704456 239.764908,51.494572 
	C239.277740,51.702877 238.790558,51.911186 237.520248,52.061871 
	C232.875854,53.275829 228.639359,55.014767 226.916519,60.723431 
	C226.616653,60.840946 226.316803,60.958462 225.816589,60.738972 
	C225.621124,60.927902 225.425659,61.116829 225.185013,61.190697 
z"/>
<path fill="#172C60" opacity="1.000000" stroke="none" 
	d="
M95.444565,240.991119 
	C95.311928,240.560486 95.179298,240.129852 95.307510,239.354843 
	C95.568352,239.010468 95.984894,239.006012 96.250992,238.798843 
	C96.675819,237.717255 96.834549,236.842850 96.989899,235.527100 
	C96.988976,232.734818 96.991425,230.383881 96.994019,227.562210 
	C96.996925,180.924911 97.020142,134.758301 96.928345,88.591919 
	C96.924644,86.731361 95.833115,84.872971 95.248428,83.013565 
	C95.258179,82.442574 95.267921,81.871582 95.764862,81.036865 
	C96.510025,80.511787 96.767975,80.250427 97.267883,79.827103 
	C97.668800,79.119705 97.827751,78.574280 98.240662,77.827080 
	C98.601036,77.005280 98.707451,76.385254 98.813873,75.765221 
	C98.813873,75.765221 98.867668,75.928345 99.204239,75.919281 
	C100.327393,75.936279 101.113983,75.962349 102.333229,75.992050 
	C104.208054,75.993721 105.650215,75.991753 107.477982,75.985123 
	C108.636902,75.941322 109.410225,75.902191 110.183540,75.863060 
	C110.183540,75.863060 110.093307,75.894630 110.188171,76.131561 
	C110.602089,76.592300 110.921158,76.816093 111.240219,77.039894 
	C111.240219,77.039894 111.323067,77.115517 111.254196,77.630859 
	C111.463341,83.761688 111.973816,89.376808 111.982475,94.992699 
	C112.049385,138.402954 111.968330,181.813446 112.065186,225.223587 
	C112.083000,233.209198 112.539139,241.157745 107.001923,247.838638 
	C105.338760,247.867462 103.675598,247.896301 101.613525,247.455551 
	C100.958366,246.952286 100.701981,246.950317 100.445465,246.980072 
	C100.146278,246.762589 99.847092,246.545105 99.149704,245.973114 
	C98.247177,245.387329 97.742859,245.156036 97.238541,244.924744 
	C96.894600,244.470490 96.550652,244.016251 96.436188,243.271408 
	C96.665672,242.980804 97.090698,242.954239 97.305725,242.804550 
	C97.323418,242.102432 97.126083,241.550018 96.681305,240.996002 
	C96.104141,240.976471 95.774376,240.975372 95.444565,240.991119 
z"/>
<path fill="#172C60" opacity="1.000000" stroke="none" 
	d="
M59.033249,118.004959 
	C58.949707,117.840858 58.866161,117.676750 59.240803,117.215591 
	C61.754517,115.619476 63.659672,113.686607 65.897438,113.155708 
	C70.308418,112.109245 73.985687,116.380928 73.993103,122.143044 
	C74.024971,146.913559 74.048393,171.684250 73.967491,196.454514 
	C73.955147,200.236115 73.519295,204.034103 73.031151,207.792282 
	C72.263824,213.700012 68.222046,215.698746 62.915905,212.966278 
	C61.611889,212.294754 60.291920,211.654190 58.979286,210.999390 
	C58.924351,210.007629 58.869411,209.015869 58.893555,207.164368 
	C58.990654,187.364334 58.953800,168.423706 59.067257,149.484009 
	C59.093914,145.033981 59.893166,140.585312 59.864388,136.139053 
	C59.825249,130.092819 59.331841,124.049522 59.033249,118.004959 
z"/>
<path fill="#283362" opacity="1.000000" stroke="none" 
	d="
M135.054214,49.009327 
	C137.292023,43.348850 140.461624,41.159779 145.477585,42.179939 
	C150.420242,43.185188 151.951813,46.720299 151.991516,51.404221 
	C152.228638,79.381927 152.672348,107.358482 152.786682,135.336487 
	C152.967773,179.651611 152.952087,223.967529 152.996277,268.283142 
	C153.001602,273.630524 150.416718,277.422089 145.899368,278.302582 
	C141.201996,279.218170 137.850525,277.159271 136.134323,272.473785 
	C136.644043,272.089447 136.875366,272.078583 137.409180,272.235046 
	C139.339005,273.605865 140.837982,275.573181 142.617310,275.872192 
	C148.335312,276.833099 150.992477,274.318878 150.946106,267.791870 
	C150.879028,258.349609 150.072952,248.911118 150.056717,239.470200 
	C149.964233,185.701202 150.012711,131.931992 150.013290,78.162842 
	C150.013397,69.511459 150.131287,60.857971 149.975815,52.209393 
	C149.856598,45.577587 146.124741,42.818542 140.432358,45.156406 
	C138.755005,45.845303 137.532501,47.641724 135.839752,48.951012 
	C135.403397,48.984062 135.228806,48.996693 135.054214,49.009327 
z"/>
<path fill="#252E5B" opacity="1.000000" stroke="none" 
	d="
M212.438995,47.828209 
	C211.915222,49.226177 211.340408,50.984268 210.196747,52.212898 
	C198.041473,65.271584 188.005630,79.622345 180.345551,95.882942 
	C169.684052,118.514870 167.405060,142.372528 169.322952,166.611130 
	C170.327728,179.309540 173.099091,192.291168 177.628571,204.170349 
	C182.287415,216.388809 190.059952,227.419495 196.460968,238.974915 
	C197.332077,240.547485 198.150864,242.149033 199.014709,244.068665 
	C195.931213,240.466507 192.486771,236.752853 189.777023,232.563934 
	C170.430878,202.657166 163.238678,169.733719 167.431976,134.617355 
	C171.521118,100.373108 187.195618,71.663277 212.438995,47.828209 
z"/>
<path fill="#2B3059" opacity="1.000000" stroke="none" 
	d="
M107.334435,247.784790 
	C112.539139,241.157745 112.083000,233.209198 112.065186,225.223587 
	C111.968330,181.813446 112.049385,138.402954 111.982475,94.992699 
	C111.973816,89.376808 111.463341,83.761688 111.289551,77.674408 
	C112.033600,79.529129 113.224258,81.853783 113.232216,84.182472 
	C113.403908,134.436096 113.457893,184.690155 113.486572,234.944168 
	C113.489471,240.022125 112.997398,245.014313 107.334435,247.784790 
z"/>
<path fill="#050E45" opacity="1.000000" stroke="none" 
	d="
M137.106689,272.067749 
	C136.875366,272.078583 136.644043,272.089447 136.066223,272.125061 
	C135.165863,268.293457 134.162430,264.440582 134.132462,260.580139 
	C133.962631,238.684799 134.025681,216.787643 134.368088,194.128357 
	C134.448975,189.235367 134.171219,185.105118 133.893463,180.974869 
	C133.840530,155.633881 133.787598,130.292892 134.102875,104.189926 
	C134.646072,95.030792 134.909454,86.634079 134.952789,78.236237 
	C134.970276,74.843704 134.506760,71.448700 134.262146,68.054817 
	C134.237198,63.338264 134.212234,58.621716 134.513336,53.266026 
	C134.790588,52.282467 134.741791,51.938046 134.692993,51.593620 
	C134.736877,50.938148 134.780731,50.282681 134.939407,49.318268 
	C135.228806,48.996693 135.403397,48.984062 135.814209,49.427742 
	C135.703140,77.126068 135.223251,104.367355 135.072235,131.610458 
	C135.009750,142.881775 135.882919,154.156021 135.929855,165.430603 
	C136.066971,198.367096 135.977737,231.304504 136.063644,264.241333 
	C136.070450,266.851013 136.743347,269.458984 137.106689,272.067749 
z"/>
<path fill="#212B5A" opacity="1.000000" stroke="none" 
	d="
M218.744370,265.076111 
	C220.012665,265.211151 221.766037,265.191315 222.886154,266.023682 
	C234.253357,274.470734 246.308899,281.652039 260.035828,285.454803 
	C268.111023,287.691833 276.322662,289.677277 284.602966,290.882721 
	C301.679596,293.368713 318.568207,291.347260 335.124146,286.898682 
	C341.641998,285.147308 347.889618,282.390289 354.636505,280.325623 
	C355.021576,280.741272 355.030426,280.922485 355.039276,281.103729 
	C341.663208,288.032013 327.401093,291.479340 312.453949,293.250763 
	C293.406494,295.508179 275.091644,293.053436 257.175201,286.872925 
	C243.153625,282.036041 230.344528,274.874908 218.744370,265.076111 
z"/>
<path fill="#252E5B" opacity="1.000000" stroke="none" 
	d="
M58.956017,211.366943 
	C60.291920,211.654190 61.611889,212.294754 62.915905,212.966278 
	C68.222046,215.698746 72.263824,213.700012 73.031151,207.792282 
	C73.519295,204.034103 73.955147,200.236115 73.967491,196.454514 
	C74.048393,171.684250 74.024971,146.913559 73.993103,122.143044 
	C73.985687,116.380928 70.308418,112.109245 65.897438,113.155708 
	C63.659672,113.686607 61.754517,115.619476 59.343712,116.959267 
	C59.175766,112.674171 61.873192,110.991531 65.755226,110.903030 
	C70.055794,110.804970 75.376999,114.816963 75.898865,118.370087 
	C76.066864,119.513947 76.051865,120.691002 76.049194,121.852699 
	C75.984261,150.094620 75.870789,178.336548 75.878876,206.578430 
	C75.880081,210.793976 74.989586,214.597061 70.585823,215.589462 
	C66.257393,216.564896 61.479263,217.011322 58.956017,211.366943 
z"/>
<path fill="#0C1950" opacity="1.000000" stroke="none" 
	d="
M95.156265,83.473541 
	C95.833115,84.872971 96.924644,86.731361 96.928345,88.591919 
	C97.020142,134.758301 96.996925,180.924911 96.709564,227.284576 
	C96.003433,224.650955 95.581871,221.824234 95.160316,218.997513 
	C95.128242,173.976181 95.096169,128.954849 95.156265,83.473541 
z"/>
<path fill="#1F2958" opacity="1.000000" stroke="none" 
	d="
M359.103088,28.505337 
	C356.256042,27.933252 353.149475,27.354362 350.350952,26.092390 
	C335.220215,19.269331 319.403381,15.624276 302.811768,16.074560 
	C292.274780,16.360529 281.750000,17.259434 271.234833,18.077263 
	C268.506744,18.289442 265.835236,19.229498 262.695557,19.657454 
	C270.152863,17.536566 277.987396,14.294734 285.964203,13.895415 
	C309.290649,12.727693 332.298279,14.903555 353.795776,25.274029 
	C355.578674,26.134108 357.258179,27.208466 359.103088,28.505337 
z"/>
<path fill="#2F365E" opacity="1.000000" stroke="none" 
	d="
M37.643471,154.445129 
	C37.802357,160.023254 38.125637,165.168884 38.014420,170.305099 
	C37.884514,176.304199 34.991215,179.595276 30.157236,179.853241 
	C24.418720,180.159470 20.911579,177.407242 20.366678,171.114716 
	C19.853106,165.183960 19.936527,159.166245 20.243290,153.211823 
	C20.457441,149.055023 25.067104,145.716095 29.473606,145.834763 
	C34.231728,145.962891 36.788296,148.529373 37.643471,154.445129 
M34.003021,149.480759 
	C28.434763,145.560562 21.940187,149.388382 22.055031,153.756363 
	C22.224768,160.212189 22.510242,166.672913 23.029848,173.108673 
	C23.351170,177.088501 26.213507,178.408295 29.802588,177.969208 
	C33.401524,177.528915 36.121017,175.987152 36.056290,171.662674 
	C35.969013,165.831909 36.123074,159.996506 35.968155,154.168549 
	C35.931629,152.794495 35.074524,151.442276 34.003021,149.480759 
z"/>
<path fill="#1F2958" opacity="1.000000" stroke="none" 
	d="
M406.031555,245.453598 
	C401.962769,245.247681 400.424103,242.696899 402.955902,239.712997 
	C417.082581,223.063919 423.662628,203.046494 428.956024,182.418137 
	C429.150146,181.661728 429.567627,180.962646 430.201050,180.117706 
	C427.984497,202.136108 418.954437,221.606567 405.933899,239.385071 
	C404.369415,241.521194 403.136444,243.129959 406.031555,245.453598 
z"/>
<path fill="#252E5B" opacity="1.000000" stroke="none" 
	d="
M431.188416,178.674530 
	C430.724152,176.831085 429.872162,174.571930 430.109344,172.433609 
	C431.790588,157.276001 431.533417,142.192154 429.090424,127.135796 
	C428.855042,125.684990 429.054169,124.163681 429.074890,122.215172 
	C430.341187,128.666229 432.494537,135.560120 432.624725,142.492004 
	C432.848755,154.420456 431.812256,166.372589 431.188416,178.674530 
z"/>
<path fill="#1F2958" opacity="1.000000" stroke="none" 
	d="
M407.965271,295.978790 
	C416.967224,305.633118 425.972595,315.284180 434.969116,324.943573 
	C437.899323,328.089661 440.806366,331.257294 443.861023,335.078979 
	C443.975586,336.229919 443.953156,336.716888 443.930725,337.203857 
	C438.397552,331.339081 432.825989,325.509949 427.341003,319.600403 
	C420.605896,312.343964 413.943146,305.020355 407.204102,297.193359 
	C407.427826,296.433533 407.696564,296.206177 407.965271,295.978790 
z"/>
<path fill="#252E5B" opacity="1.000000" stroke="none" 
	d="
M363.350983,276.966522 
	C364.067444,275.657043 364.946136,274.058472 366.254120,272.981079 
	C367.902985,271.622864 369.995422,270.817932 371.734192,269.551514 
	C378.899658,264.332611 379.081787,264.115387 385.047821,270.673828 
	C390.587311,276.763367 395.626068,283.308411 400.869202,290.027557 
	C393.460480,282.636841 386.067780,274.871460 378.712921,267.145782 
	C373.614075,270.462433 368.658936,273.685638 363.350983,276.966522 
z"/>
<path fill="#252E5B" opacity="1.000000" stroke="none" 
	d="
M411.999023,77.646675 
	C410.576355,76.744743 408.848572,75.703331 407.842834,74.183983 
	C400.330658,62.835102 391.425934,52.778248 380.848083,44.194378 
	C379.738007,43.293522 378.996155,41.938824 378.041321,40.457294 
	C390.104889,47.688538 398.984955,58.451775 407.266907,69.784592 
	C409.010559,72.170601 410.449097,74.779625 411.999023,77.646675 
z"/>
<path fill="#252E5B" opacity="1.000000" stroke="none" 
	d="
M429.157379,120.707390 
	C428.302979,120.063560 427.346985,119.221596 426.927887,118.166412 
	C422.431732,106.844940 418.010345,95.493690 413.597748,84.139221 
	C413.007111,82.619331 412.578522,81.036453 412.098816,79.086998 
	C414.967865,83.649429 418.456024,88.356415 420.513336,93.622406 
	C423.927917,102.362602 426.422791,111.462097 429.157379,120.707390 
z"/>
<path fill="#050E45" opacity="1.000000" stroke="none" 
	d="
M58.830109,118.386169 
	C59.331841,124.049522 59.825249,130.092819 59.864388,136.139053 
	C59.893166,140.585312 59.093914,145.033981 59.067257,149.484009 
	C58.953800,168.423706 58.990654,187.364334 58.945717,206.790649 
	C58.520214,206.129608 57.775501,204.983063 57.773754,203.835358 
	C57.731949,176.381424 57.761871,148.927368 57.828133,121.473434 
	C57.830311,120.570778 58.349030,119.669365 58.830109,118.386169 
z"/>
<path fill="#1F2958" opacity="1.000000" stroke="none" 
	d="
M459.085236,299.530212 
	C457.691406,299.261292 455.765625,299.085236 454.729187,298.033081 
	C444.926086,288.081635 435.270111,277.985138 425.598419,267.904877 
	C425.290131,267.583588 425.267914,266.987823 425.124512,266.162537 
	C426.193726,266.542908 427.394135,267.138885 428.285828,268.040314 
	C438.539581,278.405640 448.746490,288.817291 459.085236,299.530212 
z"/>
<path fill="#1F2958" opacity="1.000000" stroke="none" 
	d="
M473.503479,333.863770 
	C473.126007,332.643372 472.646576,331.097839 472.960419,329.734955 
	C475.075409,320.550568 472.104919,313.492676 464.762695,307.743530 
	C462.428040,305.915436 460.976196,302.959900 459.139221,300.156555 
	C463.897736,304.767700 469.241852,309.308685 473.209595,314.837463 
	C477.296051,320.531738 476.953979,327.252533 473.503479,333.863770 
z"/>
<path fill="#34406C" opacity="1.000000" stroke="none" 
	d="
M134.065918,68.403610 
	C134.506760,71.448700 134.970276,74.843704 134.952789,78.236237 
	C134.909454,86.634079 134.646072,95.030792 134.179840,103.728485 
	C133.882278,92.270142 133.875977,80.511269 134.065918,68.403610 
z"/>
<path fill="#232B57" opacity="1.000000" stroke="none" 
	d="
M444.064270,337.511536 
	C443.953156,336.716888 443.975586,336.229919 444.010559,335.377869 
	C449.475342,340.096924 455.950775,341.913422 463.739716,341.063171 
	C458.962799,344.742493 453.759644,343.258942 448.649811,340.820190 
	C447.052307,340.057678 445.675568,338.832581 444.064270,337.511536 
z"/>
<path fill="#212B5A" opacity="1.000000" stroke="none" 
	d="
M201.997681,248.340881 
	C205.681870,251.176880 209.445541,254.263550 213.000351,257.574463 
	C215.035690,259.470184 216.731445,261.730408 218.386749,264.159332 
	C212.792145,259.223267 207.390884,253.954391 201.997681,248.340881 
z"/>
<path fill="#2B3059" opacity="1.000000" stroke="none" 
	d="
M257.010437,22.004887 
	C251.675461,24.255798 246.340469,26.506712 240.578888,28.623657 
	C245.506134,25.934116 250.859985,23.378542 256.604980,21.116116 
	C257.000916,21.607803 257.005676,21.806345 257.010437,22.004887 
z"/>
<path fill="#232D5B" opacity="1.000000" stroke="none" 
	d="
M225.667542,37.067650 
	C223.936127,39.369305 222.061386,41.951942 219.733856,44.026573 
	C217.934769,45.630188 215.568344,46.597305 213.086823,47.801781 
	C216.922745,44.214077 221.125992,40.671989 225.667542,37.067650 
z"/>
<path fill="#2B3059" opacity="1.000000" stroke="none" 
	d="
M95.066582,219.457947 
	C95.581871,221.824234 96.003433,224.650955 96.709435,227.755310 
	C96.991425,230.383881 96.988976,232.734818 96.728027,235.739380 
	C96.307976,237.263992 96.146431,238.135010 95.984894,239.006012 
	C95.984894,239.006012 95.568352,239.010468 95.360107,239.014374 
	C95.092194,232.651657 95.032516,226.285019 95.066582,219.457947 
z"/>
<path fill="#34406C" opacity="1.000000" stroke="none" 
	d="
M133.739838,181.344818 
	C134.171219,185.105118 134.448975,189.235367 134.448273,193.663361 
	C133.975266,189.878998 133.780746,185.796875 133.739838,181.344818 
z"/>
<path fill="#1F2958" opacity="1.000000" stroke="none" 
	d="
M412.102661,252.516632 
	C410.504486,251.069336 408.792664,249.305695 407.129089,247.160706 
	C408.781189,248.586365 410.385101,250.393326 412.102661,252.516632 
z"/>
<path fill="#252E5B" opacity="1.000000" stroke="none" 
	d="
M407.817719,295.673370 
	C407.696564,296.206177 407.427826,296.433533 407.045959,296.903168 
	C405.339569,295.646210 403.746338,294.147003 402.034088,292.337952 
	C403.833435,293.141418 405.751801,294.254669 407.817719,295.673370 
z"/>
<path fill="#1F2958" opacity="1.000000" stroke="none" 
	d="
M423.096741,263.533997 
	C421.847290,262.733307 420.486694,261.624512 419.143250,260.150726 
	C420.435455,260.932465 421.710541,262.079163 423.096741,263.533997 
z"/>
<path fill="#1F2958" opacity="1.000000" stroke="none" 
	d="
M417.123596,257.504333 
	C415.867828,256.707428 414.502228,255.600388 413.161499,254.126297 
	C414.462219,254.904221 415.738007,256.049194 417.123596,257.504333 
z"/>
<path fill="#0C1950" opacity="1.000000" stroke="none" 
	d="
M107.092384,75.989777 
	C105.650215,75.991753 104.208054,75.993721 102.355034,75.656670 
	C101.959801,74.869743 101.975410,74.421837 101.991020,73.973938 
	C103.398331,73.887138 104.805634,73.800346 106.606308,74.204254 
	C107.030586,75.126564 107.061485,75.558167 107.092384,75.989777 
z"/>
<path fill="#1F2958" opacity="1.000000" stroke="none" 
	d="
M366.061066,32.499153 
	C364.533325,32.060829 362.838776,31.319357 361.122620,30.208706 
	C362.698792,30.625019 364.296509,31.410513 366.061066,32.499153 
z"/>
<path fill="#1F2958" opacity="1.000000" stroke="none" 
	d="
M374.108643,37.591789 
	C373.189697,37.408012 372.172699,36.983051 371.136902,36.185555 
	C372.082275,36.325546 373.046417,36.838074 374.108643,37.591789 
z"/>
<path fill="#2B3059" opacity="1.000000" stroke="none" 
	d="
M101.662163,73.953354 
	C101.975410,74.421837 101.959801,74.869743 101.922379,75.653030 
	C101.113983,75.962349 100.327393,75.936279 99.149078,75.853455 
	C99.616005,75.175377 100.474655,74.554070 101.662163,73.953354 
z"/>
<path fill="#2B3059" opacity="1.000000" stroke="none" 
	d="
M107.477982,75.985123 
	C107.061485,75.558167 107.030586,75.126564 107.000916,74.370445 
	C107.976387,74.452705 108.950638,74.859474 110.054214,75.564651 
	C109.410225,75.902191 108.636902,75.941322 107.477982,75.985123 
z"/>
<path fill="#1F2958" opacity="1.000000" stroke="none" 
	d="
M257.398041,21.997496 
	C257.005676,21.806345 257.000916,21.607803 256.991943,21.111385 
	C258.375549,20.256611 259.763336,19.699713 261.529053,19.153748 
	C260.533203,20.106487 259.159424,21.048298 257.398041,21.997496 
z"/>
<path fill="#252E5B" opacity="1.000000" stroke="none" 
	d="
M358.985229,278.004761 
	C359.917633,277.698608 360.850006,277.392426 362.174744,277.131897 
	C361.631256,277.822968 360.695465,278.468445 359.392822,278.864868 
	C359.012360,278.412109 358.998810,278.208435 358.985229,278.004761 
z"/>
<path fill="#2B3059" opacity="1.000000" stroke="none" 
	d="
M95.449104,241.263977 
	C95.774376,240.975372 96.104141,240.976471 96.708496,241.322479 
	C97.018997,242.085129 97.054848,242.519684 97.090698,242.954239 
	C97.090698,242.954239 96.665672,242.980804 96.452873,242.974976 
	C95.977928,242.491714 95.715782,242.014282 95.449104,241.263977 
z"/>
<path fill="#202A5A" opacity="1.000000" stroke="none" 
	d="
M98.515381,75.860199 
	C98.707451,76.385254 98.601036,77.005280 97.981483,77.829559 
	C97.295891,78.021225 97.123436,78.008636 96.950989,77.996056 
	C97.372955,77.315758 97.794930,76.635460 98.515381,75.860199 
z"/>
<path fill="#232D5B" opacity="1.000000" stroke="none" 
	d="
M235.555695,30.806299 
	C235.283417,31.369051 234.724869,31.967722 233.832428,32.379051 
	C234.088837,31.741877 234.679138,31.292049 235.555695,30.806299 
z"/>
<path fill="#212B5A" opacity="1.000000" stroke="none" 
	d="
M358.657196,278.054443 
	C358.998810,278.208435 359.012360,278.412109 359.051605,278.920898 
	C358.604980,279.519745 358.132660,279.813446 357.375671,280.129456 
	C357.503693,279.469208 357.916412,278.786682 358.657196,278.054443 
z"/>
<path fill="#2B3059" opacity="1.000000" stroke="none" 
	d="
M100.574173,247.146820 
	C100.701981,246.950317 100.958366,246.952286 101.323944,247.028320 
	C101.511932,247.268616 101.590591,247.466583 101.669250,247.664551 
	C101.347130,247.547546 101.025002,247.430557 100.574173,247.146820 
z"/>
<path fill="#2B3059" opacity="1.000000" stroke="none" 
	d="
M232.007492,33.989159 
	C231.421234,34.235481 230.834991,34.481800 229.928223,34.605175 
	C230.209915,34.003632 230.812134,33.525032 231.708191,33.262981 
	C232.003876,33.649406 232.005692,33.819283 232.007492,33.989159 
z"/>
<path fill="#0C1950" opacity="1.000000" stroke="none" 
	d="
M96.837341,78.053177 
	C97.123436,78.008636 97.295891,78.021225 97.727524,78.031326 
	C97.827751,78.574280 97.668800,79.119705 97.210335,79.416412 
	C96.842323,78.899803 96.773827,78.631920 96.705330,78.364029 
	C96.705330,78.364029 96.723686,78.110298 96.837341,78.053177 
z"/>
<path fill="#2B3059" opacity="1.000000" stroke="none" 
	d="
M97.332085,245.234375 
	C97.742859,245.156036 98.247177,245.387329 98.884888,245.870392 
	C98.487404,245.929428 97.956520,245.736710 97.332085,245.234375 
z"/>
<path fill="#252E5B" opacity="1.000000" stroke="none" 
	d="
M355.349457,281.083862 
	C355.030426,280.922485 355.021576,280.741272 355.010010,280.288269 
	C355.478882,280.017242 355.950470,280.018036 356.775543,280.058838 
	C356.639252,280.420593 356.149445,280.742310 355.349457,281.083862 
z"/>
<path fill="#202A5A" opacity="1.000000" stroke="none" 
	d="
M96.454933,78.612846 
	C96.773827,78.631920 96.842323,78.899803 96.968369,79.578384 
	C96.767975,80.250427 96.510025,80.511787 95.979668,80.838074 
	C95.873024,80.222557 96.038780,79.542114 96.454933,78.612846 
z"/>
<path fill="#232D5B" opacity="1.000000" stroke="none" 
	d="
M232.330933,33.938133 
	C232.005692,33.819283 232.003876,33.649406 231.998917,33.224739 
	C232.155930,32.683380 232.393372,32.493500 232.939682,32.394341 
	C232.998962,32.887955 232.826675,33.387531 232.330933,33.938133 
z"/>
<path fill="#1F2958" opacity="1.000000" stroke="none" 
	d="
M361.036102,29.586750 
	C360.556519,29.706568 359.962494,29.521749 359.247864,29.034786 
	C359.725403,28.915796 360.323517,29.098955 361.036102,29.586750 
z"/>
<path fill="#1F2958" opacity="1.000000" stroke="none" 
	d="
M368.090668,33.511311 
	C367.599182,33.662529 366.990479,33.496307 366.260864,33.021519 
	C366.751099,32.873257 367.362274,33.033562 368.090668,33.511311 
z"/>
<path fill="#1F2958" opacity="1.000000" stroke="none" 
	d="
M370.037109,34.578590 
	C369.563843,34.701488 368.966095,34.526478 368.241852,34.051636 
	C368.714447,33.928093 369.313507,34.104385 370.037109,34.578590 
z"/>
<path fill="#2B3059" opacity="1.000000" stroke="none" 
	d="
M229.278915,34.603294 
	C229.173416,34.973522 228.774170,35.425983 228.026917,35.876308 
	C228.114319,35.477959 228.549744,35.081745 229.278915,34.603294 
z"/>
<path fill="#2B3059" opacity="1.000000" stroke="none" 
	d="
M236.766144,30.122934 
	C236.782043,30.335392 236.531860,30.561924 236.023071,30.810553 
	C236.009674,30.600767 236.254868,30.368887 236.766144,30.122934 
z"/>
<path fill="#2B3059" opacity="1.000000" stroke="none" 
	d="
M111.146561,76.754288 
	C110.921158,76.816093 110.602089,76.592300 110.192856,76.084000 
	C110.419426,76.022552 110.736168,76.245621 111.146561,76.754288 
z"/>
<path fill="#34406C" opacity="1.000000" stroke="none" 
	d="
M134.481750,51.784786 
	C134.741791,51.938046 134.790588,52.282467 134.645920,52.817116 
	C134.363297,52.786755 134.252045,52.571709 134.194626,52.343140 
	C134.167191,52.233994 134.242004,52.099159 134.481750,51.784786 
z"/>
<path fill="#2B3059" opacity="1.000000" stroke="none" 
	d="
M239.715302,28.670242 
	C239.752960,28.860661 239.519150,29.113363 239.142044,29.216808 
	C239.147110,28.955875 239.295456,28.844200 239.715302,28.670242 
z"/>
<path fill="#1F2958" opacity="1.000000" stroke="none" 
	d="
M425.119812,265.622925 
	C424.898438,265.696381 424.592743,265.506195 424.201294,265.051331 
	C424.422180,264.977539 424.728821,265.168396 425.119812,265.622925 
z"/>
<path fill="#1F2958" opacity="1.000000" stroke="none" 
	d="
M424.120422,264.617981 
	C423.901398,264.689423 423.595886,264.497833 423.209686,264.039124 
	C423.430664,263.966339 423.732269,264.160675 424.120422,264.617981 
z"/>
<path fill="#1F2958" opacity="1.000000" stroke="none" 
	d="
M375.323608,38.562210 
	C375.065582,38.680897 374.707825,38.503414 374.231567,38.041550 
	C374.483307,37.926796 374.853607,38.096420 375.323608,38.562210 
z"/>
<path fill="#1F2958" opacity="1.000000" stroke="none" 
	d="
M419.141357,259.599365 
	C418.917358,259.677246 418.606903,259.491791 418.212646,259.039001 
	C418.437500,258.959778 418.746185,259.147919 419.141357,259.599365 
z"/>
<path fill="#1F2958" opacity="1.000000" stroke="none" 
	d="
M418.137695,258.602814 
	C417.914978,258.674561 417.608063,258.481812 417.228271,258.017639 
	C417.454742,257.943604 417.754120,258.140961 418.137695,258.602814 
z"/>
<path fill="#1F2958" opacity="1.000000" stroke="none" 
	d="
M413.167297,253.570587 
	C412.938171,253.656067 412.622101,253.477356 412.222656,253.029297 
	C412.453003,252.942093 412.766663,253.124237 413.167297,253.570587 
z"/>
<path fill="#1F2958" opacity="1.000000" stroke="none" 
	d="
M371.099121,35.634281 
	C370.886993,35.707626 370.582367,35.521957 370.184692,35.077511 
	C370.396637,35.004246 370.701630,35.189754 371.099121,35.634281 
z"/>
<path fill="#1F2958" opacity="1.000000" stroke="none" 
	d="
M407.151123,246.590515 
	C406.922180,246.670303 406.612122,246.484238 406.223511,246.028946 
	C406.453339,245.948029 406.761658,246.136353 407.151123,246.590515 
z"/>
<path fill="#FAF9F9" opacity="1.000000" stroke="none" 
	d="
M238.303391,52.119495 
	C238.790558,51.911186 239.277740,51.702877 240.210861,51.193367 
	C242.181900,49.663597 243.706985,48.435028 245.232071,47.206459 
	C245.232071,47.206459 245.124283,47.170292 245.528229,47.213081 
	C247.296295,46.711773 248.720459,46.282677 250.015610,45.606480 
	C273.023590,33.594025 297.200500,30.790815 322.501495,36.112125 
	C340.030579,39.798851 355.612305,47.547276 369.887817,58.163418 
	C369.887817,58.163418 369.945557,58.053787 370.042236,58.391380 
	C376.132416,64.624611 382.125885,70.520248 388.119385,76.415878 
	C388.119385,76.415871 388.247223,76.697044 388.532471,77.054367 
	C391.210785,80.608208 393.603821,83.804718 396.046387,87.252274 
	C396.300690,87.757774 396.505402,88.012230 396.716064,88.281265 
	C396.721985,88.295845 396.699860,88.320480 396.788086,88.659645 
	C414.775940,118.727501 418.642792,150.702652 410.581451,183.961166 
	C407.770538,195.558090 401.983704,206.433701 397.555969,217.638718 
	C397.674469,217.770340 397.792938,217.901962 397.484985,217.982605 
	C396.714966,218.624680 396.371368,219.317703 395.751495,220.201538 
	C392.537872,224.598343 389.600555,228.804337 386.643311,233.045166 
	C386.623322,233.079971 386.574799,233.143921 386.574799,233.143921 
	C386.574799,233.143921 386.273529,233.305618 386.151306,233.496796 
	C386.029114,233.687973 385.969971,233.806046 385.969971,233.806046 
	C384.665771,235.157990 383.361542,236.509918 381.627014,238.309540 
	C377.371826,242.210526 373.693176,245.844254 369.695404,249.084213 
	C356.192322,260.027618 340.690643,266.942749 323.653381,271.241028 
	C322.577881,271.503143 321.815887,271.825867 320.651733,272.125305 
	C319.465118,272.263214 318.680664,272.424408 317.570557,272.494568 
	C316.216034,272.773438 315.187134,273.143372 313.780884,273.417297 
	C311.278259,273.514587 309.153046,273.707947 306.752686,273.798737 
	C305.335236,273.839539 304.192902,273.982941 303.050568,274.126282 
	C301.639679,274.077209 300.228790,274.028137 298.016205,273.960693 
	C287.414825,272.346191 277.449524,271.408752 267.855133,268.996277 
	C254.174866,265.556427 242.328934,258.061066 230.944061,249.707245 
	C230.884140,249.599609 230.643448,249.546982 230.643448,249.546982 
	C230.643448,249.546982 230.531693,249.500793 230.343842,249.168976 
	C229.293289,248.055023 228.428482,247.275192 227.568161,246.490448 
	C188.733963,211.067886 177.633575,167.574402 190.304092,117.355057 
	C193.837006,103.352379 201.209106,91.076294 209.312439,79.256477 
	C209.312439,79.256477 209.141373,79.138748 209.473816,79.092789 
	C210.249420,78.393173 210.692596,77.739532 211.135773,77.085876 
	C211.135757,77.085876 211.041824,77.035149 211.332336,76.973633 
	C211.913589,76.419907 212.204300,75.927696 212.495026,75.435486 
	C212.390625,75.273056 212.286224,75.110626 212.609940,75.013367 
	C214.077530,73.736763 215.116989,72.394981 216.156448,71.053200 
	C216.525223,71.028778 216.781326,70.846252 217.314987,70.146454 
	C219.873596,67.242378 222.041977,64.697472 224.210342,62.152565 
	C224.210342,62.152565 224.110931,62.124985 224.392380,62.102913 
	C224.883972,61.794949 225.094131,61.509056 225.304276,61.223160 
	C225.304276,61.223160 225.185013,61.190697 225.418243,61.238579 
	C225.651489,61.286457 226.016953,61.075985 226.016953,61.075981 
	C226.316803,60.958462 226.616653,60.840946 227.336487,60.379135 
	C231.272095,57.396393 234.787750,54.757946 238.303391,52.119495 
M371.123840,240.032394 
	C371.123840,240.032394 371.060242,240.118149 371.783112,239.614639 
	C371.845978,227.081894 371.908875,214.549164 372.088409,201.353241 
	C371.682587,200.571136 371.276794,199.789017 370.697540,198.327896 
	C369.112946,197.506134 367.552856,196.031494 365.939728,195.971008 
	C357.003448,195.635818 348.039215,195.301575 339.116394,195.692780 
	C335.155396,195.866455 332.517273,199.192108 332.378662,203.231827 
	C332.020416,213.671875 331.736725,224.134613 332.040680,234.570297 
	C332.249786,241.749146 335.135956,244.214355 342.396240,244.433350 
	C349.530670,244.648560 356.687592,244.661316 363.812988,244.316299 
	C366.054199,244.207779 368.225525,242.655548 370.624725,241.555420 
	C370.624725,241.555420 370.628784,241.269241 371.005951,241.009491 
	C371.103271,240.715179 371.168427,240.413910 371.123840,240.032394 
M314.681854,120.044121 
	C314.937347,119.729889 315.192841,119.415665 315.974548,118.461243 
	C316.096069,115.036591 316.217590,111.611938 316.983429,107.591370 
	C316.772797,100.660057 316.562164,93.728745 316.328522,85.936600 
	C316.220764,83.624489 316.113007,81.312370 316.016571,78.375069 
	C315.712280,78.097206 315.407959,77.819336 315.151398,77.248413 
	C315.151398,77.248413 314.992645,76.997498 314.912567,76.431908 
	C314.603912,76.270836 314.295227,76.109756 313.343994,75.528679 
	C312.824646,75.134827 312.308044,74.401665 311.785583,74.397476 
	C302.316681,74.321381 292.839050,74.107513 283.381744,74.442787 
	C279.853638,74.567871 277.806366,77.174294 277.594910,81.730095 
	C277.416565,92.643433 276.977234,103.561378 277.169464,114.468185 
	C277.266357,119.967361 280.777863,122.880859 286.230957,122.966866 
	C293.849670,123.087006 301.478699,123.147530 309.087677,122.842972 
	C310.836884,122.772964 312.522491,121.114685 314.165863,120.088028 
	C314.165863,120.088028 314.081268,120.176399 314.681854,120.044121 
M314.284180,197.766205 
	C312.110931,197.087570 309.956635,195.906448 307.760956,195.823730 
	C300.943787,195.566864 294.101471,195.501068 287.286530,195.784439 
	C279.304260,196.116348 277.507568,198.153137 277.360352,206.188400 
	C277.192444,215.352280 277.061859,224.518204 277.074371,233.683014 
	C277.077240,235.788361 277.730103,237.892807 278.150391,240.704407 
	C280.744995,241.934769 283.299072,244.106796 285.941772,244.220627 
	C294.189697,244.575928 302.475464,244.273346 310.737854,243.980530 
	C314.826233,243.835632 317.168549,241.314163 317.173462,237.230774 
	C317.183411,228.980957 316.948456,220.730865 317.045380,211.970810 
	C316.710022,207.361084 318.813385,202.338242 314.284180,197.766205 
M335.907867,75.727592 
	C335.907867,75.727592 335.755737,75.712273 335.020386,75.770058 
	C334.075226,77.899834 332.374542,80.007858 332.312469,82.163071 
	C332.002075,92.939865 332.064697,103.729279 332.113251,114.513733 
	C332.137878,119.986984 334.812195,122.830139 340.292664,122.935158 
	C348.419525,123.090897 356.553284,123.007637 364.682129,122.890083 
	C369.098389,122.826218 371.916382,120.789177 372.140350,115.344284 
	C372.112457,114.902382 372.084564,114.460480 372.180298,113.098137 
	C372.302399,103.692825 372.592560,94.284576 372.428711,84.884247 
	C372.387604,82.525345 370.889160,80.191841 369.906799,77.434944 
	C369.747406,77.167000 369.515656,76.998657 368.962555,76.439827 
	C368.642456,76.299332 368.322357,76.158836 367.674591,75.887962 
	C367.674591,75.887962 367.322174,75.873604 366.957794,75.148018 
	C366.227234,74.821457 365.499084,74.217133 364.765717,74.210686 
	C356.050781,74.134018 347.334473,74.099495 338.620300,74.202385 
	C337.665588,74.213669 336.721802,75.148949 335.907867,75.727592 
M278.102631,139.525970 
	C277.797974,140.643402 277.239014,141.758301 277.227905,142.878616 
	C277.114502,154.322220 276.936127,165.769302 277.128906,177.209457 
	C277.191895,180.945770 279.779480,183.353333 283.599731,183.458817 
	C292.549316,183.705963 301.509674,183.846909 310.457184,183.648666 
	C312.297974,183.607864 314.101807,181.901123 316.557953,180.525040 
	C316.639191,166.691757 316.918152,152.852570 316.504486,139.034103 
	C316.461792,137.607727 312.349060,135.261719 310.024963,135.131897 
	C301.581909,134.660278 293.083069,134.694489 284.636139,135.132675 
	C282.526794,135.242096 280.532959,137.578842 278.102631,139.525970 
M224.045700,208.136169 
	C224.045700,208.136169 224.196854,208.223465 224.869980,207.998093 
	C226.191757,204.250412 228.606659,200.517410 228.657227,196.752655 
	C228.975922,173.030151 228.930588,149.298187 228.580719,125.575630 
	C228.521271,121.545158 226.410339,117.544930 224.933441,112.882851 
	C221.785172,110.307899 218.490952,109.801033 214.449020,112.237686 
	C213.911224,112.933434 213.373444,113.629181 212.180984,114.804237 
	C211.362946,119.339516 209.928177,123.862679 209.838806,128.412277 
	C209.531342,144.061630 209.572708,159.721436 209.726242,175.374847 
	C209.811111,184.026093 210.237701,192.682190 210.804733,201.316742 
	C211.056732,205.154236 212.216293,209.260635 216.587250,210.035263 
	C218.946213,210.453339 221.662476,208.855331 224.045700,208.136169 
M371.412415,179.272049 
	C371.579224,166.531235 371.746033,153.790405 371.917084,140.326370 
	C370.489441,136.271622 367.497498,134.889328 363.370819,134.960236 
	C356.052673,135.086014 348.730621,134.962448 341.410553,135.005646 
	C334.982910,135.043564 332.323425,137.573532 332.256104,144.064514 
	C332.147430,154.544693 332.188293,165.027222 332.259583,175.508118 
	C332.297058,181.014328 334.541992,183.559753 340.046600,183.716248 
	C348.024872,183.943085 356.031403,184.040085 363.989777,183.574890 
	C366.367096,183.435944 368.623718,181.231720 371.412415,179.272049 
M244.346527,145.129135 
	C244.328430,154.745712 244.147232,164.365768 244.353104,173.977554 
	C244.477661,179.792999 247.728561,183.160248 252.553772,183.325821 
	C257.938507,183.510605 261.707367,180.567184 261.988861,174.664932 
	C262.430969,165.393631 262.437012,156.073135 262.026703,146.800079 
	C261.774475,141.099792 258.528656,137.749252 253.573486,137.633530 
	C249.195282,137.531265 245.826309,139.809311 244.346527,145.129135 
z"/>
<path fill="#202A5A" opacity="1.000000" stroke="none" 
	d="
M208.946320,79.208130 
	C201.209106,91.076294 193.837006,103.352379 190.304092,117.355057 
	C177.633575,167.574402 188.733963,211.067886 227.568161,246.490448 
	C228.428482,247.275192 229.293289,248.055023 230.308945,249.119598 
	C229.174118,248.965759 227.628052,248.848358 226.637085,248.045654 
	C210.320358,234.828598 198.665817,218.142990 191.383331,198.586426 
	C184.505798,180.117340 181.740631,161.113922 183.652451,141.179199 
	C184.761398,129.616104 187.059387,118.507645 191.378403,108.040421 
	C195.373962,98.357086 201.336975,89.482422 206.514893,80.297493 
	C206.843140,79.715218 207.875427,79.529823 208.946320,79.208130 
z"/>
<path fill="#232D5B" opacity="1.000000" stroke="none" 
	d="
M397.915619,217.638062 
	C401.983704,206.433701 407.770538,195.558090 410.581451,183.961166 
	C418.642792,150.702652 414.775940,118.727501 397.107147,88.561432 
	C397.555359,88.077087 397.772766,88.030106 397.990204,87.983139 
	C400.223267,91.773384 402.762115,95.419098 404.634338,99.379936 
	C411.256256,113.389076 414.943909,128.034454 416.266418,143.635498 
	C417.861206,162.448303 414.718109,180.361725 408.923523,197.885193 
	C406.611115,204.878311 401.896423,211.077072 397.915619,217.638062 
z"/>
<path fill="#212B5A" opacity="1.000000" stroke="none" 
	d="
M369.890808,57.805084 
	C355.612305,47.547276 340.030579,39.798851 322.501495,36.112125 
	C297.200500,30.790815 273.023590,33.594025 250.015610,45.606480 
	C248.720459,46.282677 247.296295,46.711773 245.549561,47.265778 
	C246.700546,45.885666 248.005539,43.860939 249.806168,43.212479 
	C258.938782,39.923527 268.046051,36.332420 277.462555,34.133228 
	C285.718384,32.205105 294.431915,30.798943 302.838135,31.226946 
	C326.421173,32.427681 348.115295,39.881783 367.302948,53.945549 
	C368.421234,54.765198 369.041687,56.263996 369.890808,57.805084 
z"/>
<path fill="#232D5B" opacity="1.000000" stroke="none" 
	d="
M231.003998,249.814865 
	C242.328934,258.061066 254.174866,265.556427 267.855133,268.996277 
	C277.449524,271.408752 287.414825,272.346191 297.606812,274.077789 
	C294.911377,274.728882 291.780457,275.861755 288.743652,275.649292 
	C277.818329,274.885010 267.124573,272.358368 257.396515,267.457458 
	C248.335541,262.892609 239.971939,256.943604 231.149811,251.006073 
	C231.000198,250.210449 231.002090,250.012665 231.003998,249.814865 
z"/>
<path fill="#202A5A" opacity="1.000000" stroke="none" 
	d="
M323.966919,271.301605 
	C340.690643,266.942749 356.192322,260.027618 369.695404,249.084213 
	C373.693176,245.844254 377.371826,242.210526 381.509186,238.595367 
	C378.888916,242.077240 376.446075,246.301895 372.936462,249.261597 
	C359.562195,260.540314 343.844849,267.507477 327.289825,272.713959 
	C326.212494,273.052826 324.986328,272.918549 323.410339,272.996704 
	C322.991272,272.989105 322.972687,272.964142 323.072388,272.743103 
	C323.437042,272.115234 323.701996,271.708435 323.966919,271.301605 
z"/>
<path fill="#212B5A" opacity="1.000000" stroke="none" 
	d="
M388.333405,76.098862 
	C382.125885,70.520248 376.132416,64.624611 369.989502,58.423897 
	C370.653259,58.157200 371.680328,57.887520 372.247009,58.280941 
	C378.939209,62.927208 385.315002,67.902145 388.333405,76.098862 
z"/>
<path fill="#232B57" opacity="1.000000" stroke="none" 
	d="
M386.663269,233.010345 
	C389.600555,228.804337 392.537872,224.598343 395.963379,220.308716 
	C396.715851,220.417755 396.903107,220.668030 397.013367,220.975906 
	C394.208740,224.887039 391.404114,228.798172 387.964722,232.858536 
	C387.107788,233.008621 386.885529,233.009476 386.663269,233.010345 
z"/>
<path fill="#2B3059" opacity="1.000000" stroke="none" 
	d="
M237.911819,52.090683 
	C234.787750,54.757946 231.272095,57.396393 227.412048,60.109100 
	C228.639359,55.014767 232.875854,53.275829 237.911819,52.090683 
z"/>
<path fill="#212B5A" opacity="1.000000" stroke="none" 
	d="
M395.996857,87.001228 
	C393.603821,83.804718 391.210785,80.608208 388.660736,77.140396 
	C393.741516,77.835281 394.739838,82.594048 396.964691,86.643646 
	C397.000214,86.999939 396.996094,87.003914 396.746277,87.001831 
	C396.496460,86.999748 395.996857,87.001228 395.996857,87.001228 
z"/>
<path fill="#1F2958" opacity="1.000000" stroke="none" 
	d="
M223.852676,62.136116 
	C222.041977,64.697472 219.873596,67.242378 217.397461,69.913788 
	C216.661224,65.326950 220.610016,64.153442 223.852676,62.136116 
z"/>
<path fill="#202A5A" opacity="1.000000" stroke="none" 
	d="
M307.027802,273.901306 
	C309.153046,273.707947 311.278259,273.514587 314.238708,273.564148 
	C315.705200,273.857208 316.336487,273.907379 316.981750,273.974731 
	C316.995758,273.991882 317.025696,274.024811 317.025696,274.024811 
	C313.948181,274.645111 310.870697,275.265442 307.395569,275.583496 
	C307.007874,274.821289 307.017853,274.361298 307.027802,273.901306 
z"/>
<path fill="#202A5A" opacity="1.000000" stroke="none" 
	d="
M215.786469,71.070358 
	C215.116989,72.394981 214.077530,73.736763 212.774536,75.253006 
	C213.479477,73.980812 214.447968,72.534164 215.786469,71.070358 
z"/>
<path fill="#212B5A" opacity="1.000000" stroke="none" 
	d="
M244.868362,47.153053 
	C243.706985,48.435028 242.181900,49.663597 240.327606,50.949512 
	C241.500488,49.704456 243.002563,48.402050 244.868362,47.153053 
z"/>
<path fill="#232D5B" opacity="1.000000" stroke="none" 
	d="
M306.752686,273.798737 
	C307.017853,274.361298 307.007874,274.821289 306.994873,275.625671 
	C305.814453,275.513794 304.637024,275.057526 303.255096,274.363770 
	C304.192902,273.982941 305.335236,273.839539 306.752686,273.798737 
z"/>
<path fill="#202A5A" opacity="1.000000" stroke="none" 
	d="
M317.896179,272.585602 
	C318.680664,272.424408 319.465118,272.263214 320.822540,272.342346 
	C321.921234,272.709808 322.446960,272.836975 322.972687,272.964142 
	C322.972687,272.964142 322.991272,272.989105 323.000061,273.002350 
	C321.281708,273.345551 319.554535,273.675507 317.426544,274.015137 
	C317.025696,274.024811 316.995758,273.991882 317.064331,273.783905 
	C317.387360,273.245819 317.641785,272.915710 317.896179,272.585602 
z"/>
<path fill="#232D5B" opacity="1.000000" stroke="none" 
	d="
M397.285950,220.730652 
	C396.903107,220.668030 396.715851,220.417755 396.239685,220.117920 
	C396.371368,219.317703 396.714966,218.624680 397.314331,217.779785 
	C397.566254,218.580414 397.562378,219.532898 397.285950,220.730652 
z"/>
<path fill="#202A5A" opacity="1.000000" stroke="none" 
	d="
M210.781952,77.109138 
	C210.692596,77.739532 210.249420,78.393173 209.535416,79.176361 
	C209.652435,78.581398 210.040283,77.856895 210.781952,77.109138 
z"/>
<path fill="#202A5A" opacity="1.000000" stroke="none" 
	d="
M212.164673,75.436134 
	C212.204300,75.927696 211.913589,76.419907 211.356262,77.021355 
	C211.337875,76.565994 211.586105,76.001389 212.164673,75.436134 
z"/>
<path fill="#202A5A" opacity="1.000000" stroke="none" 
	d="
M386.643280,233.045151 
	C386.885529,233.009476 387.107788,233.008621 387.663300,233.010925 
	C387.675659,233.172699 387.354706,233.331345 386.804291,233.316956 
	C386.574799,233.143921 386.623322,233.079971 386.643280,233.045151 
z"/>
<path fill="#1F2958" opacity="1.000000" stroke="none" 
	d="
M225.025787,61.273273 
	C225.094131,61.509056 224.883972,61.794949 224.403107,62.153366 
	C224.337341,61.925056 224.542328,61.624222 225.025787,61.273273 
z"/>
<path fill="#212B5A" opacity="1.000000" stroke="none" 
	d="
M397.882385,87.768433 
	C397.772766,88.030106 397.555359,88.077087 397.018921,88.222275 
	C396.699860,88.320480 396.721985,88.295845 396.814545,87.971039 
	C396.936768,87.432114 396.966431,87.218010 396.996094,87.003914 
	C396.996094,87.003914 397.000214,86.999939 397.003784,86.997101 
	C397.321442,87.100731 397.577179,87.287224 397.882385,87.768433 
z"/>
<path fill="#202A5A" opacity="1.000000" stroke="none" 
	d="
M386.061890,233.979034 
	C385.969971,233.806046 386.029114,233.687973 386.084900,233.654327 
	C386.267212,233.829208 386.393738,234.037735 386.520264,234.246277 
	C386.398102,234.214844 386.275940,234.183426 386.061890,233.979034 
z"/>
<path fill="#202A5A" opacity="1.000000" stroke="none" 
	d="
M230.944061,249.707245 
	C231.002090,250.012665 231.000198,250.210449 230.997452,250.704971 
	C230.804871,250.693024 230.613129,250.384354 230.532410,249.811340 
	C230.643448,249.546982 230.884140,249.599609 230.944061,249.707245 
z"/>
<path fill="#1F2958" opacity="1.000000" stroke="none" 
	d="
M225.916779,60.907478 
	C226.016953,61.075985 225.651489,61.286457 225.440842,61.296104 
	C225.425659,61.116829 225.621124,60.927902 225.916779,60.907478 
z"/>
<path fill="#0C1950" opacity="1.000000" stroke="none" 
	d="
M96.250992,238.798843 
	C96.146431,238.135010 96.307976,237.263992 96.731400,236.180710 
	C96.834549,236.842850 96.675819,237.717255 96.250992,238.798843 
z"/>
<path fill="#0C1950" opacity="1.000000" stroke="none" 
	d="
M97.305725,242.804550 
	C97.054848,242.519684 97.018997,242.085129 96.955948,241.324081 
	C97.126083,241.550018 97.323418,242.102432 97.305725,242.804550 
z"/>
<path fill="#172C60" opacity="1.000000" stroke="none" 
	d="
M137.409180,272.235046 
	C136.743347,269.458984 136.070450,266.851013 136.063644,264.241333 
	C135.977737,231.304504 136.066971,198.367096 135.929855,165.430603 
	C135.882919,154.156021 135.009750,142.881775 135.072235,131.610458 
	C135.223251,104.367355 135.703140,77.126068 136.075989,49.407318 
	C137.532501,47.641724 138.755005,45.845303 140.432358,45.156406 
	C146.124741,42.818542 149.856598,45.577587 149.975815,52.209393 
	C150.131287,60.857971 150.013397,69.511459 150.013290,78.162842 
	C150.012711,131.931992 149.964233,185.701202 150.056717,239.470200 
	C150.072952,248.911118 150.879028,258.349609 150.946106,267.791870 
	C150.992477,274.318878 148.335312,276.833099 142.617310,275.872192 
	C140.837982,275.573181 139.339005,273.605865 137.409180,272.235046 
z"/>
<path fill="#192C60" opacity="1.000000" stroke="none" 
	d="
M34.298965,149.780380 
	C35.074524,151.442276 35.931629,152.794495 35.968155,154.168549 
	C36.123074,159.996506 35.969013,165.831909 36.056290,171.662674 
	C36.121017,175.987152 33.401524,177.528915 29.802588,177.969208 
	C26.213507,178.408295 23.351170,177.088501 23.029848,173.108673 
	C22.510242,166.672913 22.224768,160.212189 22.055031,153.756363 
	C21.940187,149.388382 28.434763,145.560562 34.298965,149.780380 
z"/>
<path fill="#F0964C" opacity="1.000000" stroke="none" 
	d="
M370.935638,179.973709 
	C368.623718,181.231720 366.367096,183.435944 363.989777,183.574890 
	C356.031403,184.040085 348.024872,183.943085 340.046600,183.716248 
	C334.541992,183.559753 332.297058,181.014328 332.259583,175.508118 
	C332.188293,165.027222 332.147430,154.544693 332.256104,144.064514 
	C332.323425,137.573532 334.982910,135.043564 341.410553,135.005646 
	C348.730621,134.962448 356.052673,135.086014 363.370819,134.960236 
	C367.497498,134.889328 370.489441,136.271622 371.637085,140.990570 
	C371.236420,151.581741 371.112518,161.508698 370.997101,171.435745 
	C370.964020,174.281570 370.955444,177.127716 370.935638,179.973709 
z"/>
<path fill="#F09852" opacity="1.000000" stroke="none" 
	d="
M314.992645,76.997498 
	C314.992645,76.997498 315.151398,77.248413 315.179260,77.693817 
	C315.473175,78.426239 315.739197,78.713249 316.005249,79.000259 
	C316.113007,81.312370 316.220764,83.624489 315.989471,86.645920 
	C315.433624,91.464767 314.997375,95.578468 315.075439,99.682396 
	C315.129456,102.524345 315.892761,105.352798 316.339111,108.187286 
	C316.217590,111.611938 316.096069,115.036591 315.405945,118.849060 
	C314.585297,119.550064 314.333282,119.863235 314.081268,120.176407 
	C314.081268,120.176399 314.165863,120.088028 313.713287,120.074799 
	C304.121735,120.040688 294.982605,119.980850 285.843903,120.021347 
	C282.886566,120.034447 280.197815,119.430626 280.100159,116.007912 
	C279.841949,106.956734 280.034393,97.892632 279.770935,88.841721 
	C279.694183,86.205421 281.861053,82.848053 278.000610,80.999390 
	C277.806366,77.174294 279.853638,74.567871 283.381744,74.442787 
	C292.839050,74.107513 302.316681,74.321381 311.785583,74.397476 
	C312.308044,74.401665 312.824646,75.134827 313.772461,75.965965 
	C314.464844,76.601334 314.728760,76.799416 314.992645,76.997498 
z"/>
<path fill="#F2B451" opacity="1.000000" stroke="none" 
	d="
M372.056702,114.018578 
	C372.084564,114.460480 372.112457,114.902382 371.727814,115.729729 
	C368.838165,119.514084 365.473694,120.262230 361.404846,120.081184 
	C354.791412,119.786919 348.114288,119.548866 341.541687,120.144249 
	C336.226685,120.625710 334.245544,117.055443 334.252869,113.712555 
	C334.280609,101.044754 335.181458,88.378876 335.755737,75.712273 
	C335.755737,75.712273 335.907867,75.727592 336.319641,75.808022 
	C346.928345,75.883507 357.125275,75.878555 367.322174,75.873604 
	C367.322174,75.873604 367.674591,75.887962 367.978210,76.177269 
	C368.591736,76.621017 368.901642,76.775467 369.211548,76.929916 
	C369.515656,76.998657 369.747406,77.167000 369.974854,78.074936 
	C370.363586,88.607399 370.639557,98.501694 371.044098,108.390732 
	C371.121277,110.277328 371.706085,112.143166 372.056702,114.018578 
z"/>
<path fill="#ED6B42" opacity="1.000000" stroke="none" 
	d="
M370.871002,199.006897 
	C371.276794,199.789017 371.682587,200.571136 371.736450,201.979477 
	C371.276428,215.109863 371.168335,227.613998 371.060242,240.118149 
	C371.060242,240.118149 371.123840,240.032394 370.910706,240.168823 
	C370.674622,240.626587 370.651703,240.947922 370.628784,241.269241 
	C370.628784,241.269241 370.624725,241.555420 370.130493,241.449631 
	C366.060760,241.288132 362.481598,241.103409 358.910645,241.205887 
	C353.022705,241.374893 347.140533,241.933990 341.255096,241.946869 
	C335.657471,241.959122 333.463867,238.686523 334.427032,233.010544 
	C334.892944,230.265030 334.967621,227.414444 334.880402,224.622040 
	C334.715515,219.344009 333.978333,214.064835 334.119781,208.803360 
	C334.205200,205.624130 334.912628,202.121902 336.519867,199.483017 
	C337.205658,198.357040 340.900818,198.961594 343.228882,198.956268 
	C352.442841,198.935211 361.656952,198.983994 370.871002,199.006897 
z"/>
<path fill="#172D61" opacity="1.000000" stroke="none" 
	d="
M212.835663,114.324936 
	C213.373444,113.629181 213.911224,112.933434 214.794006,112.533066 
	C218.425674,113.569008 221.712372,114.309570 225.010498,115.435814 
	C225.348038,120.544167 226.065933,125.277702 225.935150,129.987686 
	C225.211060,156.063477 227.941666,182.217941 224.196854,208.223465 
	C224.196854,208.223465 224.045700,208.136169 223.681534,208.098877 
	C214.709473,207.882263 214.413712,207.690735 212.644424,199.251511 
	C212.208221,197.170975 212.025192,194.996307 212.043854,192.867706 
	C212.273453,166.686478 212.562195,140.505768 212.835663,114.324936 
z"/>
<path fill="#B6524E" opacity="1.000000" stroke="none" 
	d="
M316.814545,212.480881 
	C316.948456,220.730865 317.183411,228.980957 317.173462,237.230774 
	C317.168549,241.314163 314.826233,243.835632 310.737854,243.980530 
	C302.475464,244.273346 294.189697,244.575928 285.941772,244.220627 
	C283.299072,244.106796 280.744995,241.934769 278.439728,240.352264 
	C279.159210,239.998108 279.589386,239.996094 280.350189,240.147339 
	C282.057159,240.817581 283.441010,241.794647 284.808533,241.772354 
	C290.901917,241.672989 296.990784,241.290543 303.081024,241.004532 
	C304.928528,240.917770 306.775208,240.812210 308.622253,240.715240 
	C308.887421,240.170242 309.152557,239.625229 309.417725,239.080231 
	C306.915222,237.576767 304.412750,236.073318 302.018890,234.635117 
	C307.818481,228.011826 313.578949,223.485489 315.346985,215.647705 
	C316.062714,214.358032 316.438629,213.419464 316.814545,212.480881 
z"/>
<path fill="#EC6E4D" opacity="1.000000" stroke="none" 
	d="
M370.784271,198.667389 
	C361.656952,198.983994 352.442841,198.935211 343.228882,198.956268 
	C340.900818,198.961594 337.205658,198.357040 336.519867,199.483017 
	C334.912628,202.121902 334.205200,205.624130 334.119781,208.803360 
	C333.978333,214.064835 334.715515,219.344009 334.880402,224.622040 
	C334.967621,227.414444 334.892944,230.265030 334.427032,233.010544 
	C333.463867,238.686523 335.657471,241.959122 341.255096,241.946869 
	C347.140533,241.933990 353.022705,241.374893 358.910645,241.205887 
	C362.481598,241.103409 366.060760,241.288132 370.032532,241.553970 
	C368.225525,242.655548 366.054199,244.207779 363.812988,244.316299 
	C356.687592,244.661316 349.530670,244.648560 342.396240,244.433350 
	C335.135956,244.214355 332.249786,241.749146 332.040680,234.570297 
	C331.736725,224.134613 332.020416,213.671875 332.378662,203.231827 
	C332.517273,199.192108 335.155396,195.866455 339.116394,195.692780 
	C348.039215,195.301575 357.003448,195.635818 365.939728,195.971008 
	C367.552856,196.031494 369.112946,197.506134 370.784271,198.667389 
z"/>
<path fill="#223062" opacity="1.000000" stroke="none" 
	d="
M224.533417,208.110779 
	C227.941666,182.217941 225.211060,156.063477 225.935150,129.987686 
	C226.065933,125.277702 225.348038,120.544167 225.058563,115.053360 
	C225.145859,114.033722 225.196533,113.782227 225.247192,113.530731 
	C226.410339,117.544930 228.521271,121.545158 228.580719,125.575630 
	C228.930588,149.298187 228.975922,173.030151 228.657227,196.752655 
	C228.606659,200.517410 226.191757,204.250412 224.533417,208.110779 
z"/>
<path fill="#232B57" opacity="1.000000" stroke="none" 
	d="
M244.412949,144.729889 
	C245.826309,139.809311 249.195282,137.531265 253.573486,137.633530 
	C258.528656,137.749252 261.774475,141.099792 262.026703,146.800079 
	C262.437012,156.073135 262.430969,165.393631 261.988861,174.664932 
	C261.707367,180.567184 257.938507,183.510605 252.553772,183.325821 
	C247.728561,183.160248 244.477661,179.792999 244.353104,173.977554 
	C244.147232,164.365768 244.328430,154.745712 244.412949,144.729889 
M259.983032,149.350418 
	C259.976807,148.886978 259.970612,148.423523 259.981354,147.323013 
	C259.971588,146.898605 259.961853,146.474197 259.907410,145.311920 
	C258.879669,140.975891 256.075897,139.451950 251.792603,140.015594 
	C247.630692,140.563278 246.108246,143.574753 246.123260,147.000793 
	C246.165894,156.741287 246.713089,166.478516 246.950470,176.219727 
	C247.047882,180.217560 249.906143,181.514496 252.869675,181.533066 
	C256.043030,181.552948 259.198792,180.311417 259.592163,175.403763 
	C259.717712,166.951019 259.843292,158.498276 259.983032,149.350418 
z"/>
<path fill="#172254" opacity="1.000000" stroke="none" 
	d="
M212.508316,114.564583 
	C212.562195,140.505768 212.273453,166.686478 212.043854,192.867706 
	C212.025192,194.996307 212.208221,197.170975 212.644424,199.251511 
	C214.413712,207.690735 214.709473,207.882263 223.767456,208.114243 
	C221.662476,208.855331 218.946213,210.453339 216.587250,210.035263 
	C212.216293,209.260635 211.056732,205.154236 210.804733,201.316742 
	C210.237701,192.682190 209.811111,184.026093 209.726242,175.374847 
	C209.572708,159.721436 209.531342,144.061630 209.838806,128.412277 
	C209.928177,123.862679 211.362946,119.339516 212.508316,114.564583 
z"/>
<path fill="#EB6448" opacity="1.000000" stroke="none" 
	d="
M278.486053,138.891861 
	C280.532959,137.578842 282.526794,135.242096 284.636139,135.132675 
	C293.083069,134.694489 301.581909,134.660278 310.024963,135.131897 
	C312.349060,135.261719 316.461792,137.607727 316.504486,139.034103 
	C316.918152,152.852570 316.639191,166.691757 316.036591,180.642899 
	C315.257050,180.581558 315.075562,180.343811 314.982056,179.573624 
	C314.673035,172.328094 314.241577,165.559265 314.069519,158.783829 
	C313.943207,153.809677 313.804504,148.790359 314.316162,143.858032 
	C314.849213,138.719238 314.068481,137.149002 308.950500,137.038010 
	C302.139954,136.890335 295.315613,136.804504 288.514038,137.091202 
	C285.642517,137.212234 282.813934,138.350601 279.595825,138.993317 
	C278.979248,138.937347 278.732666,138.914612 278.486053,138.891861 
z"/>
<path fill="#F2B258" opacity="1.000000" stroke="none" 
	d="
M335.388062,75.741165 
	C335.181458,88.378876 334.280609,101.044754 334.252869,113.712555 
	C334.245544,117.055443 336.226685,120.625710 341.541687,120.144249 
	C348.114288,119.548866 354.791412,119.786919 361.404846,120.081184 
	C365.473694,120.262230 368.838165,119.514084 371.669617,116.057785 
	C371.916382,120.789177 369.098389,122.826218 364.682129,122.890083 
	C356.553284,123.007637 348.419525,123.090897 340.292664,122.935158 
	C334.812195,122.830139 332.137878,119.986984 332.113251,114.513733 
	C332.064697,103.729279 332.002075,92.939865 332.312469,82.163071 
	C332.374542,80.007858 334.075226,77.899834 335.388062,75.741165 
z"/>
<path fill="#B84F4B" opacity="1.000000" stroke="none" 
	d="
M280.019531,239.994080 
	C279.589386,239.996094 279.159210,239.998108 278.406464,239.998901 
	C277.730103,237.892807 277.077240,235.788361 277.074371,233.683014 
	C277.061859,224.518204 277.192444,215.352280 277.360352,206.188400 
	C277.507568,198.153137 279.304260,196.116348 287.286530,195.784439 
	C294.101471,195.501068 300.943787,195.566864 307.760956,195.823730 
	C309.956635,195.906448 312.110931,197.087570 314.310791,198.219193 
	C314.216919,198.789474 314.096466,198.906754 313.563416,198.964630 
	C304.728088,198.604660 296.307373,198.203308 287.882019,198.034775 
	C280.861877,197.894348 280.014252,198.864212 280.006409,206.119415 
	C279.994171,217.410950 280.013550,228.702530 280.019531,239.994080 
z"/>
<path fill="#EC6E4D" opacity="1.000000" stroke="none" 
	d="
M278.294342,139.208923 
	C278.732666,138.914612 278.979248,138.937347 279.604218,139.458740 
	C279.988007,152.640228 279.993469,165.323059 280.038788,178.366638 
	C282.381378,179.811783 284.684082,180.896149 287.456116,181.994110 
	C292.751129,182.011917 297.594391,182.272263 302.397278,181.943298 
	C306.611969,181.654617 310.781403,180.705124 314.970825,180.047485 
	C315.075562,180.343811 315.257050,180.581558 315.718933,180.861511 
	C314.101807,181.901123 312.297974,183.607864 310.457184,183.648666 
	C301.509674,183.846909 292.549316,183.705963 283.599731,183.458817 
	C279.779480,183.353333 277.191895,180.945770 277.128906,177.209457 
	C276.936127,165.769302 277.114502,154.322220 277.227905,142.878616 
	C277.239014,141.758301 277.797974,140.643402 278.294342,139.208923 
z"/>
<path fill="#EF914E" opacity="1.000000" stroke="none" 
	d="
M277.797760,81.364746 
	C281.861053,82.848053 279.694183,86.205421 279.770935,88.841721 
	C280.034393,97.892632 279.841949,106.956734 280.100159,116.007912 
	C280.197815,119.430626 282.886566,120.034447 285.843903,120.021347 
	C294.982605,119.980850 304.121735,120.040688 313.749023,120.124443 
	C312.522491,121.114685 310.836884,122.772964 309.087677,122.842972 
	C301.478699,123.147530 293.849670,123.087006 286.230957,122.966866 
	C280.777863,122.880859 277.266357,119.967361 277.169464,114.468185 
	C276.977234,103.561378 277.416565,92.643433 277.797760,81.364746 
z"/>
<path fill="#F2B258" opacity="1.000000" stroke="none" 
	d="
M367.139984,75.510811 
	C357.125275,75.878555 346.928345,75.883507 336.252197,75.772057 
	C336.721802,75.148949 337.665588,74.213669 338.620300,74.202385 
	C347.334473,74.099495 356.050781,74.134018 364.765717,74.210686 
	C365.499084,74.217133 366.227234,74.821457 367.139984,75.510811 
z"/>
<path fill="#F2B258" opacity="1.000000" stroke="none" 
	d="
M372.118469,113.558357 
	C371.706085,112.143166 371.121277,110.277328 371.044098,108.390732 
	C370.639557,98.501694 370.363586,88.607399 370.051697,78.280800 
	C370.889160,80.191841 372.387604,82.525345 372.428711,84.884247 
	C372.592560,94.284576 372.302399,103.692825 372.118469,113.558357 
z"/>
<path fill="#EF914E" opacity="1.000000" stroke="none" 
	d="
M316.661285,107.889328 
	C315.892761,105.352798 315.129456,102.524345 315.075439,99.682396 
	C314.997375,95.578468 315.433624,91.464767 316.000977,87.076332 
	C316.562164,93.728745 316.772797,100.660057 316.661285,107.889328 
z"/>
<path fill="#ED8236" opacity="1.000000" stroke="none" 
	d="
M371.174011,179.622879 
	C370.955444,177.127716 370.964020,174.281570 370.997101,171.435745 
	C371.112518,161.508698 371.236420,151.581741 371.635010,141.352173 
	C371.746033,153.790405 371.579224,166.531235 371.174011,179.622879 
z"/>
<path fill="#EA4528" opacity="1.000000" stroke="none" 
	d="
M371.421692,239.866394 
	C371.168335,227.613998 371.276428,215.109863 371.678131,202.311066 
	C371.908875,214.549164 371.845978,227.081894 371.421692,239.866394 
z"/>
<path fill="#B84F4B" opacity="1.000000" stroke="none" 
	d="
M316.929962,212.225845 
	C316.438629,213.419464 316.062714,214.358032 315.344849,215.181854 
	C314.660645,209.719406 314.318359,204.371719 313.976044,199.024033 
	C314.096466,198.906754 314.216919,198.789474 314.538727,198.516937 
	C318.813385,202.338242 316.710022,207.361084 316.929962,212.225845 
z"/>
<path fill="#172254" opacity="1.000000" stroke="none" 
	d="
M225.090317,113.206787 
	C225.196533,113.782227 225.145859,114.033722 225.047119,114.667679 
	C221.712372,114.309570 218.425674,113.569008 215.065979,112.504906 
	C218.490952,109.801033 221.785172,110.307899 225.090317,113.206787 
z"/>
<path fill="#232D5B" opacity="1.000000" stroke="none" 
	d="
M323.072388,272.743103 
	C322.446960,272.836975 321.921234,272.709808 321.224701,272.365601 
	C321.815887,271.825867 322.577881,271.503143 323.653381,271.241028 
	C323.701996,271.708435 323.437042,272.115234 323.072388,272.743103 
z"/>
<path fill="#232D5B" opacity="1.000000" stroke="none" 
	d="
M317.570557,272.494568 
	C317.641785,272.915710 317.387360,273.245819 317.050354,273.766724 
	C316.336487,273.907379 315.705200,273.857208 314.616089,273.660156 
	C315.187134,273.143372 316.216034,272.773438 317.570557,272.494568 
z"/>
<path fill="#EF914E" opacity="1.000000" stroke="none" 
	d="
M314.381561,120.110260 
	C314.333282,119.863235 314.585297,119.550064 315.142822,119.169159 
	C315.192841,119.415665 314.937347,119.729889 314.381561,120.110260 
z"/>
<path fill="#F2B258" opacity="1.000000" stroke="none" 
	d="
M369.087036,76.684875 
	C368.901642,76.775467 368.591736,76.621017 368.142029,76.242462 
	C368.322357,76.158836 368.642456,76.299332 369.087036,76.684875 
z"/>
<path fill="#EF914E" opacity="1.000000" stroke="none" 
	d="
M314.952606,76.714706 
	C314.728760,76.799416 314.464844,76.601334 314.093750,76.175964 
	C314.295227,76.109756 314.603912,76.270836 314.952606,76.714706 
z"/>
<path fill="#232D5B" opacity="1.000000" stroke="none" 
	d="
M396.746277,87.001831 
	C396.966431,87.218010 396.936768,87.432114 396.808624,87.956451 
	C396.505402,88.012230 396.300690,87.757774 396.046387,87.252274 
	C395.996857,87.001228 396.496460,86.999748 396.746277,87.001831 
z"/>
<path fill="#EF914E" opacity="1.000000" stroke="none" 
	d="
M316.010925,78.687668 
	C315.739197,78.713249 315.473175,78.426239 315.155396,77.840347 
	C315.407959,77.819336 315.712280,78.097206 316.010925,78.687668 
z"/>
<path fill="#EC6E4D" opacity="1.000000" stroke="none" 
	d="
M370.817383,241.139374 
	C370.651703,240.947922 370.674622,240.626587 370.949524,240.205475 
	C371.168427,240.413910 371.103271,240.715179 370.817383,241.139374 
z"/>
<path fill="#BA5857" opacity="1.000000" stroke="none" 
	d="
M313.563416,198.964630 
	C314.318359,204.371719 314.660645,209.719406 315.005066,215.532959 
	C313.578949,223.485489 307.818481,228.011826 302.018890,234.635117 
	C304.412750,236.073318 306.915222,237.576767 309.417725,239.080231 
	C309.152557,239.625229 308.887421,240.170242 308.622253,240.715240 
	C306.775208,240.812210 304.928528,240.917770 303.081024,241.004532 
	C296.990784,241.290543 290.901917,241.672989 284.808533,241.772354 
	C283.441010,241.794647 282.057159,240.817581 280.350189,240.147339 
	C280.013550,228.702530 279.994171,217.410950 280.006409,206.119415 
	C280.014252,198.864212 280.861877,197.894348 287.882019,198.034775 
	C296.307373,198.203308 304.728088,198.604660 313.563416,198.964630 
z"/>
<path fill="#172D61" opacity="1.000000" stroke="none" 
	d="
M259.010712,176.001587 
	C259.198792,180.311417 256.043030,181.552948 252.869675,181.533066 
	C249.906143,181.514496 247.047882,180.217560 246.950470,176.219727 
	C246.713089,166.478516 246.165894,156.741287 246.123260,147.000793 
	C246.108246,143.574753 247.630692,140.563278 251.792603,140.015594 
	C256.075897,139.451950 258.879669,140.975891 259.713531,145.817352 
	C259.667908,146.868561 259.816162,147.414322 259.964417,147.960083 
	C259.970612,148.423523 259.976807,148.886978 259.685547,149.989319 
	C259.262299,159.086014 259.136505,167.543793 259.010712,176.001587 
z"/>
<path fill="#223062" opacity="1.000000" stroke="none" 
	d="
M259.301453,175.702667 
	C259.136505,167.543793 259.262299,159.086014 259.678467,150.336884 
	C259.843292,158.498276 259.717712,166.951019 259.301453,175.702667 
z"/>
<path fill="#223062" opacity="1.000000" stroke="none" 
	d="
M259.972900,147.641541 
	C259.816162,147.414322 259.667908,146.868561 259.735901,146.186295 
	C259.961853,146.474197 259.971588,146.898605 259.972900,147.641541 
z"/>
<path fill="#EC6345" opacity="1.000000" stroke="none" 
	d="
M279.998901,178.005890 
	C279.993469,165.323059 279.988007,152.640228 279.974182,139.491974 
	C282.813934,138.350601 285.642517,137.212234 288.514038,137.091202 
	C295.315613,136.804504 302.139954,136.890335 308.950500,137.038010 
	C314.068481,137.149002 314.849213,138.719238 314.316162,143.858032 
	C313.804504,148.790359 313.943207,153.809677 314.069519,158.783829 
	C314.241577,165.559265 314.673035,172.328094 314.982056,179.573624 
	C310.781403,180.705124 306.611969,181.654617 302.397278,181.943298 
	C297.594391,182.272263 292.751129,182.011917 287.401184,181.650299 
	C284.584259,180.197235 282.291565,179.101562 279.998901,178.005890 
z"/>
<path fill="#EB6448" opacity="1.000000" stroke="none" 
	d="
M280.038788,178.366638 
	C282.291565,179.101562 284.584259,180.197235 286.931854,181.636719 
	C284.684082,180.896149 282.381378,179.811783 280.038788,178.366638 
z"/>
</svg>